<svg width="404" height="158" viewBox="0 0 404 158" fill="none" xmlns="http://www.w3.org/2000/svg">
<mask id="path-1-inside-1_1_2639" fill="white">
<path fill-rule="evenodd" clip-rule="evenodd" d="M268.445 144.434C259.31 152.323 244.111 156.117 229.396 155.997C222.06 155.938 214.902 154.905 208.755 152.957C202.596 151.005 197.524 148.159 194.273 144.524C194.07 144.298 193.775 144.176 193.472 144.193C193.168 144.21 192.889 144.364 192.713 144.611C190.819 147.272 187.062 149.593 182.123 151.305C177.217 153.006 171.284 154.059 165.212 154.281C159.141 154.504 152.975 153.896 147.6 152.308C142.215 150.717 137.702 148.167 134.827 144.567C134.587 144.267 134.196 144.13 133.821 144.217C120.795 147.215 101.452 149.719 85.7071 147.544C77.8295 146.455 70.9718 144.211 66.245 140.382C61.5756 136.599 58.9099 131.213 59.4716 123.579C59.4945 123.267 59.3708 122.963 59.137 122.756C58.9032 122.55 58.5862 122.464 58.28 122.524C39.3763 126.269 25.4567 119.918 16.2366 110.837C6.96057 101.7 2.48312 89.8438 2.48312 82.7261C2.48312 82.6404 2.47211 82.5551 2.45035 82.4722C1.2373 77.8512 2.35229 69.6716 7.32086 62.3453C12.2487 55.0792 20.9554 48.6819 34.8873 47.5816C35.2771 47.5508 35.6133 47.2956 35.7477 46.9283C40.9748 32.645 52.6539 24.7426 65.0351 20.4454C77.4246 16.1452 90.3984 15.5028 97.9436 15.6753C98.1261 15.6795 98.3062 15.6337 98.4645 15.5428C113.224 7.0654 125.021 3.51986 137.139 3.05399C149.298 2.5866 161.85 5.21323 178.175 9.22139C178.358 9.26638 178.55 9.25861 178.729 9.19899C191.171 5.05495 201.829 2.35711 212.45 2.0329C223.051 1.70932 233.671 3.74962 246.024 9.16607C246.229 9.25625 246.459 9.27457 246.677 9.21808C265.337 4.36847 278.045 2.14022 289.413 2.7157C300.752 3.28972 310.84 6.65833 324.243 13.1657C324.384 13.234 324.539 13.2684 324.696 13.266C339.008 13.0437 349.269 14.4281 355.928 17.9556C359.231 19.705 361.631 21.9733 363.215 24.8334C364.804 27.7013 365.61 31.2318 365.61 35.558C365.61 36.0315 365.942 36.44 366.405 36.5369C380.569 39.4981 389.1 44.3543 393.087 49.9351C397 55.4118 396.68 61.8041 392.578 68.3592C392.359 68.7089 392.377 69.1571 392.624 69.4877C398.097 76.8231 401.38 82.2536 401.081 87.6915C400.784 93.0767 396.93 98.8283 386.958 106.655C386.66 106.889 386.52 107.27 386.595 107.641C387.38 111.51 387.116 114.659 386.026 117.215C384.938 119.766 382.987 121.825 380.224 123.446C374.646 126.718 365.893 128.128 354.909 128.128C354.356 128.128 353.909 128.575 353.909 129.128C353.909 131.339 353.157 133.074 351.809 134.443C350.438 135.836 348.398 136.901 345.759 137.628C340.47 139.086 333.069 139.104 324.812 138.006C324.526 137.968 324.238 138.055 324.021 138.245C323.804 138.434 323.68 138.709 323.68 138.997C323.68 139.259 323.49 139.784 322.77 140.545C322.08 141.274 321.024 142.089 319.614 142.921C316.801 144.582 312.705 146.237 307.673 147.384C297.615 149.677 283.927 149.92 269.463 144.26C269.118 144.125 268.726 144.192 268.445 144.434ZM208.151 154.864C202.26 152.997 197.155 150.286 193.594 146.717C191.222 149.434 187.347 151.611 182.778 153.195C177.659 154.97 171.525 156.051 165.286 156.28C159.047 156.509 152.658 155.888 147.033 154.226C141.646 152.634 136.888 150.066 133.668 146.303C120.536 149.267 101.274 151.713 85.4334 149.525C77.3964 148.414 70.121 146.096 64.986 141.936C60.0676 137.951 57.1837 132.332 57.41 124.722C38.4306 128.086 24.2719 121.558 14.8331 112.261C5.29553 102.867 0.535614 90.6028 0.483551 82.8542C-0.850433 77.5569 0.480957 68.8677 5.66562 61.2228C10.8551 53.5707 19.9179 46.9336 34.0937 45.6419C39.7046 30.9746 51.8384 22.9086 64.3793 18.5559C76.9288 14.2003 90.0015 13.5166 97.7101 13.6699C112.569 5.17054 124.616 1.53393 137.062 1.05547C149.465 0.578694 162.195 3.24367 178.371 7.2103C190.757 3.09725 201.555 0.364522 212.389 0.0338336C223.23 -0.297084 234.052 1.77825 246.509 7.19545C265.019 2.39751 277.893 0.129933 289.514 0.718267C301.173 1.30845 311.491 4.76758 324.903 11.2626C339.14 11.0584 349.766 12.4282 356.864 16.1883C360.46 18.0932 363.167 20.6192 364.965 23.8642C366.651 26.9081 367.505 30.5252 367.601 34.7467C381.489 37.7616 390.372 42.6943 394.714 48.7724C399.089 54.8945 398.715 61.96 394.631 68.8343C399.819 75.8367 403.414 81.6897 403.078 87.8015C402.735 94.0217 398.364 100.158 388.671 107.851C389.373 111.755 389.089 115.131 387.866 117.999C386.578 121.02 384.292 123.379 381.236 125.171C375.351 128.623 366.496 130.045 355.865 130.124C355.66 132.403 354.744 134.312 353.235 135.846C352.968 136.116 352.685 136.374 352.385 136.619C353.363 138.855 356.848 143.862 363.856 151.315C364.567 152.071 365.315 152.853 366.1 153.66C365.699 153.32 365.029 152.996 364.081 152.537C363.825 152.413 363.548 152.279 363.251 152.132C360.084 150.568 354.59 147.548 346.562 139.48C346.472 139.506 346.382 139.531 346.291 139.556C340.825 141.062 333.463 141.099 325.455 140.105C325.201 140.748 324.752 141.361 324.222 141.921C323.362 142.828 322.139 143.753 320.631 144.643C317.608 146.428 313.312 148.15 308.118 149.334C297.852 151.674 283.972 151.941 269.292 146.338C259.606 154.401 244.106 158.117 229.38 157.997C221.878 157.936 214.518 156.881 208.151 154.864ZM351.565 137.232C350.427 138.009 349.104 138.64 347.638 139.142C353.032 144.511 357.227 147.537 360.29 149.382C360.605 149.571 360.908 149.748 361.199 149.915C358.185 146.597 355.931 143.825 354.332 141.634C353.2 140.082 352.385 138.806 351.861 137.822C351.751 137.616 351.653 137.419 351.565 137.232Z"/>
</mask>
<path fill-rule="evenodd" clip-rule="evenodd" d="M268.445 144.434C259.31 152.323 244.111 156.117 229.396 155.997C222.06 155.938 214.902 154.905 208.755 152.957C202.596 151.005 197.524 148.159 194.273 144.524C194.07 144.298 193.775 144.176 193.472 144.193C193.168 144.21 192.889 144.364 192.713 144.611C190.819 147.272 187.062 149.593 182.123 151.305C177.217 153.006 171.284 154.059 165.212 154.281C159.141 154.504 152.975 153.896 147.6 152.308C142.215 150.717 137.702 148.167 134.827 144.567C134.587 144.267 134.196 144.13 133.821 144.217C120.795 147.215 101.452 149.719 85.7071 147.544C77.8295 146.455 70.9718 144.211 66.245 140.382C61.5756 136.599 58.9099 131.213 59.4716 123.579C59.4945 123.267 59.3708 122.963 59.137 122.756C58.9032 122.55 58.5862 122.464 58.28 122.524C39.3763 126.269 25.4567 119.918 16.2366 110.837C6.96057 101.7 2.48312 89.8438 2.48312 82.7261C2.48312 82.6404 2.47211 82.5551 2.45035 82.4722C1.2373 77.8512 2.35229 69.6716 7.32086 62.3453C12.2487 55.0792 20.9554 48.6819 34.8873 47.5816C35.2771 47.5508 35.6133 47.2956 35.7477 46.9283C40.9748 32.645 52.6539 24.7426 65.0351 20.4454C77.4246 16.1452 90.3984 15.5028 97.9436 15.6753C98.1261 15.6795 98.3062 15.6337 98.4645 15.5428C113.224 7.0654 125.021 3.51986 137.139 3.05399C149.298 2.5866 161.85 5.21323 178.175 9.22139C178.358 9.26638 178.55 9.25861 178.729 9.19899C191.171 5.05495 201.829 2.35711 212.45 2.0329C223.051 1.70932 233.671 3.74962 246.024 9.16607C246.229 9.25625 246.459 9.27457 246.677 9.21808C265.337 4.36847 278.045 2.14022 289.413 2.7157C300.752 3.28972 310.84 6.65833 324.243 13.1657C324.384 13.234 324.539 13.2684 324.696 13.266C339.008 13.0437 349.269 14.4281 355.928 17.9556C359.231 19.705 361.631 21.9733 363.215 24.8334C364.804 27.7013 365.61 31.2318 365.61 35.558C365.61 36.0315 365.942 36.44 366.405 36.5369C380.569 39.4981 389.1 44.3543 393.087 49.9351C397 55.4118 396.68 61.8041 392.578 68.3592C392.359 68.7089 392.377 69.1571 392.624 69.4877C398.097 76.8231 401.38 82.2536 401.081 87.6915C400.784 93.0767 396.93 98.8283 386.958 106.655C386.66 106.889 386.52 107.27 386.595 107.641C387.38 111.51 387.116 114.659 386.026 117.215C384.938 119.766 382.987 121.825 380.224 123.446C374.646 126.718 365.893 128.128 354.909 128.128C354.356 128.128 353.909 128.575 353.909 129.128C353.909 131.339 353.157 133.074 351.809 134.443C350.438 135.836 348.398 136.901 345.759 137.628C340.47 139.086 333.069 139.104 324.812 138.006C324.526 137.968 324.238 138.055 324.021 138.245C323.804 138.434 323.68 138.709 323.68 138.997C323.68 139.259 323.49 139.784 322.77 140.545C322.08 141.274 321.024 142.089 319.614 142.921C316.801 144.582 312.705 146.237 307.673 147.384C297.615 149.677 283.927 149.92 269.463 144.26C269.118 144.125 268.726 144.192 268.445 144.434ZM208.151 154.864C202.26 152.997 197.155 150.286 193.594 146.717C191.222 149.434 187.347 151.611 182.778 153.195C177.659 154.97 171.525 156.051 165.286 156.28C159.047 156.509 152.658 155.888 147.033 154.226C141.646 152.634 136.888 150.066 133.668 146.303C120.536 149.267 101.274 151.713 85.4334 149.525C77.3964 148.414 70.121 146.096 64.986 141.936C60.0676 137.951 57.1837 132.332 57.41 124.722C38.4306 128.086 24.2719 121.558 14.8331 112.261C5.29553 102.867 0.535614 90.6028 0.483551 82.8542C-0.850433 77.5569 0.480957 68.8677 5.66562 61.2228C10.8551 53.5707 19.9179 46.9336 34.0937 45.6419C39.7046 30.9746 51.8384 22.9086 64.3793 18.5559C76.9288 14.2003 90.0015 13.5166 97.7101 13.6699C112.569 5.17054 124.616 1.53393 137.062 1.05547C149.465 0.578694 162.195 3.24367 178.371 7.2103C190.757 3.09725 201.555 0.364522 212.389 0.0338336C223.23 -0.297084 234.052 1.77825 246.509 7.19545C265.019 2.39751 277.893 0.129933 289.514 0.718267C301.173 1.30845 311.491 4.76758 324.903 11.2626C339.14 11.0584 349.766 12.4282 356.864 16.1883C360.46 18.0932 363.167 20.6192 364.965 23.8642C366.651 26.9081 367.505 30.5252 367.601 34.7467C381.489 37.7616 390.372 42.6943 394.714 48.7724C399.089 54.8945 398.715 61.96 394.631 68.8343C399.819 75.8367 403.414 81.6897 403.078 87.8015C402.735 94.0217 398.364 100.158 388.671 107.851C389.373 111.755 389.089 115.131 387.866 117.999C386.578 121.02 384.292 123.379 381.236 125.171C375.351 128.623 366.496 130.045 355.865 130.124C355.66 132.403 354.744 134.312 353.235 135.846C352.968 136.116 352.685 136.374 352.385 136.619C353.363 138.855 356.848 143.862 363.856 151.315C364.567 152.071 365.315 152.853 366.1 153.66C365.699 153.32 365.029 152.996 364.081 152.537C363.825 152.413 363.548 152.279 363.251 152.132C360.084 150.568 354.59 147.548 346.562 139.48C346.472 139.506 346.382 139.531 346.291 139.556C340.825 141.062 333.463 141.099 325.455 140.105C325.201 140.748 324.752 141.361 324.222 141.921C323.362 142.828 322.139 143.753 320.631 144.643C317.608 146.428 313.312 148.15 308.118 149.334C297.852 151.674 283.972 151.941 269.292 146.338C259.606 154.401 244.106 158.117 229.38 157.997C221.878 157.936 214.518 156.881 208.151 154.864ZM351.565 137.232C350.427 138.009 349.104 138.64 347.638 139.142C353.032 144.511 357.227 147.537 360.29 149.382C360.605 149.571 360.908 149.748 361.199 149.915C358.185 146.597 355.931 143.825 354.332 141.634C353.2 140.082 352.385 138.806 351.861 137.822C351.751 137.616 351.653 137.419 351.565 137.232Z" fill="white"/>
<path d="M229.396 155.997L229.388 156.997L229.396 155.997ZM268.445 144.434L267.792 143.677L267.792 143.677L268.445 144.434ZM208.755 152.957L209.057 152.004L208.755 152.957ZM194.273 144.524L195.018 143.858L194.273 144.524ZM193.472 144.193L193.416 143.194H193.416L193.472 144.193ZM192.713 144.611L191.898 144.031H191.898L192.713 144.611ZM182.123 151.305L182.451 152.25L182.123 151.305ZM165.212 154.281L165.249 155.281H165.249L165.212 154.281ZM147.6 152.308L147.316 153.267L147.6 152.308ZM134.827 144.567L134.046 145.191L134.046 145.191L134.827 144.567ZM133.821 144.217L134.046 145.191H134.046L133.821 144.217ZM85.7071 147.544L85.844 146.553H85.844L85.7071 147.544ZM66.245 140.382L65.6155 141.159L66.245 140.382ZM59.4716 123.579L60.469 123.652V123.652L59.4716 123.579ZM59.137 122.756L58.4743 123.505L58.4743 123.505L59.137 122.756ZM58.28 122.524L58.4743 123.505L58.28 122.524ZM16.2366 110.837L16.9383 110.124L16.2366 110.837ZM2.45035 82.4722L1.48312 82.7261V82.7261L2.45035 82.4722ZM7.32086 62.3453L6.49323 61.784V61.784L7.32086 62.3453ZM34.8873 47.5816L34.966 48.5785L34.8873 47.5816ZM35.7477 46.9283L36.6867 47.272V47.272L35.7477 46.9283ZM65.0351 20.4454L65.363 21.3901L65.0351 20.4454ZM97.9436 15.6753L97.9207 16.6751H97.9207L97.9436 15.6753ZM98.4645 15.5428L98.9625 16.4099V16.4099L98.4645 15.5428ZM137.139 3.05399L137.101 2.05473L137.139 3.05399ZM178.175 9.22139L177.936 10.1926L177.936 10.1925L178.175 9.22139ZM178.729 9.19899L179.045 10.1477L179.045 10.1478L178.729 9.19899ZM212.45 2.0329L212.419 1.03337H212.419L212.45 2.0329ZM246.024 9.16607L245.622 10.0819L245.622 10.0819L246.024 9.16607ZM246.677 9.21808L246.928 10.1859L246.928 10.1859L246.677 9.21808ZM289.413 2.7157L289.363 3.71442L289.413 2.7157ZM324.243 13.1657L323.807 14.0653L323.807 14.0653L324.243 13.1657ZM324.696 13.266L324.68 12.2661L324.68 12.2661L324.696 13.266ZM355.928 17.9556L356.396 17.0719L355.928 17.9556ZM363.215 24.8334L362.341 25.318L363.215 24.8334ZM366.405 36.5369L366.61 35.558H366.61L366.405 36.5369ZM393.087 49.9351L393.901 49.3537H393.901L393.087 49.9351ZM392.578 68.3592L393.426 68.8897L393.426 68.8897L392.578 68.3592ZM392.624 69.4877L391.823 70.0857H391.823L392.624 69.4877ZM401.081 87.6915L402.079 87.7465L401.081 87.6915ZM386.958 106.655L386.34 105.869L386.34 105.869L386.958 106.655ZM386.595 107.641L387.575 107.442H387.575L386.595 107.641ZM386.026 117.215L385.106 116.823L386.026 117.215ZM380.224 123.446L380.73 124.309L380.224 123.446ZM351.809 134.443L352.522 135.144H352.522L351.809 134.443ZM345.759 137.628L346.025 138.592L346.025 138.592L345.759 137.628ZM324.812 138.006L324.944 137.014L324.944 137.014L324.812 138.006ZM324.021 138.245L323.362 137.492L323.362 137.492L324.021 138.245ZM322.77 140.545L323.496 141.233L323.496 141.233L322.77 140.545ZM319.614 142.921L319.106 142.06L319.614 142.921ZM307.673 147.384L307.451 146.409L307.673 147.384ZM269.463 144.26L269.828 143.329H269.828L269.463 144.26ZM193.594 146.717L192.841 146.059C193.023 145.85 193.284 145.726 193.561 145.717C193.838 145.708 194.106 145.814 194.302 146.01L193.594 146.717ZM208.151 154.864L208.453 153.91L208.151 154.864ZM182.778 153.195L183.106 154.14L182.778 153.195ZM165.286 156.28L165.322 157.279L165.286 156.28ZM147.033 154.226L146.749 155.185L147.033 154.226ZM133.668 146.303L133.447 145.327C133.809 145.246 134.186 145.371 134.427 145.653L133.668 146.303ZM85.4334 149.525L85.5703 148.534H85.5703L85.4334 149.525ZM64.986 141.936L64.3566 142.713L64.986 141.936ZM57.41 124.722L57.2355 123.738C57.5319 123.685 57.8361 123.769 58.0638 123.966C58.2915 124.163 58.4185 124.451 58.4096 124.752L57.41 124.722ZM14.8331 112.261L14.1314 112.974L14.8331 112.261ZM0.483551 82.8542L1.45328 82.61C1.47284 82.6877 1.483 82.7674 1.48352 82.8475L0.483551 82.8542ZM5.66562 61.2228L4.83798 60.6615V60.6615L5.66562 61.2228ZM34.0937 45.6419L35.0277 45.9992C34.8914 46.3554 34.5643 46.6031 34.1844 46.6377L34.0937 45.6419ZM64.3793 18.5559L64.7072 19.5006L64.3793 18.5559ZM97.7101 13.6699L98.2066 14.5379C98.0496 14.6278 97.8712 14.6733 97.6903 14.6697L97.7101 13.6699ZM137.062 1.05547L137.101 2.05473V2.05473L137.062 1.05547ZM178.371 7.2103L178.686 8.15934C178.508 8.21867 178.316 8.22636 178.133 8.18153L178.371 7.2103ZM212.389 0.0338336L212.358 -0.965701L212.389 0.0338336ZM246.509 7.19545L246.759 8.16346C246.543 8.2195 246.315 8.20156 246.11 8.11248L246.509 7.19545ZM289.514 0.718267L289.464 1.71699V1.71699L289.514 0.718267ZM324.903 11.2626L324.917 12.2625C324.761 12.2648 324.607 12.2306 324.467 12.1627L324.903 11.2626ZM356.864 16.1883L357.332 15.3046L357.332 15.3046L356.864 16.1883ZM364.965 23.8642L365.84 23.3796L364.965 23.8642ZM367.601 34.7467L367.389 35.724C366.937 35.6259 366.612 35.2314 366.601 34.7694L367.601 34.7467ZM394.714 48.7724L393.901 49.3537L394.714 48.7724ZM394.631 68.8343L393.827 69.4297C393.587 69.106 393.565 68.6699 393.771 68.3236L394.631 68.8343ZM403.078 87.8015L404.076 87.8565L403.078 87.8015ZM388.671 107.851L387.687 108.027C387.622 107.665 387.761 107.296 388.05 107.067L388.671 107.851ZM387.866 117.999L388.786 118.391L387.866 117.999ZM381.236 125.171L380.73 124.308L381.236 125.171ZM355.865 130.124L354.869 130.034C354.915 129.522 355.343 129.128 355.857 129.124L355.865 130.124ZM353.235 135.846L352.522 135.144L353.235 135.846ZM352.385 136.619L351.469 137.019C351.29 136.609 351.405 136.129 351.752 135.845L352.385 136.619ZM363.856 151.315L364.584 150.63L363.856 151.315ZM366.1 153.66L366.816 152.963C367.188 153.345 367.195 153.952 366.831 154.342C366.466 154.732 365.86 154.768 365.453 154.423L366.1 153.66ZM364.081 152.537L364.517 151.637H364.517L364.081 152.537ZM363.251 152.132L363.694 151.235L363.694 151.235L363.251 152.132ZM346.562 139.48L346.286 138.519C346.636 138.418 347.014 138.516 347.271 138.774L346.562 139.48ZM346.291 139.556L346.556 140.52L346.556 140.52L346.291 139.556ZM325.455 140.105L324.525 139.737C324.693 139.313 325.126 139.056 325.578 139.112L325.455 140.105ZM324.222 141.921L323.496 141.233L323.496 141.233L324.222 141.921ZM320.631 144.643L321.14 145.505L320.631 144.643ZM308.118 149.334L308.34 150.309L308.118 149.334ZM269.292 146.338L268.653 145.569C268.93 145.338 269.311 145.275 269.649 145.404L269.292 146.338ZM229.38 157.997L229.372 158.997L229.38 157.997ZM347.638 139.142L346.933 139.85C346.688 139.607 346.586 139.254 346.664 138.917C346.742 138.58 346.988 138.307 347.315 138.195L347.638 139.142ZM351.565 137.232L351.001 136.406C351.243 136.24 351.546 136.19 351.829 136.267C352.112 136.345 352.347 136.542 352.471 136.808L351.565 137.232ZM360.29 149.382L360.806 148.525H360.806L360.29 149.382ZM361.199 149.915L361.939 149.242C362.27 149.606 362.287 150.157 361.979 150.54C361.672 150.924 361.131 151.027 360.704 150.783L361.199 149.915ZM354.332 141.634L355.14 141.044L354.332 141.634ZM351.861 137.822L350.978 138.291H350.978L351.861 137.822ZM229.404 154.997C243.996 155.116 258.914 151.344 267.792 143.677L269.099 145.191C259.706 153.302 244.226 157.118 229.388 156.997L229.404 154.997ZM209.057 152.004C215.094 153.917 222.151 154.939 229.404 154.997L229.388 156.997C221.969 156.937 214.71 155.893 208.453 153.91L209.057 152.004ZM195.018 143.858C198.107 147.311 202.995 150.083 209.057 152.004L208.453 153.91C202.196 151.928 196.94 149.006 193.527 145.191L195.018 143.858ZM193.416 143.194C194.023 143.16 194.613 143.405 195.018 143.858L193.527 145.191H193.527L193.416 143.194ZM191.898 144.031C192.25 143.536 192.809 143.228 193.416 143.194L193.527 145.191H193.527L191.898 144.031ZM181.796 150.361C186.66 148.674 190.183 146.441 191.898 144.031L193.527 145.191C191.455 148.103 187.463 150.512 182.451 152.25L181.796 150.361ZM165.176 153.282C171.163 153.062 176.997 152.024 181.796 150.361L182.451 152.25C177.438 153.988 171.405 155.055 165.249 155.281L165.176 153.282ZM147.883 151.349C153.133 152.9 159.188 153.502 165.176 153.282L165.249 155.281C159.094 155.507 152.816 154.892 147.316 153.267L147.883 151.349ZM135.608 143.943C138.312 147.328 142.615 149.792 147.883 151.349L147.316 153.267C141.816 151.641 137.093 149.006 134.046 145.191L135.608 143.943ZM133.597 143.242C134.346 143.07 135.128 143.342 135.608 143.943L134.046 145.191L134.046 145.191L133.597 143.242ZM85.844 146.553C101.419 148.705 120.628 146.228 133.597 143.242L134.046 145.191C120.963 148.203 101.485 150.733 85.5703 148.534L85.844 146.553ZM66.8744 139.605C71.3972 143.269 78.0461 145.476 85.844 146.553L85.5703 148.534C77.6129 147.435 70.5464 145.153 65.6155 141.159L66.8744 139.605ZM60.469 123.652C59.9306 130.969 62.4666 136.034 66.8744 139.605L65.6155 141.159C60.6846 137.164 57.8893 131.457 58.4743 123.505L60.469 123.652ZM59.7996 122.007C60.2672 122.421 60.5147 123.029 60.469 123.652L58.4743 123.505V123.505L59.7996 122.007ZM58.0857 121.543C58.6981 121.422 59.3321 121.594 59.7997 122.007L58.4743 123.505L58.4743 123.505L58.0857 121.543ZM16.9383 110.124C25.9452 118.996 39.5367 125.218 58.0857 121.543L58.4743 123.505C39.2159 127.32 24.9681 120.84 15.5349 111.549L16.9383 110.124ZM3.48312 82.7261C3.48312 89.5321 7.81949 101.143 16.9383 110.124L15.5349 111.549C6.10165 102.258 1.48312 90.1554 1.48312 82.7261H3.48312ZM3.41757 82.2183C3.46109 82.384 3.48312 82.5547 3.48312 82.7261H1.48312V82.7261L3.41757 82.2183ZM8.1485 62.9066C3.30869 70.043 2.2916 77.929 3.41757 82.2183L1.48312 82.7261C0.183014 77.7733 1.3959 69.3002 6.49323 61.784L8.1485 62.9066ZM34.966 48.5785C21.3388 49.6548 12.9068 55.8903 8.1485 62.9066L6.49323 61.784C11.5905 54.268 20.5719 47.7091 34.8086 46.5847L34.966 48.5785ZM36.6867 47.272C36.4179 48.0065 35.7457 48.5169 34.966 48.5785L34.8086 46.5847V46.5847L36.6867 47.272ZM65.363 21.3901C53.1466 25.6301 41.7741 33.3705 36.6867 47.272L34.8086 46.5847C40.1754 31.9194 52.1611 23.8551 64.7072 19.5006L65.363 21.3901ZM97.9207 16.6751C90.4376 16.504 77.5961 17.1442 65.363 21.3901L64.7072 19.5006C77.2531 15.1462 90.3592 14.5017 97.9664 14.6756L97.9207 16.6751ZM98.9625 16.4099C98.646 16.5917 98.2857 16.6834 97.9207 16.6751L97.9664 14.6756L97.9664 14.6756L98.9625 16.4099ZM137.178 4.05325C125.257 4.51152 113.617 7.99309 98.9625 16.4099L97.9664 14.6756C112.832 6.13771 124.785 2.52819 137.101 2.05473L137.178 4.05325ZM177.936 10.1925C161.604 6.18257 149.178 3.59192 137.178 4.05325L137.101 2.05473C149.417 1.58127 162.096 4.24389 178.413 8.25024L177.936 10.1925ZM179.045 10.1478C178.687 10.267 178.303 10.2825 177.936 10.1926L178.413 8.25023L178.413 8.25023L179.045 10.1478ZM212.48 3.03244C202.005 3.35218 191.457 6.01359 179.045 10.1477L178.413 8.25024C190.884 4.09631 201.652 1.36204 212.419 1.03337L212.48 3.03244ZM245.622 10.0819C233.388 4.71758 222.915 2.71393 212.48 3.03244L212.419 1.03337C223.186 0.704721 233.954 2.78167 246.425 8.25024L245.622 10.0819ZM246.928 10.1859C246.494 10.2989 246.033 10.2623 245.622 10.0819L246.425 8.25022L246.425 8.25023L246.928 10.1859ZM289.363 3.71442C278.157 3.14714 265.573 5.34024 246.928 10.1859L246.425 8.25024C265.1 3.39671 277.934 1.1333 289.464 1.71698L289.363 3.71442ZM323.807 14.0653C310.459 7.58527 300.511 4.27879 289.363 3.71442L289.464 1.71698C300.994 2.30066 311.22 5.73139 324.68 12.2661L323.807 14.0653ZM324.711 14.2658C324.398 14.2707 324.088 14.202 323.807 14.0653L324.68 12.2661L324.68 12.2661L324.711 14.2658ZM355.46 18.8393C349.04 15.4386 339.001 14.0439 324.711 14.2658L324.68 12.2661C339.015 12.0434 349.497 13.4177 356.396 17.0719L355.46 18.8393ZM362.341 25.318C360.863 22.6503 358.616 20.5109 355.46 18.8393L356.396 17.0719C359.846 18.8991 362.399 21.2963 364.09 24.3488L362.341 25.318ZM364.61 35.558C364.61 31.3544 363.827 28.0014 362.341 25.318L364.09 24.3488C365.781 27.4013 366.61 31.1093 366.61 35.558H364.61ZM366.201 37.5157C365.274 37.322 364.61 36.5049 364.61 35.558H366.61H366.61L366.201 37.5157ZM392.273 50.5164C388.504 45.2412 380.276 40.4585 366.201 37.5157L366.61 35.558C380.862 38.5376 389.695 43.4673 393.901 49.3537L392.273 50.5164ZM391.73 67.8288C395.674 61.5257 395.894 55.5841 392.273 50.5164L393.901 49.3537C398.106 55.2395 397.685 62.0824 393.426 68.8897L391.73 67.8288ZM391.823 70.0857C391.329 69.4244 391.293 68.5281 391.73 67.8288L393.426 68.8897L393.426 68.8897L391.823 70.0857ZM400.082 87.6365C400.219 85.1467 399.542 82.6054 398.121 79.746C396.696 76.8773 394.554 73.7461 391.823 70.0857L393.426 68.8897C396.167 72.5647 398.403 75.8165 399.913 78.8563C401.427 81.9056 402.242 84.7985 402.079 87.7465L400.082 87.6365ZM386.34 105.869C396.285 98.0634 399.811 92.5535 400.082 87.6365L402.079 87.7465C401.757 93.5999 397.575 99.5931 387.575 107.442L386.34 105.869ZM385.615 107.84C385.465 107.098 385.745 106.336 386.34 105.869L387.575 107.442L387.575 107.442L385.615 107.84ZM385.106 116.823C386.098 114.497 386.371 111.563 385.615 107.84L387.575 107.442C388.39 111.458 388.134 114.821 386.946 117.607L385.106 116.823ZM379.718 122.583C382.335 121.048 384.118 119.14 385.106 116.823L386.946 117.607C385.758 120.393 383.64 122.602 380.73 124.309L379.718 122.583ZM354.909 127.128C365.857 127.128 374.382 125.714 379.718 122.583L380.73 124.309C374.911 127.722 365.929 129.128 354.909 129.128V127.128ZM352.909 129.128C352.909 128.023 353.804 127.128 354.909 127.128V129.128H352.909ZM351.097 133.741C352.255 132.564 352.909 131.083 352.909 129.128H354.909C354.909 131.595 354.058 133.584 352.522 135.144L351.097 133.741ZM345.494 136.664C348.032 135.965 349.891 134.966 351.097 133.741L352.522 135.144C350.986 136.705 348.765 137.837 346.025 138.592L345.494 136.664ZM324.944 137.014C333.151 138.106 340.395 138.069 345.494 136.664L346.025 138.592C340.545 140.102 332.987 140.102 324.68 138.997L324.944 137.014ZM323.362 137.492C323.796 137.113 324.372 136.938 324.944 137.014L324.68 138.997H324.68L323.362 137.492ZM322.68 138.997C322.68 138.42 322.929 137.872 323.362 137.492L324.68 138.997H324.68H322.68ZM322.043 139.858C322.357 139.526 322.526 139.277 322.612 139.115C322.704 138.942 322.68 138.909 322.68 138.997H324.68C324.68 139.649 324.271 140.414 323.496 141.233L322.043 139.858ZM319.106 142.06C320.466 141.257 321.438 140.497 322.043 139.858L323.496 141.233C322.721 142.051 321.582 142.921 320.123 143.782L319.106 142.06ZM307.451 146.409C312.402 145.28 316.398 143.659 319.106 142.06L320.123 143.782C317.205 145.505 313.009 147.193 307.895 148.359L307.451 146.409ZM269.828 143.329C284.081 148.907 297.562 148.664 307.451 146.409L307.895 148.359C297.668 150.691 283.773 150.934 269.099 145.191L269.828 143.329ZM267.792 143.677C268.353 143.193 269.137 143.058 269.828 143.329L269.099 145.191L269.099 145.191L267.792 143.677ZM194.302 146.01C197.713 149.428 202.655 152.073 208.453 153.91L207.849 155.817C201.864 153.921 196.598 151.143 192.886 147.423L194.302 146.01ZM182.451 152.25C186.944 150.692 190.632 148.59 192.841 146.059L194.347 147.374C191.811 150.279 187.75 152.529 183.106 154.14L182.451 152.25ZM165.249 155.281C171.405 155.055 177.438 153.988 182.451 152.25L183.106 154.14C177.88 155.952 171.646 157.047 165.322 157.279L165.249 155.281ZM147.316 153.267C152.816 154.892 159.094 155.507 165.249 155.281L165.322 157.279C158.999 157.512 152.499 156.884 146.749 155.185L147.316 153.267ZM134.427 145.653C137.48 149.22 142.042 151.708 147.316 153.267L146.749 155.185C141.25 153.56 136.295 150.912 132.908 146.953L134.427 145.653ZM85.5703 148.534C101.243 150.699 120.372 148.279 133.447 145.327L133.888 147.278C120.7 150.255 101.305 152.727 85.2965 150.515L85.5703 148.534ZM65.6155 141.159C70.5464 145.153 77.6129 147.435 85.5703 148.534L85.2965 150.515C77.1798 149.394 69.6956 147.038 64.3566 142.713L65.6155 141.159ZM58.4096 124.752C58.1925 132.051 60.9402 137.371 65.6155 141.159L64.3566 142.713C59.1951 138.532 56.1748 132.613 56.4105 124.693L58.4096 124.752ZM15.5349 111.549C24.7667 120.642 38.6065 127.039 57.2355 123.738L57.5845 125.707C38.2547 129.133 23.7772 122.475 14.1314 112.974L15.5349 111.549ZM1.48352 82.8475C1.53354 90.2887 6.15433 102.31 15.5349 111.549L14.1314 112.974C4.43674 103.425 -0.462311 90.9169 -0.516418 82.8609L1.48352 82.8475ZM6.49326 61.784C1.43704 69.2396 0.201569 77.6395 1.45328 82.61L-0.486176 83.0984C-1.90244 77.4744 -0.475128 68.4958 4.83798 60.6615L6.49326 61.784ZM34.1844 46.6377C20.3101 47.902 11.5164 54.3774 6.49326 61.784L4.83798 60.6615C10.1938 52.7641 19.5258 45.9652 34.0029 44.646L34.1844 46.6377ZM64.7072 19.5006C52.3282 23.7971 40.4957 31.7053 35.0277 45.9992L33.1597 45.2846C38.9134 30.2438 51.3487 22.0201 64.0515 17.6112L64.7072 19.5006ZM97.6903 14.6697C90.0436 14.5177 77.1019 15.1987 64.7072 19.5006L64.0515 17.6112C76.7557 13.2018 89.9595 12.5156 97.73 12.6701L97.6903 14.6697ZM137.101 2.05473C124.851 2.52564 112.96 6.099 98.2066 14.5379L97.2137 12.8019C112.179 4.24208 124.381 0.54221 137.024 0.0562086L137.101 2.05473ZM178.133 8.18153C161.95 4.21339 149.346 1.58399 137.101 2.05473L137.024 0.0562087C149.583 -0.426605 162.439 2.27396 178.609 6.23907L178.133 8.18153ZM212.419 1.03337C201.731 1.35962 191.042 4.0564 178.686 8.15934L178.056 6.26126C190.473 2.1381 201.379 -0.630578 212.358 -0.965701L212.419 1.03337ZM246.11 8.11248C233.772 2.74691 223.096 0.707472 212.419 1.03337L212.358 -0.965701C223.364 -1.30164 234.332 0.809591 246.907 6.27842L246.11 8.11248ZM289.464 1.71699C278.003 1.13681 265.254 3.36966 246.759 8.16346L246.258 6.22744C264.784 1.42537 277.782 -0.876944 289.565 -0.280455L289.464 1.71699ZM324.467 12.1627C311.112 5.69523 300.933 2.29756 289.464 1.71699L289.565 -0.280455C301.413 0.319327 311.869 3.83994 325.338 10.3626L324.467 12.1627ZM356.396 17.072C349.536 13.4381 339.131 12.0586 324.917 12.2625L324.888 10.2627C339.149 10.0582 349.995 11.4183 357.332 15.3046L356.396 17.072ZM364.09 24.3488C362.399 21.2963 359.846 18.8991 356.396 17.072L357.332 15.3046C361.075 17.2872 363.935 19.9421 365.84 23.3796L364.09 24.3488ZM366.601 34.7694C366.508 30.6689 365.68 27.2193 364.09 24.3488L365.84 23.3796C367.622 26.5969 368.502 30.3815 368.601 34.724L366.601 34.7694ZM393.901 49.3537C389.773 43.5764 381.187 38.7194 367.389 35.724L367.813 33.7695C381.791 36.8039 390.97 41.8121 395.528 48.191L393.901 49.3537ZM393.771 68.3236C397.703 61.7058 397.992 55.0802 393.901 49.3537L395.528 48.191C400.185 54.7088 399.727 62.2142 395.49 69.3451L393.771 68.3236ZM402.079 87.7465C402.393 82.0433 399.042 76.467 393.827 69.4297L395.434 68.239C400.597 75.2064 404.435 81.3361 404.076 87.8565L402.079 87.7465ZM388.05 107.067C397.71 99.4001 401.762 93.5047 402.079 87.7465L404.076 87.8565C403.708 94.5386 399.018 100.915 389.293 108.634L388.05 107.067ZM386.946 117.607C388.076 114.957 388.363 111.786 387.687 108.027L389.656 107.674C390.383 111.723 390.102 115.305 388.786 118.391L386.946 117.607ZM380.73 124.308C383.64 122.602 385.758 120.393 386.946 117.607L388.786 118.391C387.398 121.647 384.944 124.155 381.742 126.034L380.73 124.308ZM355.857 129.124C366.449 129.045 375.081 127.622 380.73 124.308L381.742 126.034C375.621 129.624 366.544 131.044 355.872 131.124L355.857 129.124ZM352.522 135.144C353.87 133.774 354.685 132.08 354.869 130.034L356.861 130.214C356.635 132.725 355.618 134.85 353.947 136.547L352.522 135.144ZM351.752 135.845C352.025 135.621 352.282 135.388 352.522 135.144L353.947 136.547C353.655 136.844 353.345 137.126 353.019 137.393L351.752 135.845ZM353.302 136.218C354.204 138.283 357.582 143.183 364.584 150.63L363.127 152C356.114 144.541 352.521 139.426 351.469 137.019L353.302 136.218ZM364.584 150.63C365.291 151.382 366.035 152.16 366.816 152.963L365.383 154.357C364.594 153.547 363.842 152.761 363.127 152L364.584 150.63ZM365.453 154.423C365.173 154.186 364.65 153.923 363.645 153.437L364.517 151.637C365.407 152.068 366.224 152.454 366.746 152.897L365.453 154.423ZM363.645 153.437C363.389 153.313 363.109 153.177 362.809 153.029L363.694 151.235C363.987 151.38 364.26 151.512 364.517 151.637L363.645 153.437ZM362.809 153.029C359.553 151.421 353.966 148.339 345.854 140.185L347.271 138.774C355.214 146.757 360.615 149.715 363.694 151.235L362.809 153.029ZM346.025 138.592C346.112 138.568 346.199 138.544 346.286 138.519L346.839 140.441C346.745 140.468 346.651 140.494 346.556 140.52L346.025 138.592ZM325.578 139.112C333.535 140.101 340.745 140.047 346.025 138.592L346.556 140.52C340.905 142.077 333.39 142.098 325.332 141.097L325.578 139.112ZM323.496 141.233C323.977 140.725 324.335 140.218 324.525 139.737L326.385 140.473C326.066 141.278 325.526 141.997 324.948 142.608L323.496 141.233ZM320.123 143.782C321.582 142.921 322.721 142.051 323.496 141.233L324.948 142.608C324.003 143.605 322.697 144.585 321.14 145.505L320.123 143.782ZM307.895 148.359C313.009 147.193 317.205 145.505 320.123 143.782L321.14 145.505C318.012 147.351 313.615 149.106 308.34 150.309L307.895 148.359ZM269.649 145.404C284.12 150.928 297.796 150.661 307.895 148.359L308.34 150.309C297.907 152.687 283.823 152.955 268.936 147.272L269.649 145.404ZM229.388 156.997C243.99 157.116 259.219 153.422 268.653 145.569L269.932 147.107C259.993 155.381 244.221 159.118 229.372 158.997L229.388 156.997ZM208.453 153.91C214.71 155.893 221.969 156.937 229.388 156.997L229.372 158.997C221.787 158.936 214.326 157.869 207.849 155.817L208.453 153.91ZM347.315 138.195C348.714 137.717 349.952 137.123 351.001 136.406L352.129 138.057C350.903 138.896 349.495 139.563 347.962 140.088L347.315 138.195ZM359.774 150.238C356.637 148.349 352.379 145.272 346.933 139.85L348.344 138.433C353.685 143.75 357.817 146.725 360.806 148.525L359.774 150.238ZM360.704 150.783C360.406 150.613 360.096 150.432 359.774 150.238L360.806 148.525C361.114 148.71 361.41 148.884 361.695 149.046L360.704 150.783ZM355.14 141.044C356.713 143.201 358.944 145.945 361.939 149.242L360.459 150.587C357.427 147.249 355.149 144.45 353.524 142.223L355.14 141.044ZM352.744 137.352C353.238 138.28 354.024 139.515 355.14 141.044L353.524 142.223C352.376 140.65 351.532 139.332 350.978 138.291L352.744 137.352ZM352.471 136.808C352.55 136.977 352.641 137.159 352.744 137.352L350.978 138.291C350.862 138.072 350.755 137.86 350.659 137.655L352.471 136.808Z" fill="#333F72" mask="url(#path-1-inside-1_1_2639)"/>
<path d="M52.7999 41.95C52.7999 41.404 52.4499 41.096 52.0159 41.096C51.8479 41.096 51.7219 41.138 51.6239 41.194C51.6239 40.746 52.0159 40.382 52.5619 40.27V39.682C51.5819 39.822 50.8679 40.634 50.8679 41.656C50.8679 42.412 51.3159 42.874 51.8759 42.874C52.4359 42.874 52.7999 42.482 52.7999 41.95ZM55.3059 41.95C55.3059 41.404 54.9419 41.096 54.5079 41.096C54.3539 41.096 54.2279 41.124 54.1299 41.18C54.1299 40.746 54.5219 40.382 55.0679 40.27V39.682C54.0879 39.822 53.3599 40.634 53.3599 41.656C53.3599 42.412 53.8079 42.874 54.3819 42.874C54.9279 42.874 55.3059 42.482 55.3059 41.95ZM58.7276 39.878H57.3556V50H58.7276V39.878ZM66.0082 49.986V46.262C66.0082 45.086 66.6942 44.162 67.9682 44.162C68.9482 44.162 69.6062 44.722 69.6062 46.108V50H70.9222V45.814C70.9222 44.064 70.0822 42.958 68.3322 42.958C67.2682 42.958 66.4422 43.462 66.0082 44.204V39.696H64.6922V49.986H66.0082ZM74.7469 50.168C75.8529 50.168 76.7909 49.678 77.1409 48.894L77.2809 50H78.4009V45.702C78.4009 43.854 77.2529 42.958 75.5589 42.958C73.7949 42.958 72.6189 43.896 72.6189 45.324H73.7669C73.7669 44.498 74.3969 44.008 75.5029 44.008C76.4269 44.008 77.1129 44.414 77.1129 45.562V45.758L74.9569 45.926C73.3469 46.052 72.4089 46.836 72.4089 48.096C72.4089 49.342 73.2769 50.168 74.7469 50.168ZM75.1249 49.146C74.2709 49.146 73.7389 48.782 73.7389 48.054C73.7389 47.382 74.2149 46.934 75.3769 46.822L77.1269 46.682V47.046C77.1269 48.334 76.3709 49.146 75.1249 49.146ZM82.9674 50.168C84.0594 50.168 84.9834 49.692 85.4314 48.754L85.5434 50H86.7194V39.696H85.4174V44.26C84.9554 43.42 84.0734 42.958 83.0234 42.958C80.9934 42.958 79.7754 44.498 79.7754 46.598C79.7754 48.684 80.9794 50.168 82.9674 50.168ZM83.2334 48.978C81.8894 48.978 81.1054 47.97 81.1054 46.556C81.1054 45.156 81.8894 44.148 83.2334 44.148C84.5774 44.148 85.4034 45.156 85.4034 46.556C85.4034 47.984 84.5774 48.978 83.2334 48.978ZM94.4481 50.168C95.5541 50.168 96.4921 49.678 96.8421 48.894L96.9821 50H98.1021V45.702C98.1021 43.854 96.9541 42.958 95.2601 42.958C93.4961 42.958 92.3201 43.896 92.3201 45.324H93.4681C93.4681 44.498 94.0981 44.008 95.2041 44.008C96.1281 44.008 96.8141 44.414 96.8141 45.562V45.758L94.6581 45.926C93.0481 46.052 92.1101 46.836 92.1101 48.096C92.1101 49.342 92.9781 50.168 94.4481 50.168ZM94.8261 49.146C93.9721 49.146 93.4401 48.782 93.4401 48.054C93.4401 47.382 93.9161 46.934 95.0781 46.822L96.8281 46.682V47.046C96.8281 48.334 96.0721 49.146 94.8261 49.146ZM103.319 46.402C103.319 48.32 104.551 49.818 106.497 49.818C107.575 49.818 108.471 49.342 108.919 48.544V49.916C108.919 51.218 108.079 52.058 106.791 52.058C105.643 52.058 104.887 51.47 104.719 50.462H103.403C103.655 52.198 104.929 53.248 106.791 53.248C108.891 53.248 110.221 51.876 110.221 49.72V43.154H109.045L108.947 44.316C108.513 43.462 107.659 42.958 106.553 42.958C104.565 42.958 103.319 44.47 103.319 46.402ZM104.635 46.374C104.635 45.114 105.419 44.106 106.735 44.106C108.079 44.106 108.863 45.058 108.863 46.374C108.863 47.718 108.051 48.67 106.721 48.67C105.433 48.67 104.635 47.662 104.635 46.374ZM116.04 43.098C115.774 43.042 115.578 43.014 115.34 43.014C114.402 43.014 113.716 43.49 113.436 44.204L113.352 43.168H112.12V50H113.436V46.374C113.436 45.058 114.206 44.302 115.452 44.302H116.04V43.098ZM119.982 50.168C121.676 50.168 122.824 49.342 123.16 47.872H121.928C121.704 48.656 121.032 49.076 120.01 49.076C118.708 49.076 117.952 48.278 117.854 46.836L123.146 46.822V46.332C123.146 44.302 121.872 42.958 119.926 42.958C117.938 42.958 116.58 44.442 116.58 46.584C116.58 48.712 117.966 50.168 119.982 50.168ZM119.926 44.064C121.088 44.064 121.83 44.82 121.83 45.954H117.882C118.05 44.75 118.778 44.064 119.926 44.064ZM126.55 50.168C127.656 50.168 128.594 49.678 128.944 48.894L129.084 50H130.204V45.702C130.204 43.854 129.056 42.958 127.362 42.958C125.598 42.958 124.422 43.896 124.422 45.324H125.57C125.57 44.498 126.2 44.008 127.306 44.008C128.23 44.008 128.916 44.414 128.916 45.562V45.758L126.76 45.926C125.15 46.052 124.212 46.836 124.212 48.096C124.212 49.342 125.08 50.168 126.55 50.168ZM126.928 49.146C126.074 49.146 125.542 48.782 125.542 48.054C125.542 47.382 126.018 46.934 127.18 46.822L128.93 46.682V47.046C128.93 48.334 128.174 49.146 126.928 49.146ZM133.849 50V44.26H135.193V43.154H133.849V41.012H132.533V43.154H131.189V44.26H132.533V50H133.849ZM143.156 50.168C144.85 50.168 145.998 49.342 146.334 47.872H145.102C144.878 48.656 144.206 49.076 143.184 49.076C141.882 49.076 141.126 48.278 141.028 46.836L146.32 46.822V46.332C146.32 44.302 145.046 42.958 143.1 42.958C141.112 42.958 139.754 44.442 139.754 46.584C139.754 48.712 141.14 50.168 143.156 50.168ZM143.1 44.064C144.262 44.064 145.004 44.82 145.004 45.954H141.056C141.224 44.75 141.952 44.064 143.1 44.064ZM148.23 50L149.91 47.494L151.618 50H153.144L150.806 46.612L153.186 43.154H151.688L149.994 45.702L148.258 43.154H146.732L149.112 46.612L146.718 50H148.23ZM154.284 53.066H155.6V48.88C156.048 49.72 156.958 50.182 158.05 50.182C160.08 50.182 161.228 48.614 161.228 46.528C161.228 44.428 160.01 42.958 158.05 42.958C156.958 42.958 156.034 43.448 155.572 44.386L155.474 43.154H154.284V53.066ZM155.614 46.584C155.614 45.156 156.426 44.162 157.77 44.162C159.114 44.162 159.912 45.17 159.912 46.584C159.912 47.984 159.114 48.992 157.77 48.992C156.426 48.992 155.614 47.984 155.614 46.584ZM165.633 50.168C167.327 50.168 168.475 49.342 168.811 47.872H167.579C167.355 48.656 166.683 49.076 165.661 49.076C164.359 49.076 163.603 48.278 163.505 46.836L168.797 46.822V46.332C168.797 44.302 167.523 42.958 165.577 42.958C163.589 42.958 162.231 44.442 162.231 46.584C162.231 48.712 163.617 50.168 165.633 50.168ZM165.577 44.064C166.739 44.064 167.481 44.82 167.481 45.954H163.533C163.701 44.75 164.429 44.064 165.577 44.064ZM174.186 43.098C173.92 43.042 173.724 43.014 173.486 43.014C172.548 43.014 171.862 43.49 171.582 44.204L171.498 43.168H170.266V50H171.582V46.374C171.582 45.058 172.352 44.302 173.598 44.302H174.186V43.098ZM176.065 41.53C176.541 41.53 176.933 41.138 176.933 40.662C176.933 40.172 176.541 39.794 176.065 39.794C175.589 39.794 175.197 40.172 175.197 40.662C175.197 41.138 175.589 41.53 176.065 41.53ZM175.421 50H176.737V43.154H175.421V50ZM181.601 50.168C183.295 50.168 184.443 49.342 184.779 47.872H183.547C183.323 48.656 182.651 49.076 181.629 49.076C180.327 49.076 179.571 48.278 179.473 46.836L184.765 46.822V46.332C184.765 44.302 183.491 42.958 181.545 42.958C179.557 42.958 178.199 44.442 178.199 46.584C178.199 48.712 179.585 50.168 181.601 50.168ZM181.545 44.064C182.707 44.064 183.449 44.82 183.449 45.954H179.501C179.669 44.75 180.397 44.064 181.545 44.064ZM187.551 50V46.374C187.551 45.044 188.265 44.162 189.497 44.162C190.505 44.162 191.149 44.722 191.149 46.108V50H192.465V45.814C192.465 44.064 191.639 42.958 189.833 42.958C188.867 42.958 187.999 43.42 187.565 44.204L187.425 43.154H186.235V50H187.551ZM193.84 46.584C193.84 48.74 195.17 50.168 197.186 50.168C198.838 50.168 200.112 49.174 200.378 47.69H199.062C198.824 48.502 198.124 48.992 197.186 48.992C195.94 48.992 195.142 48.04 195.142 46.57C195.142 45.086 195.996 44.134 197.242 44.134C198.124 44.134 198.824 44.596 199.048 45.464H200.364C200.126 43.938 198.922 42.958 197.2 42.958C195.198 42.958 193.84 44.442 193.84 46.584ZM204.72 50.168C206.414 50.168 207.562 49.342 207.898 47.872H206.666C206.442 48.656 205.77 49.076 204.748 49.076C203.446 49.076 202.69 48.278 202.592 46.836L207.884 46.822V46.332C207.884 44.302 206.61 42.958 204.664 42.958C202.676 42.958 201.318 44.442 201.318 46.584C201.318 48.712 202.704 50.168 204.72 50.168ZM204.664 44.064C205.826 44.064 206.568 44.82 206.568 45.954H202.62C202.788 44.75 203.516 44.064 204.664 44.064ZM215.926 50.168C217.018 50.168 217.942 49.692 218.39 48.754L218.502 50H219.678V39.696H218.376V44.26C217.914 43.42 217.032 42.958 215.982 42.958C213.952 42.958 212.734 44.498 212.734 46.598C212.734 48.684 213.938 50.168 215.926 50.168ZM216.192 48.978C214.848 48.978 214.064 47.97 214.064 46.556C214.064 45.156 214.848 44.148 216.192 44.148C217.536 44.148 218.362 45.156 218.362 46.556C218.362 47.984 217.536 48.978 216.192 48.978ZM222.221 41.53C222.697 41.53 223.089 41.138 223.089 40.662C223.089 40.172 222.697 39.794 222.221 39.794C221.745 39.794 221.353 40.172 221.353 40.662C221.353 41.138 221.745 41.53 222.221 41.53ZM221.577 50H222.893V43.154H221.577V50ZM226.12 50V46.374C226.12 45.044 226.834 44.162 228.066 44.162C229.074 44.162 229.718 44.722 229.718 46.108V50H231.034V45.814C231.034 44.064 230.208 42.958 228.402 42.958C227.436 42.958 226.568 43.42 226.134 44.204L225.994 43.154H224.804V50H226.12ZM233.5 41.53C233.976 41.53 234.368 41.138 234.368 40.662C234.368 40.172 233.976 39.794 233.5 39.794C233.024 39.794 232.632 40.172 232.632 40.662C232.632 41.138 233.024 41.53 233.5 41.53ZM232.856 50H234.172V43.154H232.856V50ZM237.399 50V46.374C237.399 45.044 238.113 44.162 239.345 44.162C240.353 44.162 240.997 44.722 240.997 46.108V50H242.313V45.814C242.313 44.064 241.487 42.958 239.681 42.958C238.715 42.958 237.847 43.42 237.413 44.204L237.273 43.154H236.083V50H237.399ZM243.702 46.402C243.702 48.32 244.934 49.818 246.88 49.818C247.958 49.818 248.854 49.342 249.302 48.544V49.916C249.302 51.218 248.462 52.058 247.174 52.058C246.026 52.058 245.27 51.47 245.102 50.462H243.786C244.038 52.198 245.312 53.248 247.174 53.248C249.274 53.248 250.604 51.876 250.604 49.72V43.154H249.428L249.33 44.316C248.896 43.462 248.042 42.958 246.936 42.958C244.948 42.958 243.702 44.47 243.702 46.402ZM245.018 46.374C245.018 45.114 245.802 44.106 247.118 44.106C248.462 44.106 249.246 45.058 249.246 46.374C249.246 47.718 248.434 48.67 247.104 48.67C245.816 48.67 245.018 47.662 245.018 46.374ZM258.333 50.168C259.439 50.168 260.377 49.678 260.727 48.894L260.867 50H261.987V45.702C261.987 43.854 260.839 42.958 259.145 42.958C257.381 42.958 256.205 43.896 256.205 45.324H257.353C257.353 44.498 257.983 44.008 259.089 44.008C260.013 44.008 260.699 44.414 260.699 45.562V45.758L258.543 45.926C256.933 46.052 255.995 46.836 255.995 48.096C255.995 49.342 256.863 50.168 258.333 50.168ZM258.711 49.146C257.857 49.146 257.325 48.782 257.325 48.054C257.325 47.382 257.801 46.934 258.963 46.822L260.713 46.682V47.046C260.713 48.334 259.957 49.146 258.711 49.146ZM265.632 50V44.26H266.976V43.154H265.632V41.012H264.316V43.154H262.972V44.26H264.316V50H265.632ZM273.917 50V44.26H275.261V43.154H273.917V41.012H272.601V43.154H271.257V44.26H272.601V50H273.917ZM277.758 49.986V46.262C277.758 45.086 278.444 44.162 279.718 44.162C280.698 44.162 281.356 44.722 281.356 46.108V50H282.672V45.814C282.672 44.064 281.832 42.958 280.082 42.958C279.018 42.958 278.192 43.462 277.758 44.204V39.696H276.442V49.986H277.758ZM285.139 41.53C285.615 41.53 286.007 41.138 286.007 40.662C286.007 40.172 285.615 39.794 285.139 39.794C284.663 39.794 284.271 40.172 284.271 40.662C284.271 41.138 284.663 41.53 285.139 41.53ZM284.495 50H285.811V43.154H284.495V50ZM287.161 48.012C287.161 49.314 288.183 50.168 289.793 50.168C291.417 50.168 292.537 49.342 292.537 48.04C292.537 47.018 291.963 46.486 290.801 46.206L289.597 45.912C288.925 45.744 288.589 45.436 288.589 44.974C288.589 44.344 289.051 43.98 289.877 43.98C290.675 43.98 291.137 44.414 291.165 45.1H292.425C292.397 43.798 291.417 42.958 289.919 42.958C288.407 42.958 287.343 43.756 287.343 45.016C287.343 46.024 287.917 46.626 289.135 46.92L290.339 47.2C291.053 47.382 291.277 47.662 291.277 48.124C291.277 48.754 290.745 49.132 289.821 49.132C288.953 49.132 288.421 48.712 288.421 48.012H287.161ZM297.097 43.154V44.26H298.105V50H299.421V44.26H301.045V43.154H299.421V42.062C299.421 41.32 299.645 40.886 300.499 40.886H301.087V39.752C300.821 39.71 300.527 39.696 300.275 39.696C299.029 39.696 298.105 40.382 298.105 42.062V43.154H297.097ZM304.052 50.168C305.158 50.168 306.096 49.678 306.446 48.894L306.586 50H307.706V45.702C307.706 43.854 306.558 42.958 304.864 42.958C303.1 42.958 301.924 43.896 301.924 45.324H303.072C303.072 44.498 303.702 44.008 304.808 44.008C305.732 44.008 306.418 44.414 306.418 45.562V45.758L304.262 45.926C302.652 46.052 301.714 46.836 301.714 48.096C301.714 49.342 302.582 50.168 304.052 50.168ZM304.43 49.146C303.576 49.146 303.044 48.782 303.044 48.054C303.044 47.382 303.52 46.934 304.682 46.822L306.432 46.682V47.046C306.432 48.334 305.676 49.146 304.43 49.146ZM310.844 50V46.374C310.844 45.044 311.558 44.162 312.79 44.162C313.798 44.162 314.442 44.722 314.442 46.108V50H315.758V45.814C315.758 44.064 314.932 42.958 313.126 42.958C312.16 42.958 311.292 43.42 310.858 44.204L310.718 43.154H309.528V50H310.844ZM317.133 46.584C317.133 48.74 318.463 50.168 320.479 50.168C322.131 50.168 323.405 49.174 323.671 47.69H322.355C322.117 48.502 321.417 48.992 320.479 48.992C319.233 48.992 318.435 48.04 318.435 46.57C318.435 45.086 319.289 44.134 320.535 44.134C321.417 44.134 322.117 44.596 322.341 45.464H323.657C323.419 43.938 322.215 42.958 320.493 42.958C318.491 42.958 317.133 44.442 317.133 46.584ZM324.265 53.066C324.615 53.15 324.979 53.206 325.413 53.206C326.463 53.206 327.149 52.716 327.611 51.54L330.845 43.154H329.487L327.457 48.67L325.469 43.154H324.083L326.841 50.364L326.603 51.022C326.281 51.89 325.777 51.988 325.147 51.988H324.265V53.066ZM50.2799 67.186C50.2799 68.936 51.3439 70.168 53.2759 70.168C55.0819 70.168 56.2999 69.02 56.2999 67.2V59.878H54.9279V67.144C54.9279 68.194 54.4239 68.894 53.2759 68.894C52.1559 68.894 51.6099 68.18 51.6099 67.186V66.682H50.2799V67.186ZM60.3641 70.168C61.4701 70.168 62.4081 69.678 62.7581 68.894L62.8981 70H64.0181V65.702C64.0181 63.854 62.8701 62.958 61.1761 62.958C59.4121 62.958 58.2361 63.896 58.2361 65.324H59.3841C59.3841 64.498 60.0141 64.008 61.1201 64.008C62.0441 64.008 62.7301 64.414 62.7301 65.562V65.758L60.5741 65.926C58.9641 66.052 58.0261 66.836 58.0261 68.096C58.0261 69.342 58.8941 70.168 60.3641 70.168ZM60.7421 69.146C59.8881 69.146 59.3561 68.782 59.3561 68.054C59.3561 67.382 59.8321 66.934 60.9941 66.822L62.7441 66.682V67.046C62.7441 68.334 61.9881 69.146 60.7421 69.146ZM65.8406 73.066H67.1566V68.88C67.6046 69.72 68.5146 70.182 69.6066 70.182C71.6366 70.182 72.7846 68.614 72.7846 66.528C72.7846 64.428 71.5666 62.958 69.6066 62.958C68.5146 62.958 67.5906 63.448 67.1286 64.386L67.0306 63.154H65.8406V73.066ZM67.1706 66.584C67.1706 65.156 67.9826 64.162 69.3266 64.162C70.6706 64.162 71.4686 65.17 71.4686 66.584C71.4686 67.984 70.6706 68.992 69.3266 68.992C67.9826 68.992 67.1706 67.984 67.1706 66.584ZM76.2371 70.168C77.3431 70.168 78.2811 69.678 78.6311 68.894L78.7711 70H79.8911V65.702C79.8911 63.854 78.7431 62.958 77.0491 62.958C75.2851 62.958 74.1091 63.896 74.1091 65.324H75.2571C75.2571 64.498 75.8871 64.008 76.9931 64.008C77.9171 64.008 78.6031 64.414 78.6031 65.562V65.758L76.4471 65.926C74.8371 66.052 73.8991 66.836 73.8991 68.096C73.8991 69.342 74.7671 70.168 76.2371 70.168ZM76.6151 69.146C75.7611 69.146 75.2291 68.782 75.2291 68.054C75.2291 67.382 75.7051 66.934 76.8671 66.822L78.6171 66.682V67.046C78.6171 68.334 77.8611 69.146 76.6151 69.146ZM83.0297 70V66.374C83.0297 65.044 83.7437 64.162 84.9757 64.162C85.9837 64.162 86.6277 64.722 86.6277 66.108V70H87.9437V65.814C87.9437 64.064 87.1177 62.958 85.3117 62.958C84.3457 62.958 83.4777 63.42 83.0437 64.204L82.9037 63.154H81.7137V70H83.0297ZM92.7204 70.168C94.4144 70.168 95.5624 69.342 95.8984 67.872H94.6664C94.4424 68.656 93.7704 69.076 92.7484 69.076C91.4464 69.076 90.6904 68.278 90.5924 66.836L95.8844 66.822V66.332C95.8844 64.302 94.6104 62.958 92.6644 62.958C90.6764 62.958 89.3184 64.442 89.3184 66.584C89.3184 68.712 90.7044 70.168 92.7204 70.168ZM92.6644 64.064C93.8264 64.064 94.5684 64.82 94.5684 65.954H90.6204C90.7884 64.75 91.5164 64.064 92.6644 64.064ZM96.7943 68.012C96.7943 69.314 97.8163 70.168 99.4263 70.168C101.05 70.168 102.17 69.342 102.17 68.04C102.17 67.018 101.596 66.486 100.434 66.206L99.2303 65.912C98.5583 65.744 98.2223 65.436 98.2223 64.974C98.2223 64.344 98.6843 63.98 99.5103 63.98C100.308 63.98 100.77 64.414 100.798 65.1H102.058C102.03 63.798 101.05 62.958 99.5523 62.958C98.0403 62.958 96.9763 63.756 96.9763 65.016C96.9763 66.024 97.5503 66.626 98.7683 66.92L99.9723 67.2C100.686 67.382 100.91 67.662 100.91 68.124C100.91 68.754 100.378 69.132 99.4543 69.132C98.5863 69.132 98.0543 68.712 98.0543 68.012H96.7943ZM106.584 70.168C108.278 70.168 109.426 69.342 109.762 67.872H108.53C108.306 68.656 107.634 69.076 106.612 69.076C105.31 69.076 104.554 68.278 104.456 66.836L109.748 66.822V66.332C109.748 64.302 108.474 62.958 106.528 62.958C104.54 62.958 103.182 64.442 103.182 66.584C103.182 68.712 104.568 70.168 106.584 70.168ZM106.528 64.064C107.69 64.064 108.432 64.82 108.432 65.954H104.484C104.652 64.75 105.38 64.064 106.528 64.064ZM118.966 63.098C118.7 63.042 118.504 63.014 118.266 63.014C117.328 63.014 116.642 63.49 116.362 64.204L116.278 63.168H115.046V70H116.362V66.374C116.362 65.058 117.132 64.302 118.378 64.302H118.966V63.098ZM122.908 70.168C124.602 70.168 125.75 69.342 126.086 67.872H124.854C124.63 68.656 123.958 69.076 122.936 69.076C121.634 69.076 120.878 68.278 120.78 66.836L126.072 66.822V66.332C126.072 64.302 124.798 62.958 122.852 62.958C120.864 62.958 119.506 64.442 119.506 66.584C119.506 68.712 120.892 70.168 122.908 70.168ZM122.852 64.064C124.014 64.064 124.756 64.82 124.756 65.954H120.808C120.976 64.75 121.704 64.064 122.852 64.064ZM126.982 68.012C126.982 69.314 128.004 70.168 129.614 70.168C131.238 70.168 132.358 69.342 132.358 68.04C132.358 67.018 131.784 66.486 130.622 66.206L129.418 65.912C128.746 65.744 128.41 65.436 128.41 64.974C128.41 64.344 128.872 63.98 129.698 63.98C130.496 63.98 130.958 64.414 130.986 65.1H132.246C132.218 63.798 131.238 62.958 129.74 62.958C128.228 62.958 127.164 63.756 127.164 65.016C127.164 66.024 127.738 66.626 128.956 66.92L130.16 67.2C130.874 67.382 131.098 67.662 131.098 68.124C131.098 68.754 130.566 69.132 129.642 69.132C128.774 69.132 128.242 68.712 128.242 68.012H126.982ZM135.749 70V64.26H137.093V63.154H135.749V61.012H134.433V63.154H133.089V64.26H134.433V70H135.749ZM140.194 70.168C141.3 70.168 142.238 69.678 142.588 68.894L142.728 70H143.848V65.702C143.848 63.854 142.7 62.958 141.006 62.958C139.242 62.958 138.066 63.896 138.066 65.324H139.214C139.214 64.498 139.844 64.008 140.95 64.008C141.874 64.008 142.56 64.414 142.56 65.562V65.758L140.404 65.926C138.794 66.052 137.856 66.836 137.856 68.096C137.856 69.342 138.724 70.168 140.194 70.168ZM140.572 69.146C139.718 69.146 139.186 68.782 139.186 68.054C139.186 67.382 139.662 66.934 140.824 66.822L142.574 66.682V67.046C142.574 68.334 141.818 69.146 140.572 69.146ZM150.403 63.154V66.766C150.403 68.236 149.745 69.006 148.541 69.006C147.533 69.006 146.903 68.446 146.903 66.976V63.154H145.587V67.41C145.587 69.09 146.483 70.168 148.079 70.168C149.087 70.168 149.997 69.678 150.389 68.964L150.529 70H151.705V63.154H150.403ZM157.534 63.098C157.268 63.042 157.072 63.014 156.834 63.014C155.896 63.014 155.21 63.49 154.93 64.204L154.846 63.168H153.614V70H154.93V66.374C154.93 65.058 155.7 64.302 156.946 64.302H157.534V63.098ZM160.497 70.168C161.603 70.168 162.541 69.678 162.891 68.894L163.031 70H164.151V65.702C164.151 63.854 163.003 62.958 161.309 62.958C159.545 62.958 158.369 63.896 158.369 65.324H159.517C159.517 64.498 160.147 64.008 161.253 64.008C162.177 64.008 162.863 64.414 162.863 65.562V65.758L160.707 65.926C159.097 66.052 158.159 66.836 158.159 68.096C158.159 69.342 159.027 70.168 160.497 70.168ZM160.875 69.146C160.021 69.146 159.489 68.782 159.489 68.054C159.489 67.382 159.965 66.934 161.127 66.822L162.877 66.682V67.046C162.877 68.334 162.121 69.146 160.875 69.146ZM167.289 70V66.374C167.289 65.044 168.003 64.162 169.235 64.162C170.243 64.162 170.887 64.722 170.887 66.108V70H172.203V65.814C172.203 64.064 171.377 62.958 169.571 62.958C168.605 62.958 167.737 63.42 167.303 64.204L167.163 63.154H165.973V70H167.289ZM175.958 70V64.26H177.302V63.154H175.958V61.012H174.642V63.154H173.298V64.26H174.642V70H175.958ZM179.039 70.168C179.571 70.168 180.033 69.72 180.033 69.188C180.033 68.642 179.571 68.194 179.039 68.194C178.493 68.194 178.031 68.642 178.031 69.188C178.031 69.72 178.493 70.168 179.039 70.168ZM185.001 61.138H188.053V70H189.425V61.138H192.463V59.878H185.001V61.138ZM194.934 69.986V66.262C194.934 65.086 195.62 64.162 196.894 64.162C197.874 64.162 198.532 64.722 198.532 66.108V70H199.848V65.814C199.848 64.064 199.008 62.958 197.258 62.958C196.194 62.958 195.368 63.462 194.934 64.204V59.696H193.618V69.986H194.934ZM204.625 70.168C206.319 70.168 207.467 69.342 207.803 67.872H206.571C206.347 68.656 205.675 69.076 204.653 69.076C203.351 69.076 202.595 68.278 202.497 66.836L207.789 66.822V66.332C207.789 64.302 206.515 62.958 204.569 62.958C202.581 62.958 201.223 64.442 201.223 66.584C201.223 68.712 202.609 70.168 204.625 70.168ZM204.569 64.064C205.731 64.064 206.473 64.82 206.473 65.954H202.525C202.693 64.75 203.421 64.064 204.569 64.064ZM214.403 70V65.94C214.403 64.848 215.061 64.162 216.055 64.162C216.979 64.162 217.567 64.75 217.567 65.828V70H218.869V65.94C218.869 64.848 219.527 64.148 220.521 64.148C221.445 64.148 222.047 64.764 222.047 65.842V70H223.335V65.52C223.335 63.938 222.383 62.958 220.815 62.958C219.751 62.958 218.925 63.49 218.603 64.344C218.253 63.49 217.497 62.958 216.433 62.958C215.467 62.958 214.739 63.406 214.389 64.05L214.263 63.154H213.087V70H214.403ZM228.113 70.168C229.807 70.168 230.955 69.342 231.291 67.872H230.059C229.835 68.656 229.163 69.076 228.141 69.076C226.839 69.076 226.083 68.278 225.985 66.836L231.277 66.822V66.332C231.277 64.302 230.003 62.958 228.057 62.958C226.069 62.958 224.711 64.442 224.711 66.584C224.711 68.712 226.097 70.168 228.113 70.168ZM228.057 64.064C229.219 64.064 229.961 64.82 229.961 65.954H226.013C226.181 64.75 226.909 64.064 228.057 64.064ZM234.063 70V66.374C234.063 65.044 234.777 64.162 236.009 64.162C237.017 64.162 237.661 64.722 237.661 66.108V70H238.977V65.814C238.977 64.064 238.151 62.958 236.345 62.958C235.379 62.958 234.511 63.42 234.077 64.204L233.937 63.154H232.747V70H234.063ZM245.532 63.154V66.766C245.532 68.236 244.874 69.006 243.67 69.006C242.662 69.006 242.032 68.446 242.032 66.976V63.154H240.716V67.41C240.716 69.09 241.612 70.168 243.208 70.168C244.216 70.168 245.126 69.678 245.518 68.964L245.658 70H246.834V63.154H245.532ZM254.041 70H255.343L256.533 66.346C256.785 65.52 256.911 65.072 256.981 64.736C257.051 65.114 257.191 65.646 257.415 66.332L258.605 70H259.851L262.189 63.154H260.817L259.669 66.71C259.473 67.312 259.347 67.788 259.235 68.334C259.123 67.844 258.899 67.046 258.787 66.71L257.653 63.154H256.309L255.161 66.71C255.007 67.158 254.825 67.732 254.713 68.334C254.587 67.732 254.447 67.214 254.293 66.71L253.159 63.154H251.801L254.041 70ZM265.005 70.168C266.111 70.168 267.049 69.678 267.399 68.894L267.539 70H268.659V65.702C268.659 63.854 267.511 62.958 265.817 62.958C264.053 62.958 262.877 63.896 262.877 65.324H264.025C264.025 64.498 264.655 64.008 265.761 64.008C266.685 64.008 267.371 64.414 267.371 65.562V65.758L265.215 65.926C263.605 66.052 262.667 66.836 262.667 68.096C262.667 69.342 263.535 70.168 265.005 70.168ZM265.383 69.146C264.529 69.146 263.997 68.782 263.997 68.054C263.997 67.382 264.473 66.934 265.635 66.822L267.385 66.682V67.046C267.385 68.334 266.629 69.146 265.383 69.146ZM269.921 68.012C269.921 69.314 270.943 70.168 272.553 70.168C274.177 70.168 275.297 69.342 275.297 68.04C275.297 67.018 274.723 66.486 273.561 66.206L272.357 65.912C271.685 65.744 271.349 65.436 271.349 64.974C271.349 64.344 271.811 63.98 272.637 63.98C273.435 63.98 273.897 64.414 273.925 65.1H275.185C275.157 63.798 274.177 62.958 272.679 62.958C271.167 62.958 270.103 63.756 270.103 65.016C270.103 66.024 270.677 66.626 271.895 66.92L273.099 67.2C273.813 67.382 274.037 67.662 274.037 68.124C274.037 68.754 273.505 69.132 272.581 69.132C271.713 69.132 271.181 68.712 271.181 68.012H269.921ZM283.329 70.168C284.421 70.168 285.345 69.692 285.793 68.754L285.905 70H287.081V59.696H285.779V64.26C285.317 63.42 284.435 62.958 283.385 62.958C281.355 62.958 280.137 64.498 280.137 66.598C280.137 68.684 281.341 70.168 283.329 70.168ZM283.595 68.978C282.251 68.978 281.467 67.97 281.467 66.556C281.467 65.156 282.251 64.148 283.595 64.148C284.939 64.148 285.765 65.156 285.765 66.556C285.765 67.984 284.939 68.978 283.595 68.978ZM289.623 61.53C290.099 61.53 290.491 61.138 290.491 60.662C290.491 60.172 290.099 59.794 289.623 59.794C289.147 59.794 288.755 60.172 288.755 60.662C288.755 61.138 289.147 61.53 289.623 61.53ZM288.979 70H290.295V63.154H288.979V70ZM294.124 70H295.426L298.282 63.154H296.91L295.384 66.976C295.146 67.578 294.922 68.166 294.81 68.614C294.698 68.194 294.502 67.62 294.264 66.976L292.766 63.154H291.366L294.124 70ZM301.968 70.168C303.662 70.168 304.81 69.342 305.146 67.872H303.914C303.69 68.656 303.018 69.076 301.996 69.076C300.694 69.076 299.938 68.278 299.84 66.836L305.132 66.822V66.332C305.132 64.302 303.858 62.958 301.912 62.958C299.924 62.958 298.566 64.442 298.566 66.584C298.566 68.712 299.952 70.168 301.968 70.168ZM301.912 64.064C303.074 64.064 303.816 64.82 303.816 65.954H299.868C300.036 64.75 300.764 64.064 301.912 64.064ZM310.522 63.098C310.256 63.042 310.06 63.014 309.822 63.014C308.884 63.014 308.198 63.49 307.918 64.204L307.834 63.168H306.602V70H307.918V66.374C307.918 65.058 308.688 64.302 309.934 64.302H310.522V63.098ZM311.197 68.012C311.197 69.314 312.219 70.168 313.829 70.168C315.453 70.168 316.573 69.342 316.573 68.04C316.573 67.018 315.999 66.486 314.837 66.206L313.633 65.912C312.961 65.744 312.625 65.436 312.625 64.974C312.625 64.344 313.087 63.98 313.913 63.98C314.711 63.98 315.173 64.414 315.201 65.1H316.461C316.433 63.798 315.453 62.958 313.955 62.958C312.443 62.958 311.379 63.756 311.379 65.016C311.379 66.024 311.953 66.626 313.171 66.92L314.375 67.2C315.089 67.382 315.313 67.662 315.313 68.124C315.313 68.754 314.781 69.132 313.857 69.132C312.989 69.132 312.457 68.712 312.457 68.012H311.197ZM320.986 70.168C322.68 70.168 323.828 69.342 324.164 67.872H322.932C322.708 68.656 322.036 69.076 321.014 69.076C319.712 69.076 318.956 68.278 318.858 66.836L324.15 66.822V66.332C324.15 64.302 322.876 62.958 320.93 62.958C318.942 62.958 317.584 64.442 317.584 66.584C317.584 68.712 318.97 70.168 320.986 70.168ZM320.93 64.064C322.092 64.064 322.834 64.82 322.834 65.954H318.886C319.054 64.75 319.782 64.064 320.93 64.064ZM331.45 70.168C332.556 70.168 333.494 69.678 333.844 68.894L333.984 70H335.104V65.702C335.104 63.854 333.956 62.958 332.262 62.958C330.498 62.958 329.322 63.896 329.322 65.324H330.47C330.47 64.498 331.1 64.008 332.206 64.008C333.13 64.008 333.816 64.414 333.816 65.562V65.758L331.66 65.926C330.05 66.052 329.112 66.836 329.112 68.096C329.112 69.342 329.98 70.168 331.45 70.168ZM331.828 69.146C330.974 69.146 330.442 68.782 330.442 68.054C330.442 67.382 330.918 66.934 332.08 66.822L333.83 66.682V67.046C333.83 68.334 333.074 69.146 331.828 69.146ZM338.243 70V66.374C338.243 65.044 338.957 64.162 340.189 64.162C341.197 64.162 341.841 64.722 341.841 66.108V70H343.157V65.814C343.157 64.064 342.331 62.958 340.525 62.958C339.559 62.958 338.691 63.42 338.257 64.204L338.117 63.154H336.927V70H338.243ZM347.723 70.168C348.815 70.168 349.739 69.692 350.187 68.754L350.299 70H351.475V59.696H350.173V64.26C349.711 63.42 348.829 62.958 347.779 62.958C345.749 62.958 344.531 64.498 344.531 66.598C344.531 68.684 345.735 70.168 347.723 70.168ZM347.989 68.978C346.645 68.978 345.861 67.97 345.861 66.556C345.861 65.156 346.645 64.148 347.989 64.148C349.333 64.148 350.159 65.156 350.159 66.556C350.159 67.984 349.333 68.978 347.989 68.978ZM358.518 69.986V66.262C358.518 65.086 359.204 64.162 360.478 64.162C361.458 64.162 362.116 64.722 362.116 66.108V70H363.432V65.814C363.432 64.064 362.592 62.958 360.842 62.958C359.778 62.958 358.952 63.462 358.518 64.204V59.696H357.202V69.986H358.518ZM367.257 70.168C368.363 70.168 369.301 69.678 369.651 68.894L369.791 70H370.911V65.702C370.911 63.854 369.763 62.958 368.069 62.958C366.305 62.958 365.129 63.896 365.129 65.324H366.277C366.277 64.498 366.907 64.008 368.013 64.008C368.937 64.008 369.623 64.414 369.623 65.562V65.758L367.467 65.926C365.857 66.052 364.919 66.836 364.919 68.096C364.919 69.342 365.787 70.168 367.257 70.168ZM367.635 69.146C366.781 69.146 366.249 68.782 366.249 68.054C366.249 67.382 366.725 66.934 367.887 66.822L369.637 66.682V67.046C369.637 68.334 368.881 69.146 367.635 69.146ZM375.477 70.168C376.569 70.168 377.493 69.692 377.941 68.754L378.053 70H379.229V59.696H377.927V64.26C377.465 63.42 376.583 62.958 375.533 62.958C373.503 62.958 372.285 64.498 372.285 66.598C372.285 68.684 373.489 70.168 375.477 70.168ZM375.743 68.978C374.399 68.978 373.615 67.97 373.615 66.556C373.615 65.156 374.399 64.148 375.743 64.148C377.087 64.148 377.913 65.156 377.913 66.556C377.913 67.984 377.087 68.978 375.743 68.978ZM52.9539 90.168C54.0599 90.168 54.9979 89.678 55.3479 88.894L55.4879 90H56.6079V85.702C56.6079 83.854 55.4599 82.958 53.7659 82.958C52.0019 82.958 50.8259 83.896 50.8259 85.324H51.9739C51.9739 84.498 52.6039 84.008 53.7099 84.008C54.6339 84.008 55.3199 84.414 55.3199 85.562V85.758L53.1639 85.926C51.5539 86.052 50.6159 86.836 50.6159 88.096C50.6159 89.342 51.4839 90.168 52.9539 90.168ZM53.3319 89.146C52.4779 89.146 51.9459 88.782 51.9459 88.054C51.9459 87.382 52.4219 86.934 53.5839 86.822L55.3339 86.682V87.046C55.3339 88.334 54.5779 89.146 53.3319 89.146ZM61.8246 86.402C61.8246 88.32 63.0566 89.818 65.0026 89.818C66.0806 89.818 66.9766 89.342 67.4246 88.544V89.916C67.4246 91.218 66.5846 92.058 65.2966 92.058C64.1486 92.058 63.3926 91.47 63.2246 90.462H61.9086C62.1606 92.198 63.4346 93.248 65.2966 93.248C67.3966 93.248 68.7266 91.876 68.7266 89.72V83.154H67.5506L67.4526 84.316C67.0186 83.462 66.1646 82.958 65.0586 82.958C63.0706 82.958 61.8246 84.47 61.8246 86.402ZM63.1406 86.374C63.1406 85.114 63.9246 84.106 65.2406 84.106C66.5846 84.106 67.3686 85.058 67.3686 86.374C67.3686 87.718 66.5566 88.67 65.2266 88.67C63.9386 88.67 63.1406 87.662 63.1406 86.374ZM70.1778 86.57C70.1778 88.684 71.6898 90.168 73.7478 90.168C75.7918 90.168 77.3038 88.684 77.3038 86.57C77.3038 84.456 75.7918 82.972 73.7478 82.972C71.6898 82.972 70.1778 84.456 70.1778 86.57ZM71.5078 86.57C71.5078 85.142 72.4178 84.148 73.7478 84.148C75.0638 84.148 75.9878 85.142 75.9878 86.57C75.9878 87.998 75.0638 88.992 73.7478 88.992C72.4178 88.992 71.5078 87.998 71.5078 86.57ZM78.3125 86.57C78.3125 88.684 79.8245 90.168 81.8825 90.168C83.9265 90.168 85.4385 88.684 85.4385 86.57C85.4385 84.456 83.9265 82.972 81.8825 82.972C79.8245 82.972 78.3125 84.456 78.3125 86.57ZM79.6425 86.57C79.6425 85.142 80.5525 84.148 81.8825 84.148C83.1985 84.148 84.1225 85.142 84.1225 86.57C84.1225 87.998 83.1985 88.992 81.8825 88.992C80.5525 88.992 79.6425 87.998 79.6425 86.57ZM89.6393 90.168C90.7313 90.168 91.6553 89.692 92.1033 88.754L92.2153 90H93.3913V79.696H92.0893V84.26C91.6273 83.42 90.7453 82.958 89.6953 82.958C87.6653 82.958 86.4473 84.498 86.4473 86.598C86.4473 88.684 87.6513 90.168 89.6393 90.168ZM89.9053 88.978C88.5613 88.978 87.7773 87.97 87.7773 86.556C87.7773 85.156 88.5613 84.148 89.9053 84.148C91.2493 84.148 92.0753 85.156 92.0753 86.556C92.0753 87.984 91.2493 88.978 89.9053 88.978ZM101.036 90H102.338L105.194 83.154H103.822L102.296 86.976C102.058 87.578 101.834 88.166 101.722 88.614C101.61 88.194 101.414 87.62 101.176 86.976L99.678 83.154H98.278L101.036 90ZM107.929 90.168C109.035 90.168 109.973 89.678 110.323 88.894L110.463 90H111.583V85.702C111.583 83.854 110.435 82.958 108.741 82.958C106.977 82.958 105.801 83.896 105.801 85.324H106.949C106.949 84.498 107.579 84.008 108.685 84.008C109.609 84.008 110.295 84.414 110.295 85.562V85.758L108.139 85.926C106.529 86.052 105.591 86.836 105.591 88.096C105.591 89.342 106.459 90.168 107.929 90.168ZM108.307 89.146C107.453 89.146 106.921 88.782 106.921 88.054C106.921 87.382 107.397 86.934 108.559 86.822L110.309 86.682V87.046C110.309 88.334 109.553 89.146 108.307 89.146ZM117.325 83.098C117.059 83.042 116.863 83.014 116.625 83.014C115.687 83.014 115.001 83.49 114.721 84.204L114.637 83.168H113.405V90H114.721V86.374C114.721 85.058 115.491 84.302 116.737 84.302H117.325V83.098ZM119.203 81.53C119.679 81.53 120.071 81.138 120.071 80.662C120.071 80.172 119.679 79.794 119.203 79.794C118.727 79.794 118.335 80.172 118.335 80.662C118.335 81.138 118.727 81.53 119.203 81.53ZM118.559 90H119.875V83.154H118.559V90ZM124.74 90.168C126.434 90.168 127.582 89.342 127.918 87.872H126.686C126.462 88.656 125.79 89.076 124.768 89.076C123.466 89.076 122.71 88.278 122.612 86.836L127.904 86.822V86.332C127.904 84.302 126.63 82.958 124.684 82.958C122.696 82.958 121.338 84.442 121.338 86.584C121.338 88.712 122.724 90.168 124.74 90.168ZM124.684 84.064C125.846 84.064 126.588 84.82 126.588 85.954H122.64C122.808 84.75 123.536 84.064 124.684 84.064ZM131.237 90V84.26H132.581V83.154H131.237V81.012H129.921V83.154H128.577V84.26H129.921V90H131.237ZM133.104 93.066C133.454 93.15 133.818 93.206 134.252 93.206C135.302 93.206 135.988 92.716 136.45 91.54L139.684 83.154H138.326L136.296 88.67L134.308 83.154H132.922L135.68 90.364L135.442 91.022C135.12 91.89 134.616 91.988 133.986 91.988H133.104V93.066ZM144.115 86.57C144.115 88.684 145.627 90.168 147.685 90.168C149.729 90.168 151.241 88.684 151.241 86.57C151.241 84.456 149.729 82.972 147.685 82.972C145.627 82.972 144.115 84.456 144.115 86.57ZM145.445 86.57C145.445 85.142 146.355 84.148 147.685 84.148C149.001 84.148 149.925 85.142 149.925 86.57C149.925 87.998 149.001 88.992 147.685 88.992C146.355 88.992 145.445 87.998 145.445 86.57ZM151.929 83.154V84.26H152.937V90H154.253V84.26H155.877V83.154H154.253V82.062C154.253 81.32 154.477 80.886 155.331 80.886H155.919V79.752C155.653 79.71 155.359 79.696 155.107 79.696C153.861 79.696 152.937 80.382 152.937 82.062V83.154H151.929ZM160.369 88.012C160.369 89.314 161.391 90.168 163.001 90.168C164.625 90.168 165.745 89.342 165.745 88.04C165.745 87.018 165.171 86.486 164.009 86.206L162.805 85.912C162.133 85.744 161.797 85.436 161.797 84.974C161.797 84.344 162.259 83.98 163.085 83.98C163.883 83.98 164.345 84.414 164.373 85.1H165.633C165.605 83.798 164.625 82.958 163.127 82.958C161.615 82.958 160.551 83.756 160.551 85.016C160.551 86.024 161.125 86.626 162.343 86.92L163.547 87.2C164.261 87.382 164.485 87.662 164.485 88.124C164.485 88.754 163.953 89.132 163.029 89.132C162.161 89.132 161.629 88.712 161.629 88.012H160.369ZM170.158 90.168C171.852 90.168 173 89.342 173.336 87.872H172.104C171.88 88.656 171.208 89.076 170.186 89.076C168.884 89.076 168.128 88.278 168.03 86.836L173.322 86.822V86.332C173.322 84.302 172.048 82.958 170.102 82.958C168.114 82.958 166.756 84.442 166.756 86.584C166.756 88.712 168.142 90.168 170.158 90.168ZM170.102 84.064C171.264 84.064 172.006 84.82 172.006 85.954H168.058C168.226 84.75 168.954 84.064 170.102 84.064ZM176.725 90.168C177.831 90.168 178.769 89.678 179.119 88.894L179.259 90H180.379V85.702C180.379 83.854 179.231 82.958 177.537 82.958C175.773 82.958 174.597 83.896 174.597 85.324H175.745C175.745 84.498 176.375 84.008 177.481 84.008C178.405 84.008 179.091 84.414 179.091 85.562V85.758L176.935 85.926C175.325 86.052 174.387 86.836 174.387 88.096C174.387 89.342 175.255 90.168 176.725 90.168ZM177.103 89.146C176.249 89.146 175.717 88.782 175.717 88.054C175.717 87.382 176.193 86.934 177.355 86.822L179.105 86.682V87.046C179.105 88.334 178.349 89.146 177.103 89.146ZM181.433 83.154V84.26H182.441V90H183.757V84.26H185.381V83.154H183.757V82.062C183.757 81.32 183.981 80.886 184.835 80.886H185.423V79.752C185.157 79.71 184.863 79.696 184.611 79.696C183.365 79.696 182.441 80.382 182.441 82.062V83.154H181.433ZM185.951 86.57C185.951 88.684 187.463 90.168 189.521 90.168C191.565 90.168 193.077 88.684 193.077 86.57C193.077 84.456 191.565 82.972 189.521 82.972C187.463 82.972 185.951 84.456 185.951 86.57ZM187.281 86.57C187.281 85.142 188.191 84.148 189.521 84.148C190.837 84.148 191.761 85.142 191.761 86.57C191.761 87.998 190.837 88.992 189.521 88.992C188.191 88.992 187.281 87.998 187.281 86.57ZM194.086 86.57C194.086 88.684 195.598 90.168 197.656 90.168C199.7 90.168 201.212 88.684 201.212 86.57C201.212 84.456 199.7 82.972 197.656 82.972C195.598 82.972 194.086 84.456 194.086 86.57ZM195.416 86.57C195.416 85.142 196.326 84.148 197.656 84.148C198.972 84.148 199.896 85.142 199.896 86.57C199.896 87.998 198.972 88.992 197.656 88.992C196.326 88.992 195.416 87.998 195.416 86.57ZM205.413 90.168C206.505 90.168 207.429 89.692 207.877 88.754L207.989 90H209.165V79.696H207.863V84.26C207.401 83.42 206.519 82.958 205.469 82.958C203.439 82.958 202.221 84.498 202.221 86.598C202.221 88.684 203.425 90.168 205.413 90.168ZM205.679 88.978C204.335 88.978 203.551 87.97 203.551 86.556C203.551 85.156 204.335 84.148 205.679 84.148C207.023 84.148 207.849 85.156 207.849 86.556C207.849 87.984 207.023 88.978 205.679 88.978ZM212.043 90.168C212.575 90.168 213.037 89.72 213.037 89.188C213.037 88.642 212.575 88.194 212.043 88.194C211.497 88.194 211.035 88.642 211.035 89.188C211.035 89.72 211.497 90.168 212.043 90.168ZM215.536 80.9C215.536 80.144 215.088 79.682 214.528 79.682C213.968 79.682 213.604 80.074 213.604 80.606C213.604 81.152 213.968 81.46 214.388 81.46C214.556 81.46 214.682 81.432 214.78 81.376C214.78 81.824 214.388 82.188 213.842 82.286V82.874C214.822 82.748 215.536 81.922 215.536 80.9ZM218.042 80.9C218.042 80.144 217.594 79.682 217.02 79.682C216.474 79.682 216.096 80.074 216.096 80.606C216.096 81.152 216.46 81.46 216.894 81.46C217.062 81.46 217.174 81.432 217.272 81.376C217.272 81.824 216.88 82.188 216.334 82.286V82.874C217.328 82.748 218.042 81.922 218.042 80.9Z" fill="#333F72"/>
<path d="M50.8399 114.85H54.9979L55.1799 113.73H51.0079L50.8399 114.85ZM66.624 118L66.82 116.768H61.444L68.024 109.068L68.206 107.878H61.304L61.122 109.11H66.358L59.82 116.768L59.638 118H66.624ZM70.1264 118.168C71.1904 118.168 72.1564 117.678 72.6184 116.88L72.5624 118H73.6544L74.3404 113.688C74.6064 112.022 73.6264 110.972 71.8064 110.972C70.0984 110.972 68.9924 111.826 68.7544 113.324H69.9164C70.0564 112.442 70.6584 111.994 71.6944 111.994C72.7724 111.994 73.2904 112.554 73.1084 113.576L73.0804 113.758L70.9384 113.926C69.1324 114.08 68.0964 114.948 68.0964 116.334C68.0964 117.44 68.9084 118.168 70.1264 118.168ZM70.5744 117.174C69.8184 117.174 69.3704 116.81 69.3704 116.222C69.3704 115.41 69.9724 114.906 71.2044 114.808L72.9544 114.668L72.8984 115.032C72.7024 116.348 71.8064 117.174 70.5744 117.174ZM75.5222 115.116C75.5222 116.964 76.7122 118.168 78.5322 118.168C80.1002 118.168 81.3742 117.202 81.8082 115.69H80.5062C80.1982 116.53 79.4702 117.048 78.5742 117.048C77.4962 117.048 76.8102 116.264 76.8102 115.046C76.8102 113.38 77.8462 112.106 79.2042 112.106C80.1142 112.106 80.7022 112.61 80.7862 113.464H82.0742C81.9622 111.896 80.9262 110.972 79.2602 110.972C77.1462 110.972 75.5222 112.778 75.5222 115.116ZM84.0543 118L84.6283 114.388C84.8523 112.96 85.6923 112.106 86.8543 112.106C87.9323 112.106 88.4503 112.82 88.2403 114.108L87.6243 118H88.8703L89.5423 113.814C89.7943 112.162 88.8423 110.958 87.2883 110.958C86.3083 110.958 85.5943 111.364 84.9783 112.246L85.6923 107.696H84.4323L82.8083 118H84.0543ZM93.749 118.168C95.247 118.168 96.549 117.286 97.011 115.886H95.751C95.443 116.656 94.687 117.104 93.791 117.104C92.657 117.104 91.971 116.32 91.971 115.046C91.971 114.962 91.971 114.892 91.971 114.822L97.179 114.808L97.249 114.332C97.557 112.372 96.423 110.972 94.477 110.972C92.363 110.972 90.739 112.778 90.739 115.116C90.739 116.964 91.929 118.168 93.749 118.168ZM94.421 112.036C95.555 112.036 96.227 112.806 96.045 113.968H92.125C92.461 112.82 93.343 112.036 94.421 112.036ZM103.021 111.098C102.797 111.042 102.559 111.014 102.321 111.014C101.425 111.014 100.683 111.504 100.277 112.232L100.361 111.154H99.2128L98.1208 118H99.3808L99.9688 114.332C100.165 113.016 101.075 112.26 102.265 112.26H102.839L103.021 111.098ZM102.223 121.052C102.531 121.136 102.867 121.178 103.301 121.178C104.449 121.178 105.149 120.562 105.695 119.54L110.189 111.154H108.817L105.961 116.684L104.869 111.154H103.595L105.149 118.266L104.743 119.036C104.309 119.876 103.777 120.002 103.231 120.002H102.391L102.223 121.052ZM111.006 117.188C111.006 116.6 110.656 116.222 110.166 116.222C109.578 116.222 109.088 116.726 109.088 117.328C109.088 117.734 109.396 118.014 109.802 118.014C109.97 118.014 110.082 117.986 110.18 117.93C110.124 118.336 109.662 118.714 109.088 118.84L108.99 119.414C110.082 119.26 111.006 118.238 111.006 117.188ZM117.265 110.72C117.265 111.98 117.993 112.848 119.449 113.31L120.933 113.8C121.801 114.094 122.137 114.5 122.137 115.242C122.137 116.292 121.269 116.978 119.939 116.978C118.665 116.978 117.895 116.39 117.797 115.354H116.453C116.607 117.174 117.839 118.182 119.897 118.182C122.011 118.182 123.439 116.95 123.439 115.144C123.439 113.898 122.795 113.1 121.409 112.638L119.911 112.134C118.987 111.826 118.581 111.35 118.581 110.58C118.581 109.544 119.365 108.9 120.597 108.9C121.787 108.9 122.543 109.502 122.655 110.524H123.985C123.873 108.844 122.543 107.696 120.653 107.696C118.637 107.696 117.265 108.914 117.265 110.72ZM124.522 115.06C124.522 116.908 125.796 118.168 127.658 118.168C129.856 118.168 131.606 116.348 131.606 114.08C131.606 112.232 130.346 110.972 128.484 110.972C126.286 110.972 124.522 112.792 124.522 115.06ZM125.81 114.976C125.81 113.38 126.972 112.092 128.386 112.092C129.59 112.092 130.332 112.904 130.332 114.164C130.332 115.76 129.17 117.048 127.756 117.048C126.552 117.048 125.81 116.25 125.81 114.976ZM138.026 111.154L137.452 114.78C137.228 116.18 136.43 117.034 135.268 117.034C134.26 117.034 133.756 116.32 133.952 115.032L134.582 111.154H133.322L132.664 115.326C132.398 116.978 133.322 118.168 134.834 118.168C135.814 118.168 136.5 117.762 137.116 116.908L137.06 118H138.194L139.272 111.154H138.026ZM139.677 116.04C139.677 117.314 140.713 118.168 142.225 118.168C143.891 118.168 144.969 117.314 144.969 116.012C144.969 115.158 144.521 114.626 143.527 114.29L142.407 113.912C141.819 113.702 141.553 113.394 141.553 112.946C141.553 112.33 142.043 111.966 142.827 111.966C143.625 111.966 144.045 112.344 144.059 113.1H145.291C145.291 111.812 144.367 110.972 142.911 110.972C141.357 110.972 140.335 111.798 140.335 113.044C140.335 113.926 140.853 114.5 141.805 114.822L142.939 115.2C143.527 115.396 143.737 115.648 143.737 116.124C143.737 116.74 143.149 117.174 142.295 117.174C141.469 117.174 140.923 116.726 140.909 116.04H139.677ZM154.475 118.154C156.729 118.154 158.339 117.02 159.151 114.794H157.695C157.065 116.236 156.029 116.866 154.517 116.866C152.739 116.866 151.633 115.592 151.633 113.632C151.633 110.958 153.215 108.984 155.539 108.984C156.953 108.984 158.031 109.782 158.213 111.14H159.599C159.487 109.124 157.919 107.71 155.651 107.71C152.543 107.71 150.247 110.216 150.247 113.688C150.247 116.334 151.871 118.154 154.475 118.154ZM161.287 118L161.861 114.388C162.085 112.96 162.925 112.106 164.087 112.106C165.165 112.106 165.683 112.82 165.473 114.108L164.857 118H166.103L166.775 113.814C167.027 112.162 166.075 110.958 164.521 110.958C163.541 110.958 162.827 111.364 162.211 112.246L162.925 107.696H161.665L160.041 118H161.287ZM170.981 118.168C172.479 118.168 173.781 117.286 174.243 115.886H172.983C172.675 116.656 171.919 117.104 171.023 117.104C169.889 117.104 169.203 116.32 169.203 115.046C169.203 114.962 169.203 114.892 169.203 114.822L174.411 114.808L174.481 114.332C174.789 112.372 173.655 110.972 171.709 110.972C169.595 110.972 167.971 112.778 167.971 115.116C167.971 116.964 169.161 118.168 170.981 118.168ZM171.653 112.036C172.787 112.036 173.459 112.806 173.277 113.968H169.357C169.693 112.82 170.575 112.036 171.653 112.036ZM175.717 111.154L175.549 112.218H176.543L175.633 118H176.879L177.789 112.218H179.385L179.553 111.154H177.957L178.139 110.048C178.265 109.18 178.643 108.83 179.385 108.83C179.609 108.83 179.777 108.844 179.959 108.844L180.127 107.752C179.917 107.71 179.623 107.696 179.357 107.696C177.985 107.696 177.131 108.508 176.893 110.048L176.711 111.154H175.717ZM180.869 117.188C180.869 116.6 180.519 116.222 180.029 116.222C179.441 116.222 178.951 116.726 178.951 117.328C178.951 117.734 179.259 118.014 179.665 118.014C179.833 118.014 179.945 117.986 180.043 117.93C179.987 118.336 179.525 118.714 178.951 118.84L178.853 119.414C179.945 119.26 180.869 118.238 180.869 117.188ZM187.128 110.72C187.128 111.98 187.856 112.848 189.312 113.31L190.796 113.8C191.664 114.094 192 114.5 192 115.242C192 116.292 191.132 116.978 189.802 116.978C188.528 116.978 187.758 116.39 187.66 115.354H186.316C186.47 117.174 187.702 118.182 189.76 118.182C191.874 118.182 193.302 116.95 193.302 115.144C193.302 113.898 192.658 113.1 191.272 112.638L189.774 112.134C188.85 111.826 188.444 111.35 188.444 110.58C188.444 109.544 189.228 108.9 190.46 108.9C191.65 108.9 192.406 109.502 192.518 110.524H193.848C193.736 108.844 192.406 107.696 190.516 107.696C188.5 107.696 187.128 108.914 187.128 110.72ZM196.191 118L197.115 112.218H198.431L198.599 111.154H197.283L197.619 109.012H196.359L196.023 111.154H194.707L194.539 112.218H195.855L194.945 118H196.191ZM200.583 118.168C201.647 118.168 202.613 117.678 203.075 116.88L203.019 118H204.111L204.797 113.688C205.063 112.022 204.083 110.972 202.263 110.972C200.555 110.972 199.449 111.826 199.211 113.324H200.373C200.513 112.442 201.115 111.994 202.151 111.994C203.229 111.994 203.747 112.554 203.565 113.576L203.537 113.758L201.395 113.926C199.589 114.08 198.553 114.948 198.553 116.334C198.553 117.44 199.365 118.168 200.583 118.168ZM201.031 117.174C200.275 117.174 199.827 116.81 199.827 116.222C199.827 115.41 200.429 114.906 201.661 114.808L203.411 114.668L203.355 115.032C203.159 116.348 202.263 117.174 201.031 117.174ZM210.837 111.098C210.613 111.042 210.375 111.014 210.137 111.014C209.241 111.014 208.499 111.504 208.093 112.232L208.177 111.154H207.029L205.937 118H207.197L207.785 114.332C207.981 113.016 208.891 112.26 210.081 112.26H210.655L210.837 111.098ZM210.839 116.04C210.839 117.314 211.875 118.168 213.387 118.168C215.053 118.168 216.131 117.314 216.131 116.012C216.131 115.158 215.683 114.626 214.689 114.29L213.569 113.912C212.981 113.702 212.715 113.394 212.715 112.946C212.715 112.33 213.205 111.966 213.989 111.966C214.787 111.966 215.207 112.344 215.221 113.1H216.453C216.453 111.812 215.529 110.972 214.073 110.972C212.519 110.972 211.497 111.798 211.497 113.044C211.497 113.926 212.015 114.5 212.967 114.822L214.101 115.2C214.689 115.396 214.899 115.648 214.899 116.124C214.899 116.74 214.311 117.174 213.457 117.174C212.631 117.174 212.085 116.726 212.071 116.04H210.839Z" fill="#333F72"/>
</svg>
