<svg width="404" height="158" viewBox="0 0 404 158" fill="none" xmlns="http://www.w3.org/2000/svg">
<mask id="path-1-inside-1_1_2605" fill="white">
<path fill-rule="evenodd" clip-rule="evenodd" d="M134.654 144.434C143.79 152.323 158.989 156.117 173.704 155.997C181.04 155.938 188.197 154.905 194.345 152.957C200.504 151.005 205.576 148.159 208.827 144.524C209.03 144.298 209.324 144.176 209.628 144.193C209.931 144.21 210.211 144.364 210.387 144.611C212.281 147.272 216.038 149.593 220.976 151.305C225.882 153.006 231.816 154.059 237.887 154.281C243.959 154.504 250.125 153.896 255.5 152.308C260.884 150.717 265.397 148.167 268.273 144.567C268.513 144.267 268.904 144.13 269.278 144.217C282.304 147.215 301.648 149.719 317.392 147.544C325.27 146.455 332.128 144.211 336.855 140.382C341.524 136.599 344.19 131.213 343.628 123.579C343.605 123.267 343.729 122.963 343.963 122.756C344.196 122.55 344.513 122.464 344.82 122.524C363.723 126.269 377.643 119.918 386.863 110.837C396.139 101.7 400.616 89.8438 400.616 82.7261C400.616 82.6404 400.627 82.5551 400.649 82.4722C401.862 77.8512 400.747 69.6716 395.779 62.3453C390.851 55.0792 382.144 48.6819 368.212 47.5816C367.822 47.5508 367.486 47.2956 367.352 46.9283C362.125 32.645 350.446 24.7426 338.064 20.4454C325.675 16.1452 312.701 15.5028 305.156 15.6753C304.973 15.6795 304.793 15.6337 304.635 15.5428C289.875 7.0654 278.079 3.51986 265.96 3.05399C253.802 2.5866 241.249 5.21323 224.925 9.22139C224.742 9.26638 224.549 9.25861 224.37 9.19899C211.929 5.05495 201.271 2.35711 190.65 2.0329C180.049 1.70932 169.428 3.74962 157.076 9.16607C156.87 9.25625 156.64 9.27457 156.423 9.21808C137.763 4.36847 125.054 2.14022 113.686 2.7157C102.347 3.28972 92.26 6.65833 78.8562 13.1657C78.7154 13.234 78.5605 13.2684 78.4039 13.266C64.0915 13.0437 53.831 14.4281 47.1715 17.9556C43.8689 19.705 41.4687 21.9733 39.8842 24.8334C38.2953 27.7013 37.4895 31.2318 37.4895 35.558C37.4895 36.0315 37.1576 36.44 36.6942 36.5369C22.5305 39.4981 13.9998 44.3543 10.0124 49.9351C6.09937 55.4118 6.41976 61.8041 10.5216 68.3592C10.7404 68.7089 10.7221 69.1571 10.4754 69.4877C5.00263 76.8231 1.71929 82.2536 2.01877 87.6915C2.31535 93.0767 6.16981 98.8283 16.142 106.655C16.4395 106.889 16.5798 107.27 16.5045 107.641C15.7192 111.51 15.9838 114.659 17.0735 117.215C18.1611 119.766 20.1123 121.825 22.8755 123.446C28.4531 126.718 37.2065 128.128 48.1908 128.128C48.7431 128.128 49.1908 128.575 49.1908 129.128C49.1908 131.339 49.9429 133.074 51.2903 134.443C52.6611 135.836 54.7011 136.901 57.3402 137.628C62.6295 139.086 70.0302 139.104 78.2876 138.006C78.5733 137.968 78.8615 138.055 79.0783 138.245C79.2951 138.434 79.4195 138.709 79.4195 138.997C79.4195 139.259 79.6091 139.784 80.33 140.545C81.0199 141.274 82.0758 142.089 83.4853 142.921C86.2983 144.582 90.3942 146.237 95.4266 147.384C105.484 149.677 119.173 149.92 133.636 144.26C133.982 144.125 134.374 144.192 134.654 144.434ZM194.949 154.864C200.84 152.997 205.944 150.286 209.506 146.717C211.878 149.434 215.753 151.611 220.321 153.195C225.441 154.97 231.574 156.051 237.814 156.28C244.053 156.509 250.442 155.888 256.067 154.226C261.453 152.634 266.212 150.066 269.432 146.303C282.564 149.267 301.825 151.713 317.666 149.525C325.703 148.414 332.979 146.096 338.114 141.936C343.032 137.951 345.916 132.332 345.69 124.722C364.669 128.086 378.828 121.558 388.266 112.261C397.804 102.867 402.564 90.6028 402.616 82.8542C403.95 77.5569 402.619 68.8677 397.434 61.2228C392.244 53.5707 383.182 46.9336 369.006 45.6419C363.395 30.9746 351.261 22.9086 338.72 18.5559C326.171 14.2003 313.098 13.5166 305.389 13.6699C290.53 5.17054 278.483 1.53393 266.037 1.05547C253.635 0.578694 240.905 3.24367 224.728 7.2103C212.342 3.09725 201.545 0.364522 190.711 0.0338336C179.87 -0.297084 169.047 1.77825 156.591 7.19545C138.081 2.39751 125.207 0.129933 113.585 0.718267C101.926 1.30845 91.6089 4.76758 78.1969 11.2626C63.9596 11.0584 53.334 12.4282 46.2354 16.1883C42.6392 18.0932 39.9325 20.6192 38.1347 23.8642C36.4484 26.9081 35.5946 30.5252 35.4987 34.7467C21.6109 37.7616 12.7279 42.6943 8.38511 48.7724C4.01092 54.8945 4.38481 61.96 8.46891 68.8343C3.28024 75.8367 -0.314794 81.6897 0.0217992 87.8015C0.364361 94.0217 4.73573 100.158 14.4282 107.851C13.7265 111.755 14.011 115.131 15.2337 117.999C16.5213 121.02 18.8078 123.379 21.8636 125.171C27.7485 128.623 36.6031 130.045 47.2348 130.124C47.4397 132.403 48.3555 134.312 49.8649 135.846C50.1311 136.116 50.4146 136.374 50.7142 136.619C49.7368 138.855 46.2515 143.862 39.244 151.315C38.5326 152.071 37.785 152.853 36.9999 153.66C37.401 153.32 38.071 152.996 39.0185 152.537C39.2747 152.413 39.5512 152.279 39.8481 152.132C43.0152 150.568 48.5096 147.548 56.5371 139.48C56.6272 139.506 56.7179 139.531 56.809 139.556C62.2746 141.062 69.6369 141.099 77.6444 140.105C77.8989 140.748 78.3478 141.361 78.8779 141.921C79.7373 142.828 80.9601 143.753 82.4685 144.643C85.4912 146.428 89.7878 148.15 94.982 149.334C105.248 151.674 119.128 151.941 133.807 146.338C143.493 154.401 158.994 158.117 173.72 157.997C181.222 157.936 188.582 156.881 194.949 154.864ZM51.5343 137.232C52.6722 138.009 53.9952 138.64 55.4611 139.142C50.0677 144.511 45.8722 147.537 42.8094 149.382C42.4949 149.571 42.1919 149.748 41.9003 149.915C44.9143 146.597 47.1687 143.825 48.7675 141.634C49.8995 140.082 50.7145 138.806 51.2384 137.822C51.3481 137.616 51.447 137.419 51.5343 137.232Z"/>
</mask>
<path fill-rule="evenodd" clip-rule="evenodd" d="M134.654 144.434C143.79 152.323 158.989 156.117 173.704 155.997C181.04 155.938 188.197 154.905 194.345 152.957C200.504 151.005 205.576 148.159 208.827 144.524C209.03 144.298 209.324 144.176 209.628 144.193C209.931 144.21 210.211 144.364 210.387 144.611C212.281 147.272 216.038 149.593 220.976 151.305C225.882 153.006 231.816 154.059 237.887 154.281C243.959 154.504 250.125 153.896 255.5 152.308C260.884 150.717 265.397 148.167 268.273 144.567C268.513 144.267 268.904 144.13 269.278 144.217C282.304 147.215 301.648 149.719 317.392 147.544C325.27 146.455 332.128 144.211 336.855 140.382C341.524 136.599 344.19 131.213 343.628 123.579C343.605 123.267 343.729 122.963 343.963 122.756C344.196 122.55 344.513 122.464 344.82 122.524C363.723 126.269 377.643 119.918 386.863 110.837C396.139 101.7 400.616 89.8438 400.616 82.7261C400.616 82.6404 400.627 82.5551 400.649 82.4722C401.862 77.8512 400.747 69.6716 395.779 62.3453C390.851 55.0792 382.144 48.6819 368.212 47.5816C367.822 47.5508 367.486 47.2956 367.352 46.9283C362.125 32.645 350.446 24.7426 338.064 20.4454C325.675 16.1452 312.701 15.5028 305.156 15.6753C304.973 15.6795 304.793 15.6337 304.635 15.5428C289.875 7.0654 278.079 3.51986 265.96 3.05399C253.802 2.5866 241.249 5.21323 224.925 9.22139C224.742 9.26638 224.549 9.25861 224.37 9.19899C211.929 5.05495 201.271 2.35711 190.65 2.0329C180.049 1.70932 169.428 3.74962 157.076 9.16607C156.87 9.25625 156.64 9.27457 156.423 9.21808C137.763 4.36847 125.054 2.14022 113.686 2.7157C102.347 3.28972 92.26 6.65833 78.8562 13.1657C78.7154 13.234 78.5605 13.2684 78.4039 13.266C64.0915 13.0437 53.831 14.4281 47.1715 17.9556C43.8689 19.705 41.4687 21.9733 39.8842 24.8334C38.2953 27.7013 37.4895 31.2318 37.4895 35.558C37.4895 36.0315 37.1576 36.44 36.6942 36.5369C22.5305 39.4981 13.9998 44.3543 10.0124 49.9351C6.09937 55.4118 6.41976 61.8041 10.5216 68.3592C10.7404 68.7089 10.7221 69.1571 10.4754 69.4877C5.00263 76.8231 1.71929 82.2536 2.01877 87.6915C2.31535 93.0767 6.16981 98.8283 16.142 106.655C16.4395 106.889 16.5798 107.27 16.5045 107.641C15.7192 111.51 15.9838 114.659 17.0735 117.215C18.1611 119.766 20.1123 121.825 22.8755 123.446C28.4531 126.718 37.2065 128.128 48.1908 128.128C48.7431 128.128 49.1908 128.575 49.1908 129.128C49.1908 131.339 49.9429 133.074 51.2903 134.443C52.6611 135.836 54.7011 136.901 57.3402 137.628C62.6295 139.086 70.0302 139.104 78.2876 138.006C78.5733 137.968 78.8615 138.055 79.0783 138.245C79.2951 138.434 79.4195 138.709 79.4195 138.997C79.4195 139.259 79.6091 139.784 80.33 140.545C81.0199 141.274 82.0758 142.089 83.4853 142.921C86.2983 144.582 90.3942 146.237 95.4266 147.384C105.484 149.677 119.173 149.92 133.636 144.26C133.982 144.125 134.374 144.192 134.654 144.434ZM194.949 154.864C200.84 152.997 205.944 150.286 209.506 146.717C211.878 149.434 215.753 151.611 220.321 153.195C225.441 154.97 231.574 156.051 237.814 156.28C244.053 156.509 250.442 155.888 256.067 154.226C261.453 152.634 266.212 150.066 269.432 146.303C282.564 149.267 301.825 151.713 317.666 149.525C325.703 148.414 332.979 146.096 338.114 141.936C343.032 137.951 345.916 132.332 345.69 124.722C364.669 128.086 378.828 121.558 388.266 112.261C397.804 102.867 402.564 90.6028 402.616 82.8542C403.95 77.5569 402.619 68.8677 397.434 61.2228C392.244 53.5707 383.182 46.9336 369.006 45.6419C363.395 30.9746 351.261 22.9086 338.72 18.5559C326.171 14.2003 313.098 13.5166 305.389 13.6699C290.53 5.17054 278.483 1.53393 266.037 1.05547C253.635 0.578694 240.905 3.24367 224.728 7.2103C212.342 3.09725 201.545 0.364522 190.711 0.0338336C179.87 -0.297084 169.047 1.77825 156.591 7.19545C138.081 2.39751 125.207 0.129933 113.585 0.718267C101.926 1.30845 91.6089 4.76758 78.1969 11.2626C63.9596 11.0584 53.334 12.4282 46.2354 16.1883C42.6392 18.0932 39.9325 20.6192 38.1347 23.8642C36.4484 26.9081 35.5946 30.5252 35.4987 34.7467C21.6109 37.7616 12.7279 42.6943 8.38511 48.7724C4.01092 54.8945 4.38481 61.96 8.46891 68.8343C3.28024 75.8367 -0.314794 81.6897 0.0217992 87.8015C0.364361 94.0217 4.73573 100.158 14.4282 107.851C13.7265 111.755 14.011 115.131 15.2337 117.999C16.5213 121.02 18.8078 123.379 21.8636 125.171C27.7485 128.623 36.6031 130.045 47.2348 130.124C47.4397 132.403 48.3555 134.312 49.8649 135.846C50.1311 136.116 50.4146 136.374 50.7142 136.619C49.7368 138.855 46.2515 143.862 39.244 151.315C38.5326 152.071 37.785 152.853 36.9999 153.66C37.401 153.32 38.071 152.996 39.0185 152.537C39.2747 152.413 39.5512 152.279 39.8481 152.132C43.0152 150.568 48.5096 147.548 56.5371 139.48C56.6272 139.506 56.7179 139.531 56.809 139.556C62.2746 141.062 69.6369 141.099 77.6444 140.105C77.8989 140.748 78.3478 141.361 78.8779 141.921C79.7373 142.828 80.9601 143.753 82.4685 144.643C85.4912 146.428 89.7878 148.15 94.982 149.334C105.248 151.674 119.128 151.941 133.807 146.338C143.493 154.401 158.994 158.117 173.72 157.997C181.222 157.936 188.582 156.881 194.949 154.864ZM51.5343 137.232C52.6722 138.009 53.9952 138.64 55.4611 139.142C50.0677 144.511 45.8722 147.537 42.8094 149.382C42.4949 149.571 42.1919 149.748 41.9003 149.915C44.9143 146.597 47.1687 143.825 48.7675 141.634C49.8995 140.082 50.7145 138.806 51.2384 137.822C51.3481 137.616 51.447 137.419 51.5343 137.232Z" fill="white"/>
<path d="M173.704 155.997L173.712 156.997L173.704 155.997ZM134.654 144.434L135.308 143.677L135.308 143.677L134.654 144.434ZM194.345 152.957L194.042 152.004L194.345 152.957ZM208.827 144.524L208.082 143.858L208.827 144.524ZM209.628 144.193L209.683 143.194H209.683L209.628 144.193ZM210.387 144.611L211.202 144.031H211.202L210.387 144.611ZM220.976 151.305L220.649 152.25L220.976 151.305ZM237.887 154.281L237.85 155.281H237.85L237.887 154.281ZM255.5 152.308L255.783 153.267L255.5 152.308ZM268.273 144.567L269.054 145.191L269.054 145.191L268.273 144.567ZM269.278 144.217L269.054 145.191H269.054L269.278 144.217ZM317.392 147.544L317.256 146.553H317.256L317.392 147.544ZM336.855 140.382L337.484 141.159L336.855 140.382ZM343.628 123.579L342.631 123.652V123.652L343.628 123.579ZM343.963 122.756L344.625 123.505L344.625 123.505L343.963 122.756ZM344.82 122.524L344.625 123.505L344.82 122.524ZM386.863 110.837L386.161 110.124L386.863 110.837ZM400.649 82.4722L401.616 82.7261V82.7261L400.649 82.4722ZM395.779 62.3453L396.606 61.784V61.784L395.779 62.3453ZM368.212 47.5816L368.134 48.5785L368.212 47.5816ZM367.352 46.9283L366.413 47.272V47.272L367.352 46.9283ZM338.064 20.4454L337.737 21.3901L338.064 20.4454ZM305.156 15.6753L305.179 16.6751H305.179L305.156 15.6753ZM304.635 15.5428L304.137 16.4099V16.4099L304.635 15.5428ZM265.96 3.05399L265.999 2.05473L265.96 3.05399ZM224.925 9.22139L225.163 10.1926L225.163 10.1925L224.925 9.22139ZM224.37 9.19899L224.054 10.1477L224.054 10.1478L224.37 9.19899ZM190.65 2.0329L190.68 1.03337H190.68L190.65 2.0329ZM157.076 9.16607L157.477 10.0819L157.478 10.0819L157.076 9.16607ZM156.423 9.21808L156.171 10.1859L156.171 10.1859L156.423 9.21808ZM113.686 2.7157L113.737 3.71442L113.686 2.7157ZM78.8562 13.1657L79.2929 14.0653L79.2929 14.0653L78.8562 13.1657ZM78.4039 13.266L78.4195 12.2661L78.4195 12.2661L78.4039 13.266ZM47.1715 17.9556L46.7035 17.0719L47.1715 17.9556ZM39.8842 24.8334L40.7589 25.318L39.8842 24.8334ZM36.6942 36.5369L36.4896 35.558H36.4895L36.6942 36.5369ZM10.0124 49.9351L9.19876 49.3537H9.19876L10.0124 49.9351ZM10.5216 68.3592L9.67392 68.8897L9.67392 68.8897L10.5216 68.3592ZM10.4754 69.4877L11.2769 70.0857H11.2769L10.4754 69.4877ZM2.01877 87.6915L1.02029 87.7465L2.01877 87.6915ZM16.142 106.655L16.7594 105.869L16.7594 105.869L16.142 106.655ZM16.5045 107.641L15.5245 107.442H15.5245L16.5045 107.641ZM17.0735 117.215L17.9934 116.823L17.0735 117.215ZM22.8755 123.446L22.3696 124.309L22.8755 123.446ZM51.2903 134.443L50.5776 135.144H50.5776L51.2903 134.443ZM57.3402 137.628L57.0746 138.592L57.0746 138.592L57.3402 137.628ZM78.2876 138.006L78.1557 137.014L78.1557 137.014L78.2876 138.006ZM79.0783 138.245L79.7371 137.492L79.7371 137.492L79.0783 138.245ZM80.33 140.545L79.604 141.233L79.604 141.233L80.33 140.545ZM83.4853 142.921L83.9937 142.06L83.4853 142.921ZM95.4266 147.384L95.6489 146.409L95.4266 147.384ZM133.636 144.26L133.272 143.329H133.272L133.636 144.26ZM209.506 146.717L210.259 146.059C210.077 145.85 209.816 145.726 209.539 145.717C209.262 145.708 208.993 145.814 208.798 146.01L209.506 146.717ZM194.949 154.864L194.647 153.91L194.949 154.864ZM220.321 153.195L219.994 154.14L220.321 153.195ZM237.814 156.28L237.777 157.279L237.814 156.28ZM256.067 154.226L256.35 155.185L256.067 154.226ZM269.432 146.303L269.652 145.327C269.291 145.246 268.913 145.371 268.672 145.653L269.432 146.303ZM317.666 149.525L317.529 148.534H317.529L317.666 149.525ZM338.114 141.936L338.743 142.713L338.114 141.936ZM345.69 124.722L345.864 123.738C345.568 123.685 345.263 123.769 345.036 123.966C344.808 124.163 344.681 124.451 344.69 124.752L345.69 124.722ZM388.266 112.261L388.968 112.974L388.266 112.261ZM402.616 82.8542L401.646 82.61C401.627 82.6877 401.617 82.7674 401.616 82.8475L402.616 82.8542ZM397.434 61.2228L398.262 60.6615V60.6615L397.434 61.2228ZM369.006 45.6419L368.072 45.9992C368.208 46.3554 368.535 46.6031 368.915 46.6377L369.006 45.6419ZM338.72 18.5559L338.392 19.5006L338.72 18.5559ZM305.389 13.6699L304.893 14.5379C305.05 14.6278 305.228 14.6733 305.409 14.6697L305.389 13.6699ZM266.037 1.05547L265.999 2.05473V2.05473L266.037 1.05547ZM224.728 7.2103L224.413 8.15934C224.592 8.21867 224.784 8.22636 224.966 8.18153L224.728 7.2103ZM190.711 0.0338336L190.741 -0.965701L190.711 0.0338336ZM156.591 7.19545L156.34 8.16346C156.556 8.2195 156.785 8.20156 156.99 8.11248L156.591 7.19545ZM113.585 0.718267L113.636 1.71699V1.71699L113.585 0.718267ZM78.1969 11.2626L78.1826 12.2625C78.3384 12.2648 78.4925 12.2306 78.6328 12.1627L78.1969 11.2626ZM46.2354 16.1883L45.7673 15.3046L45.7673 15.3046L46.2354 16.1883ZM38.1347 23.8642L37.26 23.3796L38.1347 23.8642ZM35.4987 34.7467L35.7108 35.724C36.1623 35.6259 36.4879 35.2314 36.4984 34.7694L35.4987 34.7467ZM8.38511 48.7724L9.19876 49.3537L8.38511 48.7724ZM8.46891 68.8343L9.27237 69.4297C9.51224 69.106 9.53441 68.6699 9.32863 68.3236L8.46891 68.8343ZM0.0217992 87.8015L-0.976688 87.8565L0.0217992 87.8015ZM14.4282 107.851L15.4124 108.027C15.4776 107.665 15.3383 107.296 15.0499 107.067L14.4282 107.851ZM15.2337 117.999L14.3138 118.391L15.2337 117.999ZM21.8636 125.171L22.3696 124.308L21.8636 125.171ZM47.2348 130.124L48.2308 130.034C48.1847 129.522 47.757 129.128 47.2423 129.124L47.2348 130.124ZM49.8649 135.846L50.5776 135.144L49.8649 135.846ZM50.7142 136.619L51.6304 137.019C51.81 136.609 51.6943 136.129 51.3473 135.845L50.7142 136.619ZM39.244 151.315L38.5154 150.63L39.244 151.315ZM36.9999 153.66L36.2833 152.963C35.9111 153.345 35.9048 153.952 36.269 154.342C36.6332 154.732 37.2395 154.768 37.6466 154.423L36.9999 153.66ZM39.0185 152.537L38.5827 151.637H38.5827L39.0185 152.537ZM39.8481 152.132L39.4052 151.235L39.4052 151.235L39.8481 152.132ZM56.5371 139.48L56.8137 138.519C56.4631 138.418 56.0854 138.516 55.8281 138.774L56.5371 139.48ZM56.809 139.556L56.5433 140.52L56.5433 140.52L56.809 139.556ZM77.6444 140.105L78.5741 139.737C78.4063 139.313 77.9733 139.056 77.5211 139.112L77.6444 140.105ZM78.8779 141.921L79.604 141.233L79.604 141.233L78.8779 141.921ZM82.4685 144.643L81.96 145.505L82.4685 144.643ZM94.982 149.334L94.7597 150.309L94.982 149.334ZM133.807 146.338L134.447 145.569C134.169 145.338 133.788 145.275 133.451 145.404L133.807 146.338ZM173.72 157.997L173.728 158.997L173.72 157.997ZM55.4611 139.142L56.1666 139.85C56.4115 139.607 56.5132 139.254 56.4355 138.917C56.3578 138.58 56.1118 138.307 55.7849 138.195L55.4611 139.142ZM51.5343 137.232L52.0986 136.406C51.8563 136.24 51.5535 136.19 51.2704 136.267C50.9873 136.345 50.7526 136.542 50.6283 136.808L51.5343 137.232ZM42.8094 149.382L42.2935 148.525H42.2935L42.8094 149.382ZM41.9003 149.915L41.1601 149.242C40.8295 149.606 40.8125 150.157 41.1201 150.54C41.4277 150.924 41.9685 151.027 42.3956 150.783L41.9003 149.915ZM48.7675 141.634L47.9597 141.044L48.7675 141.634ZM51.2384 137.822L52.1212 138.291H52.1212L51.2384 137.822ZM173.696 154.997C159.104 155.116 144.186 151.344 135.308 143.677L134.001 145.191C143.394 153.302 158.873 157.118 173.712 156.997L173.696 154.997ZM194.042 152.004C188.005 153.917 180.949 154.939 173.696 154.997L173.712 156.997C181.131 156.937 188.389 155.893 194.647 153.91L194.042 152.004ZM208.082 143.858C204.992 147.311 200.104 150.083 194.042 152.004L194.647 153.91C200.904 151.928 206.159 149.006 209.572 145.191L208.082 143.858ZM209.683 143.194C209.076 143.16 208.487 143.405 208.082 143.858L209.572 145.191H209.572L209.683 143.194ZM211.202 144.031C210.849 143.536 210.29 143.228 209.683 143.194L209.572 145.191H209.572L211.202 144.031ZM221.304 150.361C216.44 148.674 212.917 146.441 211.202 144.031L209.572 145.191C211.644 148.103 215.636 150.512 220.649 152.25L221.304 150.361ZM237.924 153.282C231.937 153.062 226.103 152.024 221.304 150.361L220.649 152.25C225.661 153.988 231.695 155.055 237.85 155.281L237.924 153.282ZM255.217 151.349C249.966 152.9 243.912 153.502 237.924 153.282L237.85 155.281C244.006 155.507 250.283 154.892 255.783 153.267L255.217 151.349ZM267.491 143.943C264.787 147.328 260.485 149.792 255.217 151.349L255.783 153.267C261.284 151.641 266.007 149.006 269.054 145.191L267.491 143.943ZM269.503 143.242C268.753 143.07 267.971 143.342 267.491 143.943L269.054 145.191L269.054 145.191L269.503 143.242ZM317.256 146.553C301.681 148.705 282.471 146.228 269.503 143.242L269.054 145.191C282.137 148.203 301.615 150.733 317.529 148.534L317.256 146.553ZM336.225 139.605C331.702 143.269 325.053 145.476 317.256 146.553L317.529 148.534C325.487 147.435 332.553 145.153 337.484 141.159L336.225 139.605ZM342.631 123.652C343.169 130.969 340.633 136.034 336.225 139.605L337.484 141.159C342.415 137.164 345.21 131.457 344.625 123.505L342.631 123.652ZM343.3 122.007C342.832 122.421 342.585 123.029 342.631 123.652L344.625 123.505V123.505L343.3 122.007ZM345.014 121.543C344.401 121.422 343.767 121.594 343.3 122.007L344.625 123.505L344.625 123.505L345.014 121.543ZM386.161 110.124C377.154 118.996 363.563 125.218 345.014 121.543L344.625 123.505C363.884 127.32 378.131 120.84 387.565 111.549L386.161 110.124ZM399.616 82.7261C399.616 89.5321 395.28 101.143 386.161 110.124L387.565 111.549C396.998 102.258 401.616 90.1554 401.616 82.7261H399.616ZM399.682 82.2183C399.638 82.384 399.616 82.5547 399.616 82.7261H401.616V82.7261L399.682 82.2183ZM394.951 62.9066C399.791 70.043 400.808 77.929 399.682 82.2183L401.616 82.7261C402.917 77.7733 401.704 69.3002 396.606 61.784L394.951 62.9066ZM368.134 48.5785C381.761 49.6548 390.193 55.8903 394.951 62.9066L396.606 61.784C391.509 54.268 382.528 47.7091 368.291 46.5847L368.134 48.5785ZM366.413 47.272C366.682 48.0065 367.354 48.5169 368.134 48.5785L368.291 46.5847V46.5847L366.413 47.272ZM337.737 21.3901C349.953 25.6301 361.325 33.3705 366.413 47.272L368.291 46.5847C362.924 31.9194 350.938 23.8551 338.392 19.5006L337.737 21.3901ZM305.179 16.6751C312.662 16.504 325.503 17.1442 337.737 21.3901L338.392 19.5006C325.846 15.1462 312.74 14.5017 305.133 14.6756L305.179 16.6751ZM304.137 16.4099C304.454 16.5917 304.814 16.6834 305.179 16.6751L305.133 14.6756L305.133 14.6756L304.137 16.4099ZM265.922 4.05325C277.843 4.51152 289.483 7.99309 304.137 16.4099L305.133 14.6756C290.268 6.13771 278.315 2.52819 265.999 2.05473L265.922 4.05325ZM225.163 10.1925C241.495 6.18257 253.921 3.59192 265.922 4.05325L265.999 2.05473C253.683 1.58127 241.004 4.24389 224.686 8.25024L225.163 10.1925ZM224.054 10.1478C224.412 10.267 224.797 10.2825 225.163 10.1926L224.686 8.25023L224.686 8.25023L224.054 10.1478ZM190.619 3.03244C201.094 3.35218 211.642 6.01359 224.054 10.1477L224.686 8.25024C212.215 4.09631 201.448 1.36204 190.68 1.03337L190.619 3.03244ZM157.478 10.0819C169.711 4.71758 180.184 2.71393 190.619 3.03244L190.68 1.03337C179.913 0.704721 169.146 2.78167 156.674 8.25024L157.478 10.0819ZM156.171 10.1859C156.606 10.2989 157.066 10.2623 157.477 10.0819L156.674 8.25022L156.674 8.25023L156.171 10.1859ZM113.737 3.71442C124.943 3.14714 137.526 5.34024 156.171 10.1859L156.674 8.25024C137.999 3.39671 125.166 1.1333 113.636 1.71698L113.737 3.71442ZM79.2929 14.0653C92.6404 7.58527 102.588 4.27879 113.737 3.71442L113.636 1.71698C102.106 2.30066 91.8796 5.73139 78.4195 12.2661L79.2929 14.0653ZM78.3884 14.2658C78.7015 14.2707 79.0113 14.202 79.2929 14.0653L78.4195 12.2661L78.4195 12.2661L78.3884 14.2658ZM47.6396 18.8393C54.0598 15.4386 64.0982 14.0439 78.3884 14.2658L78.4195 12.2661C64.0848 12.0434 53.6023 13.4177 46.7035 17.0719L47.6396 18.8393ZM40.7589 25.318C42.2368 22.6503 44.4838 20.5109 47.6396 18.8393L46.7035 17.0719C43.254 18.8991 40.7006 21.2963 39.0094 24.3488L40.7589 25.318ZM38.4895 35.558C38.4895 31.3544 39.2723 28.0014 40.7589 25.318L39.0094 24.3488C37.3183 27.4013 36.4895 31.1093 36.4895 35.558H38.4895ZM36.8988 37.5157C37.8256 37.322 38.4895 36.5049 38.4895 35.558H36.4895H36.4896L36.8988 37.5157ZM10.8261 50.5164C14.5952 45.2412 22.8231 40.4585 36.8988 37.5157L36.4895 35.558C22.2379 38.5376 13.4045 43.4673 9.19876 49.3537L10.8261 50.5164ZM11.3693 67.8288C7.42523 61.5257 7.2053 55.5841 10.8261 50.5164L9.19876 49.3537C4.99345 55.2395 5.4143 62.0824 9.67392 68.8897L11.3693 67.8288ZM11.2769 70.0857C11.7703 69.4244 11.807 68.5281 11.3693 67.8288L9.67392 68.8897L9.67391 68.8897L11.2769 70.0857ZM3.01726 87.6365C2.88014 85.1467 3.55777 82.6054 4.97809 79.746C6.4031 76.8773 8.54595 73.7461 11.2769 70.0857L9.67392 68.8897C6.9321 72.5647 4.69689 75.8165 3.1869 78.8563C1.67222 81.9056 0.85793 84.7985 1.02029 87.7465L3.01726 87.6365ZM16.7594 105.869C6.81499 98.0634 3.28805 92.5535 3.01726 87.6365L1.02029 87.7465C1.34265 93.5999 5.52464 99.5931 15.5245 107.442L16.7594 105.869ZM17.4846 107.84C17.635 107.098 17.3544 106.336 16.7594 105.869L15.5245 107.442L15.5245 107.442L17.4846 107.84ZM17.9934 116.823C17.0017 114.497 16.7289 111.563 17.4846 107.84L15.5245 107.442C14.7094 111.458 14.9659 114.821 16.1536 117.607L17.9934 116.823ZM23.3815 122.583C20.7647 121.048 18.9811 119.14 17.9934 116.823L16.1536 117.607C17.3412 120.393 19.46 122.602 22.3696 124.309L23.3815 122.583ZM48.1908 127.128C37.2427 127.128 28.7176 125.714 23.3815 122.583L22.3696 124.309C28.1886 127.722 37.1703 129.128 48.1908 129.128V127.128ZM50.1908 129.128C50.1908 128.023 49.2954 127.128 48.1908 127.128V129.128H50.1908ZM52.003 133.741C50.8441 132.564 50.1908 131.083 50.1908 129.128H48.1908C48.1908 131.595 49.0417 133.584 50.5776 135.144L52.003 133.741ZM57.6059 136.664C55.0678 135.965 53.2087 134.966 52.003 133.741L50.5776 135.144C52.1135 136.705 54.3344 137.837 57.0746 138.592L57.6059 136.664ZM78.1557 137.014C69.9483 138.106 62.7041 138.069 57.6059 136.664L57.0746 138.592C62.555 140.102 70.1121 140.102 78.4195 138.997L78.1557 137.014ZM79.7371 137.492C79.3035 137.113 78.7271 136.938 78.1557 137.014L78.4195 138.997H78.4195L79.7371 137.492ZM80.4195 138.997C80.4195 138.42 80.1708 137.872 79.7371 137.492L78.4195 138.997H78.4195H80.4195ZM81.0561 139.858C80.7421 139.526 80.5735 139.277 80.4878 139.115C80.3958 138.942 80.4195 138.909 80.4195 138.997H78.4195C78.4195 139.649 78.8287 140.414 79.604 141.233L81.0561 139.858ZM83.9937 142.06C82.6336 141.257 81.6611 140.497 81.0561 139.858L79.604 141.233C80.3786 142.051 81.518 142.921 82.9769 143.782L83.9937 142.06ZM95.6489 146.409C90.6974 145.28 86.7019 143.659 83.9937 142.06L82.9769 143.782C85.8947 145.505 90.091 147.193 95.2043 148.359L95.6489 146.409ZM133.272 143.329C119.019 148.907 105.538 148.664 95.6489 146.409L95.2043 148.359C105.431 150.691 119.326 150.934 134.001 145.191L133.272 143.329ZM135.308 143.677C134.746 143.193 133.963 143.058 133.272 143.329L134.001 145.191L134.001 145.191L135.308 143.677ZM208.798 146.01C205.387 149.428 200.444 152.073 194.647 153.91L195.251 155.817C201.235 153.921 206.501 151.143 210.213 147.423L208.798 146.01ZM220.649 152.25C216.156 150.692 212.468 148.59 210.259 146.059L208.752 147.374C211.288 150.279 215.349 152.529 219.994 154.14L220.649 152.25ZM237.85 155.281C231.695 155.055 225.661 153.988 220.649 152.25L219.994 154.14C225.22 155.952 231.453 157.047 237.777 157.279L237.85 155.281ZM255.783 153.267C250.283 154.892 244.006 155.507 237.85 155.281L237.777 157.279C244.1 157.512 250.6 156.884 256.35 155.185L255.783 153.267ZM268.672 145.653C265.619 149.22 261.058 151.708 255.783 153.267L256.35 155.185C261.849 153.56 266.804 150.912 270.192 146.953L268.672 145.653ZM317.529 148.534C301.857 150.699 282.728 148.279 269.652 145.327L269.212 147.278C282.4 150.255 301.794 152.727 317.803 150.515L317.529 148.534ZM337.484 141.159C332.553 145.153 325.487 147.435 317.529 148.534L317.803 150.515C325.92 149.394 333.404 147.038 338.743 142.713L337.484 141.159ZM344.69 124.752C344.907 132.051 342.159 137.371 337.484 141.159L338.743 142.713C343.904 138.532 346.925 132.613 346.689 124.693L344.69 124.752ZM387.565 111.549C378.333 120.642 364.493 127.039 345.864 123.738L345.515 125.707C364.845 129.133 379.322 122.475 388.968 112.974L387.565 111.549ZM401.616 82.8475C401.566 90.2887 396.945 102.31 387.565 111.549L388.968 112.974C398.663 103.425 403.562 90.9169 403.616 82.8609L401.616 82.8475ZM396.606 61.784C401.663 69.2396 402.898 77.6395 401.646 82.61L403.586 83.0984C405.002 77.4744 403.575 68.4958 398.262 60.6615L396.606 61.784ZM368.915 46.6377C382.789 47.902 391.583 54.3774 396.606 61.784L398.262 60.6615C392.906 52.7641 383.574 45.9652 369.097 44.646L368.915 46.6377ZM338.392 19.5006C350.771 23.7971 362.604 31.7053 368.072 45.9992L369.94 45.2846C364.186 30.2438 351.751 22.0201 339.048 17.6112L338.392 19.5006ZM305.409 14.6697C313.056 14.5177 325.998 15.1987 338.392 19.5006L339.048 17.6112C326.344 13.2018 313.14 12.5156 305.37 12.6701L305.409 14.6697ZM265.999 2.05473C278.249 2.52564 290.139 6.099 304.893 14.5379L305.886 12.8019C290.921 4.24208 278.718 0.54221 266.076 0.0562086L265.999 2.05473ZM224.966 8.18153C241.149 4.21339 253.754 1.58399 265.999 2.05473L266.076 0.0562087C253.516 -0.426605 240.66 2.27396 224.49 6.23907L224.966 8.18153ZM190.68 1.03337C201.369 1.35962 212.057 4.0564 224.413 8.15934L225.043 6.26126C212.627 2.1381 201.72 -0.630578 190.741 -0.965701L190.68 1.03337ZM156.99 8.11248C169.327 2.74691 180.004 0.707472 190.68 1.03337L190.741 -0.965701C179.736 -1.30164 168.767 0.809591 156.192 6.27842L156.99 8.11248ZM113.636 1.71699C125.096 1.13681 137.846 3.36966 156.34 8.16346L156.842 6.22744C138.315 1.42537 125.317 -0.876944 113.535 -0.280455L113.636 1.71699ZM78.6328 12.1627C91.9877 5.69523 102.167 2.29756 113.636 1.71699L113.535 -0.280455C101.686 0.319327 91.2301 3.83994 77.7611 10.3626L78.6328 12.1627ZM46.7034 17.072C53.5637 13.4381 63.9685 12.0586 78.1826 12.2625L78.2113 10.2627C63.9506 10.0582 53.1042 11.4183 45.7673 15.3046L46.7034 17.072ZM39.0094 24.3488C40.7006 21.2963 43.254 18.8991 46.7035 17.072L45.7673 15.3046C42.0244 17.2872 39.1644 19.9421 37.26 23.3796L39.0094 24.3488ZM36.4984 34.7694C36.5916 30.6689 37.4192 27.2193 39.0094 24.3488L37.26 23.3796C35.4776 26.5969 34.5976 30.3815 34.4989 34.724L36.4984 34.7694ZM9.19876 49.3537C13.3266 43.5764 21.9129 38.7194 35.7108 35.724L35.2865 33.7695C21.3089 36.8039 12.1291 41.8121 7.57145 48.191L9.19876 49.3537ZM9.32863 68.3236C5.39695 61.7058 5.10727 55.0802 9.19876 49.3537L7.57145 48.191C2.91457 54.7088 3.37266 62.2142 7.60919 69.3451L9.32863 68.3236ZM1.02029 87.7465C0.706195 82.0433 4.0578 76.467 9.27237 69.4297L7.66545 68.239C2.50268 75.2064 -1.33578 81.3361 -0.976688 87.8565L1.02029 87.7465ZM15.0499 107.067C5.38968 99.4001 1.33741 93.5047 1.02029 87.7465L-0.976688 87.8565C-0.608685 94.5386 4.08178 100.915 13.8065 108.634L15.0499 107.067ZM16.1536 117.607C15.0239 114.957 14.7369 111.786 15.4124 108.027L13.444 107.674C12.7161 111.723 12.998 115.305 14.3138 118.391L16.1536 117.607ZM22.3696 124.308C19.46 122.602 17.3412 120.393 16.1536 117.607L14.3138 118.391C15.7015 121.647 18.1557 124.155 21.3576 126.034L22.3696 124.308ZM47.2423 129.124C36.6504 129.045 28.0183 127.622 22.3696 124.308L21.3576 126.034C27.4786 129.624 36.5558 131.044 47.2273 131.124L47.2423 129.124ZM50.5776 135.144C49.2292 133.774 48.4148 132.08 48.2308 130.034L46.2388 130.214C46.4647 132.725 47.4818 134.85 49.1522 136.547L50.5776 135.144ZM51.3473 135.845C51.0743 135.621 50.8176 135.388 50.5776 135.144L49.1522 136.547C49.4447 136.844 49.7548 137.126 50.081 137.393L51.3473 135.845ZM49.7979 136.218C48.8952 138.283 45.5172 143.183 38.5154 150.63L39.9725 152C46.9857 144.541 50.5783 139.426 51.6304 137.019L49.7979 136.218ZM38.5154 150.63C37.8081 151.382 37.0644 152.16 36.2833 152.963L37.7166 154.357C38.5055 153.547 39.2571 152.761 39.9725 152L38.5154 150.63ZM37.6466 154.423C37.9262 154.186 38.4492 153.923 39.4544 153.437L38.5827 151.637C37.6928 152.068 36.8758 152.454 36.3533 152.897L37.6466 154.423ZM39.4544 153.437C39.7102 153.313 39.9901 153.177 40.291 153.029L39.4052 151.235C39.1123 151.38 38.8392 151.512 38.5827 151.637L39.4544 153.437ZM40.291 153.029C43.5463 151.421 49.1332 148.339 57.246 140.185L55.8281 138.774C47.886 146.757 42.4841 149.715 39.4052 151.235L40.291 153.029ZM57.0746 138.592C56.9872 138.568 56.9002 138.544 56.8137 138.519L56.2605 140.441C56.3543 140.468 56.4486 140.494 56.5433 140.52L57.0746 138.592ZM77.5211 139.112C69.5648 140.101 62.3546 140.047 57.0746 138.592L56.5433 140.52C62.1945 142.077 69.7091 142.098 77.7676 141.097L77.5211 139.112ZM79.604 141.233C79.1225 140.725 78.7646 140.218 78.5741 139.737L76.7146 140.473C77.0333 141.278 77.5732 141.997 78.1519 142.608L79.604 141.233ZM82.9769 143.782C81.518 142.921 80.3786 142.051 79.604 141.233L78.1519 142.608C79.0961 143.605 80.4022 144.585 81.96 145.505L82.9769 143.782ZM95.2043 148.359C90.091 147.193 85.8947 145.505 82.9769 143.782L81.96 145.505C85.0876 147.351 89.4845 149.106 94.7597 150.309L95.2043 148.359ZM133.451 145.404C118.979 150.928 105.303 150.661 95.2043 148.359L94.7597 150.309C105.192 152.687 119.277 152.955 134.164 147.272L133.451 145.404ZM173.712 156.997C159.109 157.116 143.88 153.422 134.447 145.569L133.167 147.107C143.107 155.381 158.878 159.118 173.728 158.997L173.712 156.997ZM194.647 153.91C188.389 155.893 181.131 156.937 173.712 156.997L173.728 158.997C181.313 158.936 188.774 157.869 195.251 155.817L194.647 153.91ZM55.7849 138.195C54.3856 137.717 53.1474 137.123 52.0986 136.406L50.9701 138.057C52.197 138.896 53.6048 139.563 55.1373 140.088L55.7849 138.195ZM43.3254 150.238C46.4621 148.349 50.7205 145.272 56.1666 139.85L54.7556 138.433C49.4149 143.75 45.2824 146.725 42.2935 148.525L43.3254 150.238ZM42.3956 150.783C42.694 150.613 43.0038 150.432 43.3254 150.238L42.2935 148.525C41.986 148.71 41.6899 148.884 41.405 149.046L42.3956 150.783ZM47.9597 141.044C46.3864 143.201 44.1558 145.945 41.1601 149.242L42.6405 150.587C45.6727 147.249 47.951 144.45 49.5754 142.223L47.9597 141.044ZM50.3557 137.352C49.8617 138.28 49.0757 139.515 47.9597 141.044L49.5754 142.223C50.7233 140.65 51.5674 139.332 52.1212 138.291L50.3557 137.352ZM50.6283 136.808C50.5494 136.977 50.4585 137.159 50.3557 137.352L52.1212 138.291C52.2377 138.072 52.3446 137.86 52.4403 137.655L50.6283 136.808Z" fill="#333F72" mask="url(#path-1-inside-1_1_2605)"/>
<path d="M52.7999 41.95C52.7999 41.404 52.4499 41.096 52.0159 41.096C51.8479 41.096 51.7219 41.138 51.6239 41.194C51.6239 40.746 52.0159 40.382 52.5619 40.27V39.682C51.5819 39.822 50.8679 40.634 50.8679 41.656C50.8679 42.412 51.3159 42.874 51.8759 42.874C52.4359 42.874 52.7999 42.482 52.7999 41.95ZM55.3059 41.95C55.3059 41.404 54.9419 41.096 54.5079 41.096C54.3539 41.096 54.2279 41.124 54.1299 41.18C54.1299 40.746 54.5219 40.382 55.0679 40.27V39.682C54.0879 39.822 53.3599 40.634 53.3599 41.656C53.3599 42.412 53.8079 42.874 54.3819 42.874C54.9279 42.874 55.3059 42.482 55.3059 41.95ZM58.7276 39.878H57.3556V50H58.7276V39.878ZM66.0082 49.986V46.262C66.0082 45.086 66.6942 44.162 67.9682 44.162C68.9482 44.162 69.6062 44.722 69.6062 46.108V50H70.9222V45.814C70.9222 44.064 70.0822 42.958 68.3322 42.958C67.2682 42.958 66.4422 43.462 66.0082 44.204V39.696H64.6922V49.986H66.0082ZM73.3889 41.53C73.8649 41.53 74.2569 41.138 74.2569 40.662C74.2569 40.172 73.8649 39.794 73.3889 39.794C72.9129 39.794 72.5209 40.172 72.5209 40.662C72.5209 41.138 72.9129 41.53 73.3889 41.53ZM72.7449 50H74.0609V43.154H72.7449V50ZM75.5375 46.402C75.5375 48.32 76.7695 49.818 78.7155 49.818C79.7935 49.818 80.6895 49.342 81.1375 48.544V49.916C81.1375 51.218 80.2975 52.058 79.0095 52.058C77.8615 52.058 77.1055 51.47 76.9375 50.462H75.6215C75.8735 52.198 77.1475 53.248 79.0095 53.248C81.1095 53.248 82.4395 51.876 82.4395 49.72V43.154H81.2635L81.1655 44.316C80.7315 43.462 79.8775 42.958 78.7715 42.958C76.7835 42.958 75.5375 44.47 75.5375 46.402ZM76.8535 46.374C76.8535 45.114 77.6375 44.106 78.9535 44.106C80.2975 44.106 81.0815 45.058 81.0815 46.374C81.0815 47.718 80.2695 48.67 78.9395 48.67C77.6515 48.67 76.8535 47.662 76.8535 46.374ZM85.6547 49.986V46.262C85.6547 45.086 86.3407 44.162 87.6147 44.162C88.5947 44.162 89.2527 44.722 89.2527 46.108V50H90.5687V45.814C90.5687 44.064 89.7287 42.958 87.9787 42.958C86.9147 42.958 86.0887 43.462 85.6547 44.204V39.696H84.3387V49.986H85.6547ZM93.7354 50V39.696H92.4194V50H93.7354ZM95.0146 53.066C95.3646 53.15 95.7286 53.206 96.1626 53.206C97.2126 53.206 97.8986 52.716 98.3606 51.54L101.595 43.154H100.237L98.2066 48.67L96.2186 43.154H94.8326L97.5906 50.364L97.3526 51.022C97.0306 51.89 96.5266 51.988 95.8966 51.988H95.0146V53.066ZM110.393 43.098C110.127 43.042 109.931 43.014 109.693 43.014C108.755 43.014 108.069 43.49 107.789 44.204L107.705 43.168H106.473V50H107.789V46.374C107.789 45.058 108.559 44.302 109.805 44.302H110.393V43.098ZM114.336 50.168C116.03 50.168 117.178 49.342 117.514 47.872H116.282C116.058 48.656 115.386 49.076 114.364 49.076C113.062 49.076 112.306 48.278 112.208 46.836L117.5 46.822V46.332C117.5 44.302 116.226 42.958 114.28 42.958C112.292 42.958 110.934 44.442 110.934 46.584C110.934 48.712 112.32 50.168 114.336 50.168ZM114.28 44.064C115.442 44.064 116.184 44.82 116.184 45.954H112.236C112.404 44.75 113.132 44.064 114.28 44.064ZM118.522 46.584C118.522 48.74 119.852 50.168 121.868 50.168C123.52 50.168 124.794 49.174 125.06 47.69H123.744C123.506 48.502 122.806 48.992 121.868 48.992C120.622 48.992 119.824 48.04 119.824 46.57C119.824 45.086 120.678 44.134 121.924 44.134C122.806 44.134 123.506 44.596 123.73 45.464H125.046C124.808 43.938 123.604 42.958 121.882 42.958C119.88 42.958 118.522 44.442 118.522 46.584ZM126 46.57C126 48.684 127.512 50.168 129.57 50.168C131.614 50.168 133.126 48.684 133.126 46.57C133.126 44.456 131.614 42.972 129.57 42.972C127.512 42.972 126 44.456 126 46.57ZM127.33 46.57C127.33 45.142 128.24 44.148 129.57 44.148C130.886 44.148 131.81 45.142 131.81 46.57C131.81 47.998 130.886 48.992 129.57 48.992C128.24 48.992 127.33 47.998 127.33 46.57ZM135.899 50V45.94C135.899 44.848 136.557 44.162 137.551 44.162C138.475 44.162 139.063 44.75 139.063 45.828V50H140.365V45.94C140.365 44.848 141.023 44.148 142.017 44.148C142.941 44.148 143.543 44.764 143.543 45.842V50H144.831V45.52C144.831 43.938 143.879 42.958 142.311 42.958C141.247 42.958 140.421 43.49 140.099 44.344C139.749 43.49 138.993 42.958 137.929 42.958C136.963 42.958 136.235 43.406 135.885 44.05L135.759 43.154H134.583V50H135.899ZM147.971 50V45.94C147.971 44.848 148.629 44.162 149.623 44.162C150.547 44.162 151.135 44.75 151.135 45.828V50H152.437V45.94C152.437 44.848 153.095 44.148 154.089 44.148C155.013 44.148 155.615 44.764 155.615 45.842V50H156.903V45.52C156.903 43.938 155.951 42.958 154.383 42.958C153.319 42.958 152.493 43.49 152.171 44.344C151.821 43.49 151.065 42.958 150.001 42.958C149.035 42.958 148.307 43.406 147.957 44.05L147.831 43.154H146.655V50H147.971ZM161.681 50.168C163.375 50.168 164.523 49.342 164.859 47.872H163.627C163.403 48.656 162.731 49.076 161.709 49.076C160.407 49.076 159.651 48.278 159.553 46.836L164.845 46.822V46.332C164.845 44.302 163.571 42.958 161.625 42.958C159.637 42.958 158.279 44.442 158.279 46.584C158.279 48.712 159.665 50.168 161.681 50.168ZM161.625 44.064C162.787 44.064 163.529 44.82 163.529 45.954H159.581C159.749 44.75 160.477 44.064 161.625 44.064ZM167.631 50V46.374C167.631 45.044 168.345 44.162 169.577 44.162C170.585 44.162 171.229 44.722 171.229 46.108V50H172.545V45.814C172.545 44.064 171.719 42.958 169.913 42.958C168.947 42.958 168.079 43.42 167.645 44.204L167.505 43.154H166.315V50H167.631ZM177.112 50.168C178.204 50.168 179.128 49.692 179.576 48.754L179.688 50H180.864V39.696H179.562V44.26C179.1 43.42 178.218 42.958 177.168 42.958C175.138 42.958 173.92 44.498 173.92 46.598C173.92 48.684 175.124 50.168 177.112 50.168ZM177.378 48.978C176.034 48.978 175.25 47.97 175.25 46.556C175.25 45.156 176.034 44.148 177.378 44.148C178.722 44.148 179.548 45.156 179.548 46.556C179.548 47.984 178.722 48.978 177.378 48.978ZM188.523 50V44.26H189.867V43.154H188.523V41.012H187.207V43.154H185.863V44.26H187.207V50H188.523ZM192.364 49.986V46.262C192.364 45.086 193.05 44.162 194.324 44.162C195.304 44.162 195.962 44.722 195.962 46.108V50H197.278V45.814C197.278 44.064 196.438 42.958 194.688 42.958C193.624 42.958 192.798 43.462 192.364 44.204V39.696H191.048V49.986H192.364ZM202.054 50.168C203.748 50.168 204.896 49.342 205.232 47.872H204C203.776 48.656 203.104 49.076 202.082 49.076C200.78 49.076 200.024 48.278 199.926 46.836L205.218 46.822V46.332C205.218 44.302 203.944 42.958 201.998 42.958C200.01 42.958 198.652 44.442 198.652 46.584C198.652 48.712 200.038 50.168 202.054 50.168ZM201.998 44.064C203.16 44.064 203.902 44.82 203.902 45.954H199.954C200.122 44.75 200.85 44.064 201.998 44.064ZM212.448 50V44.26H213.792V43.154H212.448V41.012H211.132V43.154H209.788V44.26H211.132V50H212.448ZM217.859 50.168C219.553 50.168 220.701 49.342 221.037 47.872H219.805C219.581 48.656 218.909 49.076 217.887 49.076C216.585 49.076 215.829 48.278 215.731 46.836L221.023 46.822V46.332C221.023 44.302 219.749 42.958 217.803 42.958C215.815 42.958 214.457 44.442 214.457 46.584C214.457 48.712 215.843 50.168 217.859 50.168ZM217.803 44.064C218.965 44.064 219.707 44.82 219.707 45.954H215.759C215.927 44.75 216.655 44.064 217.803 44.064ZM223.809 50V45.94C223.809 44.848 224.467 44.162 225.461 44.162C226.385 44.162 226.973 44.75 226.973 45.828V50H228.275V45.94C228.275 44.848 228.933 44.148 229.927 44.148C230.851 44.148 231.453 44.764 231.453 45.842V50H232.741V45.52C232.741 43.938 231.789 42.958 230.221 42.958C229.157 42.958 228.331 43.49 228.009 44.344C227.659 43.49 226.903 42.958 225.839 42.958C224.873 42.958 224.145 43.406 223.795 44.05L223.669 43.154H222.493V50H223.809ZM234.565 53.066H235.881V48.88C236.329 49.72 237.239 50.182 238.331 50.182C240.361 50.182 241.509 48.614 241.509 46.528C241.509 44.428 240.291 42.958 238.331 42.958C237.239 42.958 236.315 43.448 235.853 44.386L235.755 43.154H234.565V53.066ZM235.895 46.584C235.895 45.156 236.707 44.162 238.051 44.162C239.395 44.162 240.193 45.17 240.193 46.584C240.193 47.984 239.395 48.992 238.051 48.992C236.707 48.992 235.895 47.984 235.895 46.584ZM247.528 43.154V46.766C247.528 48.236 246.87 49.006 245.666 49.006C244.658 49.006 244.028 48.446 244.028 46.976V43.154H242.712V47.41C242.712 49.09 243.608 50.168 245.204 50.168C246.212 50.168 247.122 49.678 247.514 48.964L247.654 50H248.83V43.154H247.528ZM254.659 43.098C254.393 43.042 254.197 43.014 253.959 43.014C253.021 43.014 252.335 43.49 252.055 44.204L251.971 43.168H250.739V50H252.055V46.374C252.055 45.058 252.825 44.302 254.071 44.302H254.659V43.098ZM257.622 50.168C258.728 50.168 259.666 49.678 260.016 48.894L260.156 50H261.276V45.702C261.276 43.854 260.128 42.958 258.434 42.958C256.67 42.958 255.494 43.896 255.494 45.324H256.642C256.642 44.498 257.272 44.008 258.378 44.008C259.302 44.008 259.988 44.414 259.988 45.562V45.758L257.832 45.926C256.222 46.052 255.284 46.836 255.284 48.096C255.284 49.342 256.152 50.168 257.622 50.168ZM258 49.146C257.146 49.146 256.614 48.782 256.614 48.054C256.614 47.382 257.09 46.934 258.252 46.822L260.002 46.682V47.046C260.002 48.334 259.246 49.146 258 49.146ZM268.929 50.168C270.035 50.168 270.973 49.678 271.323 48.894L271.463 50H272.583V45.702C272.583 43.854 271.435 42.958 269.741 42.958C267.977 42.958 266.801 43.896 266.801 45.324H267.949C267.949 44.498 268.579 44.008 269.685 44.008C270.609 44.008 271.295 44.414 271.295 45.562V45.758L269.139 45.926C267.529 46.052 266.591 46.836 266.591 48.096C266.591 49.342 267.459 50.168 268.929 50.168ZM269.307 49.146C268.453 49.146 267.921 48.782 267.921 48.054C267.921 47.382 268.397 46.934 269.559 46.822L271.309 46.682V47.046C271.309 48.334 270.553 49.146 269.307 49.146ZM276.228 50V44.26H277.572V43.154H276.228V41.012H274.912V43.154H273.568V44.26H274.912V50H276.228ZM284.513 50V44.26H285.857V43.154H284.513V41.012H283.197V43.154H281.853V44.26H283.197V50H284.513ZM288.354 49.986V46.262C288.354 45.086 289.04 44.162 290.314 44.162C291.294 44.162 291.952 44.722 291.952 46.108V50H293.268V45.814C293.268 44.064 292.428 42.958 290.678 42.958C289.614 42.958 288.788 43.462 288.354 44.204V39.696H287.038V49.986H288.354ZM295.735 41.53C296.211 41.53 296.603 41.138 296.603 40.662C296.603 40.172 296.211 39.794 295.735 39.794C295.259 39.794 294.867 40.172 294.867 40.662C294.867 41.138 295.259 41.53 295.735 41.53ZM295.091 50H296.407V43.154H295.091V50ZM297.757 48.012C297.757 49.314 298.779 50.168 300.389 50.168C302.013 50.168 303.133 49.342 303.133 48.04C303.133 47.018 302.559 46.486 301.397 46.206L300.193 45.912C299.521 45.744 299.185 45.436 299.185 44.974C299.185 44.344 299.647 43.98 300.473 43.98C301.271 43.98 301.733 44.414 301.761 45.1H303.021C302.993 43.798 302.013 42.958 300.515 42.958C299.003 42.958 297.939 43.756 297.939 45.016C297.939 46.024 298.513 46.626 299.731 46.92L300.935 47.2C301.649 47.382 301.873 47.662 301.873 48.124C301.873 48.754 301.341 49.132 300.417 49.132C299.549 49.132 299.017 48.712 299.017 48.012H297.757ZM54.8719 63.098C54.6059 63.042 54.4099 63.014 54.1719 63.014C53.2339 63.014 52.5479 63.49 52.2679 64.204L52.1839 63.168H50.9519V70H52.2679V66.374C52.2679 65.058 53.0379 64.302 54.2839 64.302H54.8719V63.098ZM58.8141 70.168C60.5081 70.168 61.6561 69.342 61.9921 67.872H60.7601C60.5361 68.656 59.8641 69.076 58.8421 69.076C57.5401 69.076 56.7841 68.278 56.6861 66.836L61.9781 66.822V66.332C61.9781 64.302 60.7041 62.958 58.7581 62.958C56.7701 62.958 55.4121 64.442 55.4121 66.584C55.4121 68.712 56.7981 70.168 58.8141 70.168ZM58.7581 64.064C59.9201 64.064 60.6621 64.82 60.6621 65.954H56.7141C56.8821 64.75 57.6101 64.064 58.7581 64.064ZM62.888 68.012C62.888 69.314 63.91 70.168 65.52 70.168C67.144 70.168 68.264 69.342 68.264 68.04C68.264 67.018 67.69 66.486 66.528 66.206L65.324 65.912C64.652 65.744 64.316 65.436 64.316 64.974C64.316 64.344 64.778 63.98 65.604 63.98C66.402 63.98 66.864 64.414 66.892 65.1H68.152C68.124 63.798 67.144 62.958 65.646 62.958C64.134 62.958 63.07 63.756 63.07 65.016C63.07 66.024 63.644 66.626 64.862 66.92L66.066 67.2C66.78 67.382 67.004 67.662 67.004 68.124C67.004 68.754 66.472 69.132 65.548 69.132C64.68 69.132 64.148 68.712 64.148 68.012H62.888ZM71.6554 70V64.26H72.9994V63.154H71.6554V61.012H70.3394V63.154H68.9954V64.26H70.3394V70H71.6554ZM76.1004 70.168C77.2064 70.168 78.1444 69.678 78.4944 68.894L78.6344 70H79.7544V65.702C79.7544 63.854 78.6064 62.958 76.9124 62.958C75.1484 62.958 73.9724 63.896 73.9724 65.324H75.1204C75.1204 64.498 75.7504 64.008 76.8564 64.008C77.7804 64.008 78.4664 64.414 78.4664 65.562V65.758L76.3104 65.926C74.7004 66.052 73.7624 66.836 73.7624 68.096C73.7624 69.342 74.6304 70.168 76.1004 70.168ZM76.4784 69.146C75.6244 69.146 75.0924 68.782 75.0924 68.054C75.0924 67.382 75.5684 66.934 76.7304 66.822L78.4804 66.682V67.046C78.4804 68.334 77.7244 69.146 76.4784 69.146ZM86.3089 63.154V66.766C86.3089 68.236 85.6509 69.006 84.4469 69.006C83.4389 69.006 82.8089 68.446 82.8089 66.976V63.154H81.4929V67.41C81.4929 69.09 82.3889 70.168 83.9849 70.168C84.9929 70.168 85.9029 69.678 86.2949 68.964L86.4349 70H87.6109V63.154H86.3089ZM93.4403 63.098C93.1743 63.042 92.9783 63.014 92.7403 63.014C91.8023 63.014 91.1163 63.49 90.8363 64.204L90.7523 63.168H89.5203V70H90.8363V66.374C90.8363 65.058 91.6063 64.302 92.8523 64.302H93.4403V63.098ZM96.4032 70.168C97.5092 70.168 98.4472 69.678 98.7972 68.894L98.9372 70H100.057V65.702C100.057 63.854 98.9092 62.958 97.2152 62.958C95.4512 62.958 94.2752 63.896 94.2752 65.324H95.4232C95.4232 64.498 96.0532 64.008 97.1592 64.008C98.0832 64.008 98.7692 64.414 98.7692 65.562V65.758L96.6132 65.926C95.0032 66.052 94.0652 66.836 94.0652 68.096C94.0652 69.342 94.9332 70.168 96.4032 70.168ZM96.7812 69.146C95.9272 69.146 95.3952 68.782 95.3952 68.054C95.3952 67.382 95.8712 66.934 97.0332 66.822L98.7832 66.682V67.046C98.7832 68.334 98.0272 69.146 96.7812 69.146ZM103.196 70V66.374C103.196 65.044 103.91 64.162 105.142 64.162C106.15 64.162 106.794 64.722 106.794 66.108V70H108.11V65.814C108.11 64.064 107.284 62.958 105.478 62.958C104.512 62.958 103.644 63.42 103.21 64.204L103.07 63.154H101.88V70H103.196ZM111.864 70V64.26H113.208V63.154H111.864V61.012H110.548V63.154H109.204V64.26H110.548V70H111.864ZM115.94 69.454C115.94 68.684 115.464 68.194 114.876 68.194C114.316 68.194 113.938 68.6 113.938 69.16C113.938 69.678 114.33 70.014 114.792 70.014C114.96 70.014 115.072 69.986 115.17 69.93C115.17 70.364 114.764 70.742 114.19 70.84V71.428C115.184 71.302 115.94 70.462 115.94 69.454ZM122.307 61.53C122.783 61.53 123.175 61.138 123.175 60.662C123.175 60.172 122.783 59.794 122.307 59.794C121.831 59.794 121.439 60.172 121.439 60.662C121.439 61.138 121.831 61.53 122.307 61.53ZM121.663 70H122.979V63.154H121.663V70ZM126.821 70V64.26H128.165V63.154H126.821V61.012H125.505V63.154H124.161V64.26H125.505V70H126.821ZM134.645 70H135.947L137.137 66.346C137.389 65.52 137.515 65.072 137.585 64.736C137.655 65.114 137.795 65.646 138.019 66.332L139.209 70H140.455L142.793 63.154H141.421L140.273 66.71C140.077 67.312 139.951 67.788 139.839 68.334C139.727 67.844 139.503 67.046 139.391 66.71L138.257 63.154H136.913L135.765 66.71C135.611 67.158 135.429 67.732 135.317 68.334C135.191 67.732 135.051 67.214 134.897 66.71L133.763 63.154H132.405L134.645 70ZM145.608 70.168C146.714 70.168 147.652 69.678 148.002 68.894L148.142 70H149.262V65.702C149.262 63.854 148.114 62.958 146.42 62.958C144.656 62.958 143.48 63.896 143.48 65.324H144.628C144.628 64.498 145.258 64.008 146.364 64.008C147.288 64.008 147.974 64.414 147.974 65.562V65.758L145.818 65.926C144.208 66.052 143.27 66.836 143.27 68.096C143.27 69.342 144.138 70.168 145.608 70.168ZM145.986 69.146C145.132 69.146 144.6 68.782 144.6 68.054C144.6 67.382 145.076 66.934 146.238 66.822L147.988 66.682V67.046C147.988 68.334 147.232 69.146 145.986 69.146ZM150.525 68.012C150.525 69.314 151.547 70.168 153.157 70.168C154.781 70.168 155.901 69.342 155.901 68.04C155.901 67.018 155.327 66.486 154.165 66.206L152.961 65.912C152.289 65.744 151.953 65.436 151.953 64.974C151.953 64.344 152.415 63.98 153.241 63.98C154.039 63.98 154.501 64.414 154.529 65.1H155.789C155.761 63.798 154.781 62.958 153.283 62.958C151.771 62.958 150.707 63.756 150.707 65.016C150.707 66.024 151.281 66.626 152.499 66.92L153.703 67.2C154.417 67.382 154.641 67.662 154.641 68.124C154.641 68.754 154.109 69.132 153.185 69.132C152.317 69.132 151.785 68.712 151.785 68.012H150.525ZM160.74 66.584C160.74 68.74 162.07 70.168 164.086 70.168C165.738 70.168 167.012 69.174 167.278 67.69H165.962C165.724 68.502 165.024 68.992 164.086 68.992C162.84 68.992 162.042 68.04 162.042 66.57C162.042 65.086 162.896 64.134 164.142 64.134C165.024 64.134 165.724 64.596 165.948 65.464H167.264C167.026 63.938 165.822 62.958 164.1 62.958C162.098 62.958 160.74 64.442 160.74 66.584ZM172.587 63.098C172.321 63.042 172.125 63.014 171.887 63.014C170.949 63.014 170.263 63.49 169.983 64.204L169.899 63.168H168.667V70H169.983V66.374C169.983 65.058 170.753 64.302 171.999 64.302H172.587V63.098ZM174.465 61.53C174.941 61.53 175.333 61.138 175.333 60.662C175.333 60.172 174.941 59.794 174.465 59.794C173.989 59.794 173.597 60.172 173.597 60.662C173.597 61.138 173.989 61.53 174.465 61.53ZM173.821 70H175.137V63.154H173.821V70ZM176.488 68.012C176.488 69.314 177.51 70.168 179.12 70.168C180.744 70.168 181.864 69.342 181.864 68.04C181.864 67.018 181.29 66.486 180.128 66.206L178.924 65.912C178.252 65.744 177.916 65.436 177.916 64.974C177.916 64.344 178.378 63.98 179.204 63.98C180.002 63.98 180.464 64.414 180.492 65.1H181.752C181.724 63.798 180.744 62.958 179.246 62.958C177.734 62.958 176.67 63.756 176.67 65.016C176.67 66.024 177.244 66.626 178.462 66.92L179.666 67.2C180.38 67.382 180.604 67.662 180.604 68.124C180.604 68.754 180.072 69.132 179.148 69.132C178.28 69.132 177.748 68.712 177.748 68.012H176.488ZM183.323 73.066H184.639V68.88C185.087 69.72 185.997 70.182 187.089 70.182C189.119 70.182 190.267 68.614 190.267 66.528C190.267 64.428 189.049 62.958 187.089 62.958C185.997 62.958 185.073 63.448 184.611 64.386L184.513 63.154H183.323V73.066ZM184.653 66.584C184.653 65.156 185.465 64.162 186.809 64.162C188.153 64.162 188.951 65.17 188.951 66.584C188.951 67.984 188.153 68.992 186.809 68.992C185.465 68.992 184.653 67.984 184.653 66.584ZM190.827 73.066C191.177 73.15 191.541 73.206 191.975 73.206C193.025 73.206 193.711 72.716 194.173 71.54L197.407 63.154H196.049L194.019 68.67L192.031 63.154H190.645L193.403 70.364L193.165 71.022C192.843 71.89 192.339 71.988 191.709 71.988H190.827V73.066ZM204.288 70.168C205.394 70.168 206.332 69.678 206.682 68.894L206.822 70H207.942V65.702C207.942 63.854 206.794 62.958 205.1 62.958C203.336 62.958 202.16 63.896 202.16 65.324H203.308C203.308 64.498 203.938 64.008 205.044 64.008C205.968 64.008 206.654 64.414 206.654 65.562V65.758L204.498 65.926C202.888 66.052 201.95 66.836 201.95 68.096C201.95 69.342 202.818 70.168 204.288 70.168ZM204.666 69.146C203.812 69.146 203.28 68.782 203.28 68.054C203.28 67.382 203.756 66.934 204.918 66.822L206.668 66.682V67.046C206.668 68.334 205.912 69.146 204.666 69.146ZM211.08 70V66.374C211.08 65.044 211.794 64.162 213.026 64.162C214.034 64.162 214.678 64.722 214.678 66.108V70H215.994V65.814C215.994 64.064 215.168 62.958 213.362 62.958C212.396 62.958 211.528 63.42 211.094 64.204L210.954 63.154H209.764V70H211.08ZM220.561 70.168C221.653 70.168 222.577 69.692 223.025 68.754L223.137 70H224.313V59.696H223.011V64.26C222.549 63.42 221.667 62.958 220.617 62.958C218.587 62.958 217.369 64.498 217.369 66.598C217.369 68.684 218.573 70.168 220.561 70.168ZM220.827 68.978C219.483 68.978 218.699 67.97 218.699 66.556C218.699 65.156 219.483 64.148 220.827 64.148C222.171 64.148 222.997 65.156 222.997 66.556C222.997 67.984 222.171 68.978 220.827 68.978ZM230.04 73.066H231.356V68.88C231.804 69.72 232.714 70.182 233.806 70.182C235.836 70.182 236.984 68.614 236.984 66.528C236.984 64.428 235.766 62.958 233.806 62.958C232.714 62.958 231.79 63.448 231.328 64.386L231.23 63.154H230.04V73.066ZM231.37 66.584C231.37 65.156 232.182 64.162 233.526 64.162C234.87 64.162 235.668 65.17 235.668 66.584C235.668 67.984 234.87 68.992 233.526 68.992C232.182 68.992 231.37 67.984 231.37 66.584ZM241.388 70.168C243.082 70.168 244.23 69.342 244.566 67.872H243.334C243.11 68.656 242.438 69.076 241.416 69.076C240.114 69.076 239.358 68.278 239.26 66.836L244.552 66.822V66.332C244.552 64.302 243.278 62.958 241.332 62.958C239.344 62.958 237.986 64.442 237.986 66.584C237.986 68.712 239.372 70.168 241.388 70.168ZM241.332 64.064C242.494 64.064 243.236 64.82 243.236 65.954H239.288C239.456 64.75 240.184 64.064 241.332 64.064ZM249.942 63.098C249.676 63.042 249.48 63.014 249.242 63.014C248.304 63.014 247.618 63.49 247.338 64.204L247.254 63.168H246.022V70H247.338V66.374C247.338 65.058 248.108 64.302 249.354 64.302H249.942V63.098ZM250.722 63.154V64.26H251.73V70H253.046V64.26H254.67V63.154H253.046V62.062C253.046 61.32 253.27 60.886 254.124 60.886H254.712V59.752C254.446 59.71 254.152 59.696 253.9 59.696C252.654 59.696 251.73 60.382 251.73 62.062V63.154H250.722ZM258.642 70.168C260.336 70.168 261.484 69.342 261.82 67.872H260.588C260.364 68.656 259.692 69.076 258.67 69.076C257.368 69.076 256.612 68.278 256.514 66.836L261.806 66.822V66.332C261.806 64.302 260.532 62.958 258.586 62.958C256.598 62.958 255.24 64.442 255.24 66.584C255.24 68.712 256.626 70.168 258.642 70.168ZM258.586 64.064C259.748 64.064 260.49 64.82 260.49 65.954H256.542C256.71 64.75 257.438 64.064 258.586 64.064ZM262.828 66.584C262.828 68.74 264.158 70.168 266.174 70.168C267.826 70.168 269.1 69.174 269.366 67.69H268.05C267.812 68.502 267.112 68.992 266.174 68.992C264.928 68.992 264.13 68.04 264.13 66.57C264.13 65.086 264.984 64.134 266.23 64.134C267.112 64.134 267.812 64.596 268.036 65.464H269.352C269.114 63.938 267.91 62.958 266.188 62.958C264.186 62.958 262.828 64.442 262.828 66.584ZM272.687 70V64.26H274.031V63.154H272.687V61.012H271.371V63.154H270.027V64.26H271.371V70H272.687ZM276.556 70V59.696H275.24V70H276.556ZM277.835 73.066C278.185 73.15 278.549 73.206 278.983 73.206C280.033 73.206 280.719 72.716 281.181 71.54L284.415 63.154H283.057L281.027 68.67L279.039 63.154H277.653L280.411 70.364L280.173 71.022C279.851 71.89 279.347 71.988 278.717 71.988H277.835V73.066ZM50.3919 88.012C50.3919 89.314 51.4139 90.168 53.0239 90.168C54.6479 90.168 55.7679 89.342 55.7679 88.04C55.7679 87.018 55.1939 86.486 54.0319 86.206L52.8279 85.912C52.1559 85.744 51.8199 85.436 51.8199 84.974C51.8199 84.344 52.2819 83.98 53.1079 83.98C53.9059 83.98 54.3679 84.414 54.3959 85.1H55.6559C55.6279 83.798 54.6479 82.958 53.1499 82.958C51.6379 82.958 50.5739 83.756 50.5739 85.016C50.5739 86.024 51.1479 86.626 52.3659 86.92L53.5699 87.2C54.2839 87.382 54.5079 87.662 54.5079 88.124C54.5079 88.754 53.9759 89.132 53.0519 89.132C52.1839 89.132 51.6519 88.712 51.6519 88.012H50.3919ZM60.1813 90.168C61.8753 90.168 63.0233 89.342 63.3593 87.872H62.1273C61.9033 88.656 61.2313 89.076 60.2093 89.076C58.9073 89.076 58.1513 88.278 58.0533 86.836L63.3453 86.822V86.332C63.3453 84.302 62.0713 82.958 60.1253 82.958C58.1373 82.958 56.7793 84.442 56.7793 86.584C56.7793 88.712 58.1653 90.168 60.1813 90.168ZM60.1253 84.064C61.2873 84.064 62.0293 84.82 62.0293 85.954H58.0813C58.2493 84.75 58.9773 84.064 60.1253 84.064ZM66.7489 90.168C67.8549 90.168 68.7929 89.678 69.1429 88.894L69.2829 90H70.4029V85.702C70.4029 83.854 69.2549 82.958 67.5609 82.958C65.7969 82.958 64.6209 83.896 64.6209 85.324H65.7689C65.7689 84.498 66.3989 84.008 67.5049 84.008C68.4289 84.008 69.1149 84.414 69.1149 85.562V85.758L66.9589 85.926C65.3489 86.052 64.4109 86.836 64.4109 88.096C64.4109 89.342 65.2789 90.168 66.7489 90.168ZM67.1269 89.146C66.2729 89.146 65.7409 88.782 65.7409 88.054C65.7409 87.382 66.2169 86.934 67.3789 86.822L69.1289 86.682V87.046C69.1289 88.334 68.3729 89.146 67.1269 89.146ZM71.6654 88.012C71.6654 89.314 72.6874 90.168 74.2974 90.168C75.9214 90.168 77.0414 89.342 77.0414 88.04C77.0414 87.018 76.4674 86.486 75.3054 86.206L74.1014 85.912C73.4294 85.744 73.0934 85.436 73.0934 84.974C73.0934 84.344 73.5554 83.98 74.3814 83.98C75.1794 83.98 75.6414 84.414 75.6694 85.1H76.9294C76.9014 83.798 75.9214 82.958 74.4234 82.958C72.9114 82.958 71.8474 83.756 71.8474 85.016C71.8474 86.024 72.4214 86.626 73.6394 86.92L74.8434 87.2C75.5574 87.382 75.7814 87.662 75.7814 88.124C75.7814 88.754 75.2494 89.132 74.3254 89.132C73.4574 89.132 72.9254 88.712 72.9254 88.012H71.6654ZM78.0528 86.57C78.0528 88.684 79.5648 90.168 81.6228 90.168C83.6668 90.168 85.1788 88.684 85.1788 86.57C85.1788 84.456 83.6668 82.972 81.6228 82.972C79.5648 82.972 78.0528 84.456 78.0528 86.57ZM79.3828 86.57C79.3828 85.142 80.2928 84.148 81.6228 84.148C82.9388 84.148 83.8628 85.142 83.8628 86.57C83.8628 87.998 82.9388 88.992 81.6228 88.992C80.2928 88.992 79.3828 87.998 79.3828 86.57ZM87.9515 90V86.374C87.9515 85.044 88.6655 84.162 89.8975 84.162C90.9055 84.162 91.5495 84.722 91.5495 86.108V90H92.8655V85.814C92.8655 84.064 92.0395 82.958 90.2335 82.958C89.2675 82.958 88.3995 83.42 87.9655 84.204L87.8255 83.154H86.6355V90H87.9515ZM97.6423 90.168C99.3363 90.168 100.484 89.342 100.82 87.872H99.5883C99.3643 88.656 98.6923 89.076 97.6703 89.076C96.3683 89.076 95.6123 88.278 95.5143 86.836L100.806 86.822V86.332C100.806 84.302 99.5323 82.958 97.5863 82.958C95.5983 82.958 94.2403 84.442 94.2403 86.584C94.2403 88.712 95.6263 90.168 97.6423 90.168ZM97.5863 84.064C98.7483 84.064 99.4903 84.82 99.4903 85.954H95.5423C95.7103 84.75 96.4383 84.064 97.5863 84.064ZM105.02 90.168C106.112 90.168 107.036 89.692 107.484 88.754L107.596 90H108.772V79.696H107.47V84.26C107.008 83.42 106.126 82.958 105.076 82.958C103.046 82.958 101.828 84.498 101.828 86.598C101.828 88.684 103.032 90.168 105.02 90.168ZM105.286 88.978C103.942 88.978 103.158 87.97 103.158 86.556C103.158 85.156 103.942 84.148 105.286 84.148C106.63 84.148 107.456 85.156 107.456 86.556C107.456 87.984 106.63 88.978 105.286 88.978ZM111.651 90.168C112.183 90.168 112.645 89.72 112.645 89.188C112.645 88.642 112.183 88.194 111.651 88.194C111.105 88.194 110.643 88.642 110.643 89.188C110.643 89.72 111.105 90.168 111.651 90.168ZM115.144 80.9C115.144 80.144 114.696 79.682 114.136 79.682C113.576 79.682 113.212 80.074 113.212 80.606C113.212 81.152 113.576 81.46 113.996 81.46C114.164 81.46 114.29 81.432 114.388 81.376C114.388 81.824 113.996 82.188 113.45 82.286V82.874C114.43 82.748 115.144 81.922 115.144 80.9ZM117.65 80.9C117.65 80.144 117.202 79.682 116.628 79.682C116.082 79.682 115.704 80.074 115.704 80.606C115.704 81.152 116.068 81.46 116.502 81.46C116.67 81.46 116.782 81.432 116.88 81.376C116.88 81.824 116.488 82.188 115.942 82.286V82.874C116.936 82.748 117.65 81.922 117.65 80.9Z" fill="#333F72"/>
<path d="M50.8399 114.85H54.9979L55.1799 113.73H51.0079L50.8399 114.85ZM61.598 118L62.298 113.604C62.508 112.33 62.648 111.182 62.662 110.636L64.412 118H65.672L69.732 110.608C69.592 111.196 69.41 112.134 69.172 113.59L68.472 118H69.76L71.37 107.878H69.998L65.238 116.446L63.152 107.878H61.906L60.31 118H61.598ZM73.8861 118.168C74.9501 118.168 75.9161 117.678 76.3781 116.88L76.3221 118H77.4141L78.1001 113.688C78.3661 112.022 77.3861 110.972 75.5661 110.972C73.8581 110.972 72.7521 111.826 72.5141 113.324H73.6761C73.8161 112.442 74.4181 111.994 75.4541 111.994C76.5321 111.994 77.0501 112.554 76.8681 113.576L76.8401 113.758L74.6981 113.926C72.8921 114.08 71.8561 114.948 71.8561 116.334C71.8561 117.44 72.6681 118.168 73.8861 118.168ZM74.3341 117.174C73.5781 117.174 73.1301 116.81 73.1301 116.222C73.1301 115.41 73.7321 114.906 74.9641 114.808L76.7141 114.668L76.6581 115.032C76.4621 116.348 75.5661 117.174 74.3341 117.174ZM84.1399 111.098C83.9159 111.042 83.6779 111.014 83.4399 111.014C82.5439 111.014 81.8019 111.504 81.3959 112.232L81.4799 111.154H80.3319L79.2399 118H80.4999L81.0879 114.332C81.2839 113.016 82.1939 112.26 83.3839 112.26H83.9579L84.1399 111.098ZM86.3926 118L87.3166 112.218H88.6326L88.8006 111.154H87.4846L87.8206 109.012H86.5606L86.2246 111.154H84.9086L84.7406 112.218H86.0566L85.1466 118H86.3926ZM90.1246 118L90.6986 114.388C90.9226 112.96 91.7626 112.106 92.9246 112.106C94.0026 112.106 94.5206 112.82 94.3106 114.108L93.6946 118H94.9406L95.6126 113.814C95.8646 112.162 94.9126 110.958 93.3586 110.958C92.3786 110.958 91.6646 111.364 91.0486 112.246L91.7626 107.696H90.5026L88.8786 118H90.1246ZM98.7553 118.168C99.8193 118.168 100.785 117.678 101.247 116.88L101.191 118H102.283L102.969 113.688C103.235 112.022 102.255 110.972 100.435 110.972C98.7273 110.972 97.6213 111.826 97.3833 113.324H98.5453C98.6853 112.442 99.2873 111.994 100.323 111.994C101.401 111.994 101.919 112.554 101.737 113.576L101.709 113.758L99.5673 113.926C97.7613 114.08 96.7253 114.948 96.7253 116.334C96.7253 117.44 97.5373 118.168 98.7553 118.168ZM99.2033 117.174C98.4473 117.174 97.9993 116.81 97.9993 116.222C97.9993 115.41 98.6013 114.906 99.8333 114.808L101.583 114.668L101.527 115.032C101.331 116.348 100.435 117.174 99.2033 117.174ZM106.125 117.188C106.125 116.6 105.775 116.222 105.285 116.222C104.697 116.222 104.207 116.726 104.207 117.328C104.207 117.734 104.515 118.014 104.921 118.014C105.089 118.014 105.201 117.986 105.299 117.93C105.243 118.336 104.781 118.714 104.207 118.84L104.109 119.414C105.201 119.26 106.125 118.238 106.125 117.188ZM116.29 118.154C118.544 118.154 120.154 117.02 120.966 114.794H119.51C118.88 116.236 117.844 116.866 116.332 116.866C114.554 116.866 113.448 115.592 113.448 113.632C113.448 110.958 115.03 108.984 117.354 108.984C118.768 108.984 119.846 109.782 120.028 111.14H121.414C121.302 109.124 119.734 107.71 117.466 107.71C114.358 107.71 112.062 110.216 112.062 113.688C112.062 116.334 113.686 118.154 116.29 118.154ZM123.101 118L123.675 114.388C123.899 112.96 124.739 112.106 125.901 112.106C126.979 112.106 127.497 112.82 127.287 114.108L126.671 118H127.917L128.589 113.814C128.841 112.162 127.889 110.958 126.335 110.958C125.355 110.958 124.641 111.364 124.025 112.246L124.739 107.696H123.479L121.855 118H123.101ZM132.796 118.168C134.294 118.168 135.596 117.286 136.058 115.886H134.798C134.49 116.656 133.734 117.104 132.838 117.104C131.704 117.104 131.018 116.32 131.018 115.046C131.018 114.962 131.018 114.892 131.018 114.822L136.226 114.808L136.296 114.332C136.604 112.372 135.47 110.972 133.524 110.972C131.41 110.972 129.786 112.778 129.786 115.116C129.786 116.964 130.976 118.168 132.796 118.168ZM133.468 112.036C134.602 112.036 135.274 112.806 135.092 113.968H131.172C131.508 112.82 132.39 112.036 133.468 112.036ZM137.532 111.154L137.364 112.218H138.358L137.448 118H138.694L139.604 112.218H141.2L141.368 111.154H139.772L139.954 110.048C140.08 109.18 140.458 108.83 141.2 108.83C141.424 108.83 141.592 108.844 141.774 108.844L141.942 107.752C141.732 107.71 141.438 107.696 141.172 107.696C139.8 107.696 138.946 108.508 138.708 110.048L138.526 111.154H137.532ZM142.684 117.188C142.684 116.6 142.334 116.222 141.844 116.222C141.256 116.222 140.766 116.726 140.766 117.328C140.766 117.734 141.074 118.014 141.48 118.014C141.648 118.014 141.76 117.986 141.858 117.93C141.802 118.336 141.34 118.714 140.766 118.84L140.668 119.414C141.76 119.26 142.684 118.238 142.684 117.188ZM149.769 118L151.015 110.09L154.865 118H156.167L157.777 107.878H156.461L155.215 115.788L151.365 107.878H150.049L148.453 118H149.769ZM158.333 115.06C158.333 116.908 159.607 118.168 161.469 118.168C163.667 118.168 165.417 116.348 165.417 114.08C165.417 112.232 164.157 110.972 162.295 110.972C160.097 110.972 158.333 112.792 158.333 115.06ZM159.621 114.976C159.621 113.38 160.783 112.092 162.197 112.092C163.401 112.092 164.143 112.904 164.143 114.164C164.143 115.76 162.981 117.048 161.567 117.048C160.363 117.048 159.621 116.25 159.621 114.976ZM167.451 118L167.731 116.74C168.053 117.622 168.949 118.168 170.055 118.168C172.113 118.168 173.667 116.418 173.667 114.01C173.667 112.218 172.533 110.972 170.923 110.972C169.859 110.972 169.033 111.448 168.445 112.358L169.173 107.696H167.913L166.289 118H167.451ZM168.067 115.102C168.067 113.408 169.173 112.092 170.601 112.092C171.707 112.092 172.407 112.876 172.407 114.08C172.407 115.76 171.315 117.048 169.887 117.048C168.725 117.048 168.067 116.32 168.067 115.102ZM180.095 111.154L179.521 114.78C179.297 116.18 178.499 117.034 177.337 117.034C176.329 117.034 175.825 116.32 176.021 115.032L176.651 111.154H175.391L174.733 115.326C174.467 116.978 175.391 118.168 176.903 118.168C177.883 118.168 178.569 117.762 179.185 116.908L179.129 118H180.263L181.341 111.154H180.095Z" fill="#333F72"/>
</svg>
