<svg width="404" height="158" viewBox="0 0 404 158" fill="none" xmlns="http://www.w3.org/2000/svg">
<mask id="path-1-inside-1_1_2554" fill="white">
<path fill-rule="evenodd" clip-rule="evenodd" d="M134.654 144.434C143.79 152.323 158.989 156.117 173.704 155.997C181.04 155.938 188.197 154.905 194.345 152.957C200.504 151.005 205.576 148.159 208.827 144.524C209.03 144.298 209.324 144.176 209.628 144.193C209.931 144.21 210.211 144.364 210.387 144.611C212.281 147.272 216.038 149.593 220.976 151.305C225.882 153.006 231.816 154.059 237.887 154.281C243.959 154.504 250.125 153.896 255.5 152.308C260.884 150.717 265.397 148.167 268.273 144.567C268.513 144.267 268.904 144.13 269.278 144.217C282.304 147.215 301.648 149.719 317.392 147.544C325.27 146.455 332.128 144.211 336.855 140.382C341.524 136.599 344.19 131.213 343.628 123.579C343.605 123.267 343.729 122.963 343.963 122.756C344.196 122.55 344.513 122.464 344.82 122.524C363.723 126.269 377.643 119.918 386.863 110.837C396.139 101.7 400.616 89.8438 400.616 82.7261C400.616 82.6404 400.628 82.5551 400.649 82.4722C401.862 77.8512 400.747 69.6716 395.779 62.3453C390.851 55.0792 382.144 48.6819 368.212 47.5816C367.822 47.5508 367.486 47.2956 367.352 46.9283C362.125 32.645 350.446 24.7426 338.065 20.4454C325.675 16.1452 312.701 15.5028 305.156 15.6753C304.974 15.6795 304.793 15.6337 304.635 15.5428C289.875 7.0654 278.079 3.51986 265.96 3.05399C253.802 2.5866 241.249 5.21323 224.925 9.22139C224.742 9.26638 224.549 9.25861 224.37 9.19899C211.929 5.05495 201.271 2.35711 190.65 2.0329C180.049 1.70932 169.429 3.74962 157.076 9.16607C156.87 9.25625 156.64 9.27457 156.423 9.21808C137.763 4.36847 125.054 2.14022 113.686 2.7157C102.347 3.28972 92.2601 6.65833 78.8563 13.1657C78.7154 13.234 78.5605 13.2684 78.404 13.266C64.0916 13.0437 53.8311 14.4281 47.1716 17.9556C43.869 19.705 41.4687 21.9733 39.8842 24.8334C38.2954 27.7013 37.4896 31.2318 37.4896 35.558C37.4896 36.0315 37.1576 36.44 36.6942 36.5369C22.5306 39.4981 13.9999 44.3543 10.0125 49.9351C6.09944 55.4118 6.41983 61.8041 10.5217 68.3592C10.7405 68.7089 10.7221 69.1571 10.4755 69.4877C5.00269 76.8231 1.71935 82.2536 2.01883 87.6915C2.31541 93.0767 6.16987 98.8283 16.142 106.655C16.4395 106.889 16.5798 107.27 16.5046 107.641C15.7192 111.51 15.9839 114.659 17.0735 117.215C18.1612 119.766 20.1124 121.825 22.8756 123.446C28.4532 126.718 37.2066 128.128 48.1909 128.128C48.7432 128.128 49.1909 128.575 49.1909 129.128C49.1909 131.339 49.943 133.074 51.2904 134.443C52.6612 135.836 54.7011 136.901 57.3403 137.628C62.6296 139.086 70.0303 139.104 78.2876 138.006C78.5733 137.968 78.8615 138.055 79.0784 138.245C79.2952 138.434 79.4195 138.709 79.4195 138.997C79.4195 139.259 79.6091 139.784 80.3301 140.545C81.0199 141.274 82.0759 142.089 83.4854 142.921C86.2984 144.582 90.3942 146.237 95.4267 147.384C105.484 149.677 119.173 149.92 133.636 144.26C133.982 144.125 134.374 144.192 134.654 144.434ZM194.949 154.864C200.84 152.997 205.944 150.286 209.506 146.717C211.878 149.434 215.753 151.611 220.321 153.195C225.441 154.97 231.574 156.051 237.814 156.28C244.053 156.509 250.442 155.888 256.067 154.226C261.453 152.634 266.212 150.066 269.432 146.303C282.564 149.267 301.826 151.713 317.666 149.525C325.703 148.414 332.979 146.096 338.114 141.936C343.032 137.951 345.916 132.332 345.69 124.722C364.669 128.086 378.828 121.558 388.266 112.261C397.804 102.867 402.564 90.6028 402.616 82.8542C403.95 77.5569 402.619 68.8677 397.434 61.2228C392.245 53.5707 383.182 46.9336 369.006 45.6419C363.395 30.9746 351.261 22.9086 338.72 18.5559C326.171 14.2003 313.098 13.5166 305.389 13.6699C290.53 5.17054 278.483 1.53393 266.037 1.05547C253.635 0.578694 240.905 3.24367 224.728 7.2103C212.342 3.09725 201.545 0.364522 190.711 0.0338336C179.87 -0.297084 169.047 1.77825 156.591 7.19545C138.081 2.39751 125.207 0.129933 113.585 0.718267C101.927 1.30845 91.609 4.76758 78.197 11.2626C63.9596 11.0584 53.334 12.4282 46.2354 16.1883C42.6393 18.0932 39.9325 20.6192 38.1348 23.8642C36.4484 26.9081 35.5947 30.5252 35.4987 34.7467C21.611 37.7616 12.7279 42.6943 8.38517 48.7724C4.01098 54.8945 4.38487 61.96 8.46897 68.8343C3.2803 75.8367 -0.314733 81.6897 0.0218602 87.8015C0.364422 94.0217 4.73579 100.158 14.4283 107.851C13.7265 111.755 14.011 115.131 15.2337 117.999C16.5214 121.02 18.8079 123.379 21.8636 125.171C27.7485 128.623 36.6032 130.045 47.2348 130.124C47.4398 132.403 48.3556 134.312 49.8649 135.846C50.1312 136.116 50.4146 136.374 50.7142 136.619C49.7368 138.855 46.2515 143.862 39.2441 151.315C38.5327 152.071 37.785 152.853 37 153.66C37.4011 153.32 38.0711 152.996 39.0186 152.537C39.2748 152.413 39.5513 152.279 39.8482 152.132C43.0153 150.568 48.5097 147.548 56.5371 139.48C56.6273 139.506 56.7179 139.531 56.809 139.556C62.2746 141.062 69.637 141.099 77.6444 140.105C77.899 140.748 78.3479 141.361 78.878 141.921C79.7374 142.828 80.9602 143.753 82.4685 144.643C85.4912 146.428 89.7878 148.15 94.9821 149.334C105.248 151.674 119.128 151.941 133.807 146.338C143.493 154.401 158.994 158.117 173.72 157.997C181.222 157.936 188.582 156.881 194.949 154.864ZM51.5344 137.232C52.6723 138.009 53.9953 138.64 55.4611 139.142C50.0678 144.511 45.8723 147.537 42.8095 149.382C42.495 149.571 42.192 149.748 41.9004 149.915C44.9143 146.597 47.1688 143.825 48.7676 141.634C49.8995 140.082 50.7146 138.806 51.2385 137.822C51.3482 137.616 51.447 137.419 51.5344 137.232Z"/>
</mask>
<path fill-rule="evenodd" clip-rule="evenodd" d="M134.654 144.434C143.79 152.323 158.989 156.117 173.704 155.997C181.04 155.938 188.197 154.905 194.345 152.957C200.504 151.005 205.576 148.159 208.827 144.524C209.03 144.298 209.324 144.176 209.628 144.193C209.931 144.21 210.211 144.364 210.387 144.611C212.281 147.272 216.038 149.593 220.976 151.305C225.882 153.006 231.816 154.059 237.887 154.281C243.959 154.504 250.125 153.896 255.5 152.308C260.884 150.717 265.397 148.167 268.273 144.567C268.513 144.267 268.904 144.13 269.278 144.217C282.304 147.215 301.648 149.719 317.392 147.544C325.27 146.455 332.128 144.211 336.855 140.382C341.524 136.599 344.19 131.213 343.628 123.579C343.605 123.267 343.729 122.963 343.963 122.756C344.196 122.55 344.513 122.464 344.82 122.524C363.723 126.269 377.643 119.918 386.863 110.837C396.139 101.7 400.616 89.8438 400.616 82.7261C400.616 82.6404 400.628 82.5551 400.649 82.4722C401.862 77.8512 400.747 69.6716 395.779 62.3453C390.851 55.0792 382.144 48.6819 368.212 47.5816C367.822 47.5508 367.486 47.2956 367.352 46.9283C362.125 32.645 350.446 24.7426 338.065 20.4454C325.675 16.1452 312.701 15.5028 305.156 15.6753C304.974 15.6795 304.793 15.6337 304.635 15.5428C289.875 7.0654 278.079 3.51986 265.96 3.05399C253.802 2.5866 241.249 5.21323 224.925 9.22139C224.742 9.26638 224.549 9.25861 224.37 9.19899C211.929 5.05495 201.271 2.35711 190.65 2.0329C180.049 1.70932 169.429 3.74962 157.076 9.16607C156.87 9.25625 156.64 9.27457 156.423 9.21808C137.763 4.36847 125.054 2.14022 113.686 2.7157C102.347 3.28972 92.2601 6.65833 78.8563 13.1657C78.7154 13.234 78.5605 13.2684 78.404 13.266C64.0916 13.0437 53.8311 14.4281 47.1716 17.9556C43.869 19.705 41.4687 21.9733 39.8842 24.8334C38.2954 27.7013 37.4896 31.2318 37.4896 35.558C37.4896 36.0315 37.1576 36.44 36.6942 36.5369C22.5306 39.4981 13.9999 44.3543 10.0125 49.9351C6.09944 55.4118 6.41983 61.8041 10.5217 68.3592C10.7405 68.7089 10.7221 69.1571 10.4755 69.4877C5.00269 76.8231 1.71935 82.2536 2.01883 87.6915C2.31541 93.0767 6.16987 98.8283 16.142 106.655C16.4395 106.889 16.5798 107.27 16.5046 107.641C15.7192 111.51 15.9839 114.659 17.0735 117.215C18.1612 119.766 20.1124 121.825 22.8756 123.446C28.4532 126.718 37.2066 128.128 48.1909 128.128C48.7432 128.128 49.1909 128.575 49.1909 129.128C49.1909 131.339 49.943 133.074 51.2904 134.443C52.6612 135.836 54.7011 136.901 57.3403 137.628C62.6296 139.086 70.0303 139.104 78.2876 138.006C78.5733 137.968 78.8615 138.055 79.0784 138.245C79.2952 138.434 79.4195 138.709 79.4195 138.997C79.4195 139.259 79.6091 139.784 80.3301 140.545C81.0199 141.274 82.0759 142.089 83.4854 142.921C86.2984 144.582 90.3942 146.237 95.4267 147.384C105.484 149.677 119.173 149.92 133.636 144.26C133.982 144.125 134.374 144.192 134.654 144.434ZM194.949 154.864C200.84 152.997 205.944 150.286 209.506 146.717C211.878 149.434 215.753 151.611 220.321 153.195C225.441 154.97 231.574 156.051 237.814 156.28C244.053 156.509 250.442 155.888 256.067 154.226C261.453 152.634 266.212 150.066 269.432 146.303C282.564 149.267 301.826 151.713 317.666 149.525C325.703 148.414 332.979 146.096 338.114 141.936C343.032 137.951 345.916 132.332 345.69 124.722C364.669 128.086 378.828 121.558 388.266 112.261C397.804 102.867 402.564 90.6028 402.616 82.8542C403.95 77.5569 402.619 68.8677 397.434 61.2228C392.245 53.5707 383.182 46.9336 369.006 45.6419C363.395 30.9746 351.261 22.9086 338.72 18.5559C326.171 14.2003 313.098 13.5166 305.389 13.6699C290.53 5.17054 278.483 1.53393 266.037 1.05547C253.635 0.578694 240.905 3.24367 224.728 7.2103C212.342 3.09725 201.545 0.364522 190.711 0.0338336C179.87 -0.297084 169.047 1.77825 156.591 7.19545C138.081 2.39751 125.207 0.129933 113.585 0.718267C101.927 1.30845 91.609 4.76758 78.197 11.2626C63.9596 11.0584 53.334 12.4282 46.2354 16.1883C42.6393 18.0932 39.9325 20.6192 38.1348 23.8642C36.4484 26.9081 35.5947 30.5252 35.4987 34.7467C21.611 37.7616 12.7279 42.6943 8.38517 48.7724C4.01098 54.8945 4.38487 61.96 8.46897 68.8343C3.2803 75.8367 -0.314733 81.6897 0.0218602 87.8015C0.364422 94.0217 4.73579 100.158 14.4283 107.851C13.7265 111.755 14.011 115.131 15.2337 117.999C16.5214 121.02 18.8079 123.379 21.8636 125.171C27.7485 128.623 36.6032 130.045 47.2348 130.124C47.4398 132.403 48.3556 134.312 49.8649 135.846C50.1312 136.116 50.4146 136.374 50.7142 136.619C49.7368 138.855 46.2515 143.862 39.2441 151.315C38.5327 152.071 37.785 152.853 37 153.66C37.4011 153.32 38.0711 152.996 39.0186 152.537C39.2748 152.413 39.5513 152.279 39.8482 152.132C43.0153 150.568 48.5097 147.548 56.5371 139.48C56.6273 139.506 56.7179 139.531 56.809 139.556C62.2746 141.062 69.637 141.099 77.6444 140.105C77.899 140.748 78.3479 141.361 78.878 141.921C79.7374 142.828 80.9602 143.753 82.4685 144.643C85.4912 146.428 89.7878 148.15 94.9821 149.334C105.248 151.674 119.128 151.941 133.807 146.338C143.493 154.401 158.994 158.117 173.72 157.997C181.222 157.936 188.582 156.881 194.949 154.864ZM51.5344 137.232C52.6723 138.009 53.9953 138.64 55.4611 139.142C50.0678 144.511 45.8723 147.537 42.8095 149.382C42.495 149.571 42.192 149.748 41.9004 149.915C44.9143 146.597 47.1688 143.825 48.7676 141.634C49.8995 140.082 50.7146 138.806 51.2385 137.822C51.3482 137.616 51.447 137.419 51.5344 137.232Z" fill="white"/>
<path d="M173.704 155.997L173.712 156.997L173.704 155.997ZM134.654 144.434L135.308 143.677L135.308 143.677L134.654 144.434ZM194.345 152.957L194.042 152.004L194.345 152.957ZM208.827 144.524L208.082 143.858L208.827 144.524ZM209.628 144.193L209.683 143.194H209.683L209.628 144.193ZM210.387 144.611L211.202 144.031H211.202L210.387 144.611ZM220.976 151.305L220.649 152.25L220.976 151.305ZM237.887 154.281L237.85 155.281H237.85L237.887 154.281ZM255.5 152.308L255.783 153.267L255.5 152.308ZM268.273 144.567L269.054 145.191L269.054 145.191L268.273 144.567ZM269.278 144.217L269.054 145.191H269.054L269.278 144.217ZM317.392 147.544L317.256 146.553H317.256L317.392 147.544ZM336.855 140.382L337.484 141.159L336.855 140.382ZM343.628 123.579L342.631 123.652V123.652L343.628 123.579ZM343.963 122.756L344.625 123.505L344.625 123.505L343.963 122.756ZM344.82 122.524L344.625 123.505L344.82 122.524ZM386.863 110.837L386.161 110.124L386.863 110.837ZM400.649 82.4722L401.616 82.7261V82.7261L400.649 82.4722ZM395.779 62.3453L396.606 61.784V61.784L395.779 62.3453ZM368.212 47.5816L368.134 48.5785L368.212 47.5816ZM367.352 46.9283L366.413 47.272V47.272L367.352 46.9283ZM338.065 20.4454L337.737 21.3901L338.065 20.4454ZM305.156 15.6753L305.179 16.6751H305.179L305.156 15.6753ZM304.635 15.5428L304.137 16.4099V16.4099L304.635 15.5428ZM265.96 3.05399L265.999 2.05473L265.96 3.05399ZM224.925 9.22139L225.163 10.1926L225.163 10.1925L224.925 9.22139ZM224.37 9.19899L224.054 10.1477L224.054 10.1478L224.37 9.19899ZM190.65 2.0329L190.68 1.03337H190.68L190.65 2.0329ZM157.076 9.16607L157.478 10.0819L157.478 10.0819L157.076 9.16607ZM156.423 9.21808L156.171 10.1859L156.171 10.1859L156.423 9.21808ZM113.686 2.7157L113.737 3.71442L113.686 2.7157ZM78.8563 13.1657L79.2929 14.0653L79.293 14.0653L78.8563 13.1657ZM78.404 13.266L78.4196 12.2661L78.4195 12.2661L78.404 13.266ZM47.1716 17.9556L46.7035 17.0719L47.1716 17.9556ZM39.8842 24.8334L40.759 25.318L39.8842 24.8334ZM36.6942 36.5369L36.4896 35.558H36.4896L36.6942 36.5369ZM10.0125 49.9351L9.19882 49.3537H9.19882L10.0125 49.9351ZM10.5217 68.3592L9.67398 68.8897L9.67398 68.8897L10.5217 68.3592ZM10.4755 69.4877L11.277 70.0857H11.277L10.4755 69.4877ZM2.01883 87.6915L1.02035 87.7465L2.01883 87.6915ZM16.142 106.655L16.7594 105.869L16.7594 105.869L16.142 106.655ZM16.5046 107.641L15.5246 107.442H15.5246L16.5046 107.641ZM17.0735 117.215L17.9934 116.823L17.0735 117.215ZM22.8756 123.446L22.3696 124.309L22.8756 123.446ZM51.2904 134.443L50.5777 135.144H50.5777L51.2904 134.443ZM57.3403 137.628L57.0747 138.592L57.0747 138.592L57.3403 137.628ZM78.2876 138.006L78.1558 137.014L78.1557 137.014L78.2876 138.006ZM79.0784 138.245L79.7372 137.492L79.7372 137.492L79.0784 138.245ZM80.3301 140.545L79.604 141.233L79.604 141.233L80.3301 140.545ZM83.4854 142.921L83.9938 142.06L83.4854 142.921ZM95.4267 147.384L95.649 146.409L95.4267 147.384ZM133.636 144.26L133.272 143.329H133.272L133.636 144.26ZM209.506 146.717L210.259 146.059C210.077 145.85 209.816 145.726 209.539 145.717C209.262 145.708 208.993 145.814 208.798 146.01L209.506 146.717ZM194.949 154.864L194.647 153.91L194.949 154.864ZM220.321 153.195L219.994 154.14L220.321 153.195ZM237.814 156.28L237.777 157.279L237.814 156.28ZM256.067 154.226L256.35 155.185L256.067 154.226ZM269.432 146.303L269.652 145.327C269.291 145.246 268.913 145.371 268.672 145.653L269.432 146.303ZM317.666 149.525L317.529 148.534H317.529L317.666 149.525ZM338.114 141.936L338.743 142.713L338.114 141.936ZM345.69 124.722L345.864 123.738C345.568 123.685 345.264 123.769 345.036 123.966C344.808 124.163 344.681 124.451 344.69 124.752L345.69 124.722ZM388.266 112.261L388.968 112.974L388.266 112.261ZM402.616 82.8542L401.646 82.61C401.627 82.6877 401.617 82.7674 401.616 82.8475L402.616 82.8542ZM397.434 61.2228L398.262 60.6615V60.6615L397.434 61.2228ZM369.006 45.6419L368.072 45.9992C368.208 46.3554 368.535 46.6031 368.915 46.6377L369.006 45.6419ZM338.72 18.5559L338.392 19.5006L338.72 18.5559ZM305.389 13.6699L304.893 14.5379C305.05 14.6278 305.228 14.6733 305.409 14.6697L305.389 13.6699ZM266.037 1.05547L265.999 2.05473V2.05473L266.037 1.05547ZM224.728 7.2103L224.413 8.15934C224.592 8.21867 224.784 8.22636 224.966 8.18153L224.728 7.2103ZM190.711 0.0338336L190.742 -0.965701L190.711 0.0338336ZM156.591 7.19545L156.34 8.16346C156.556 8.2195 156.785 8.20156 156.99 8.11248L156.591 7.19545ZM113.585 0.718267L113.636 1.71699V1.71699L113.585 0.718267ZM78.197 11.2626L78.1826 12.2625C78.3384 12.2648 78.4926 12.2306 78.6328 12.1627L78.197 11.2626ZM46.2354 16.1883L45.7673 15.3046L45.7673 15.3046L46.2354 16.1883ZM38.1348 23.8642L37.26 23.3796L38.1348 23.8642ZM35.4987 34.7467L35.7109 35.724C36.1624 35.6259 36.488 35.2314 36.4985 34.7694L35.4987 34.7467ZM8.38517 48.7724L9.19882 49.3537L8.38517 48.7724ZM8.46897 68.8343L9.27243 69.4297C9.5123 69.106 9.53447 68.6699 9.32869 68.3236L8.46897 68.8343ZM0.0218602 87.8015L-0.976627 87.8565L0.0218602 87.8015ZM14.4283 107.851L15.4125 108.027C15.4776 107.665 15.3384 107.296 15.0499 107.067L14.4283 107.851ZM15.2337 117.999L14.3138 118.391L15.2337 117.999ZM21.8636 125.171L22.3696 124.308L21.8636 125.171ZM47.2348 130.124L48.2308 130.034C48.1847 129.522 47.757 129.128 47.2423 129.124L47.2348 130.124ZM49.8649 135.846L50.5777 135.144L49.8649 135.846ZM50.7142 136.619L51.6305 137.019C51.81 136.609 51.6943 136.129 51.3473 135.845L50.7142 136.619ZM39.2441 151.315L38.5155 150.63L39.2441 151.315ZM37 153.66L36.2833 152.963C35.9112 153.345 35.9049 153.952 36.269 154.342C36.6332 154.732 37.2395 154.768 37.6466 154.423L37 153.66ZM39.0186 152.537L38.5828 151.637H38.5827L39.0186 152.537ZM39.8482 152.132L39.4053 151.235L39.4053 151.235L39.8482 152.132ZM56.5371 139.48L56.8137 138.519C56.4632 138.418 56.0855 138.516 55.8282 138.774L56.5371 139.48ZM56.809 139.556L56.5434 140.52L56.5434 140.52L56.809 139.556ZM77.6444 140.105L78.5742 139.737C78.4064 139.313 77.9734 139.056 77.5212 139.112L77.6444 140.105ZM78.878 141.921L79.604 141.233L79.604 141.233L78.878 141.921ZM82.4685 144.643L81.9601 145.505L82.4685 144.643ZM94.9821 149.334L94.7598 150.309L94.9821 149.334ZM133.807 146.338L134.447 145.569C134.169 145.338 133.788 145.275 133.451 145.404L133.807 146.338ZM173.72 157.997L173.728 158.997L173.72 157.997ZM55.4611 139.142L56.1667 139.85C56.4116 139.607 56.5132 139.254 56.4356 138.917C56.3579 138.58 56.1119 138.307 55.7849 138.195L55.4611 139.142ZM51.5344 137.232L52.0987 136.406C51.8564 136.24 51.5536 136.19 51.2705 136.267C50.9874 136.345 50.7526 136.542 50.6284 136.808L51.5344 137.232ZM42.8095 149.382L42.2936 148.525H42.2936L42.8095 149.382ZM41.9004 149.915L41.1602 149.242C40.8296 149.606 40.8126 150.157 41.1202 150.54C41.4277 150.924 41.9685 151.027 42.3957 150.783L41.9004 149.915ZM48.7676 141.634L47.9598 141.044L48.7676 141.634ZM51.2385 137.822L52.1212 138.291H52.1212L51.2385 137.822ZM173.696 154.997C159.104 155.116 144.186 151.344 135.308 143.677L134.001 145.191C143.394 153.302 158.874 157.118 173.712 156.997L173.696 154.997ZM194.042 152.004C188.005 153.917 180.949 154.939 173.696 154.997L173.712 156.997C181.131 156.937 188.39 155.893 194.647 153.91L194.042 152.004ZM208.082 143.858C204.992 147.311 200.104 150.083 194.042 152.004L194.647 153.91C200.904 151.928 206.159 149.006 209.572 145.191L208.082 143.858ZM209.683 143.194C209.076 143.16 208.487 143.405 208.082 143.858L209.572 145.191H209.572L209.683 143.194ZM211.202 144.031C210.849 143.536 210.29 143.228 209.683 143.194L209.572 145.191H209.572L211.202 144.031ZM221.304 150.361C216.44 148.674 212.917 146.441 211.202 144.031L209.572 145.191C211.644 148.103 215.636 150.512 220.649 152.25L221.304 150.361ZM237.924 153.282C231.937 153.062 226.103 152.024 221.304 150.361L220.649 152.25C225.662 153.988 231.695 155.055 237.85 155.281L237.924 153.282ZM255.217 151.349C249.966 152.9 243.912 153.502 237.924 153.282L237.85 155.281C244.006 155.507 250.283 154.892 255.783 153.267L255.217 151.349ZM267.491 143.943C264.787 147.328 260.485 149.792 255.217 151.349L255.783 153.267C261.284 151.641 266.007 149.006 269.054 145.191L267.491 143.943ZM269.503 143.242C268.753 143.07 267.971 143.342 267.491 143.943L269.054 145.191L269.054 145.191L269.503 143.242ZM317.256 146.553C301.681 148.705 282.471 146.228 269.503 143.242L269.054 145.191C282.137 148.203 301.615 150.733 317.529 148.534L317.256 146.553ZM336.225 139.605C331.702 143.269 325.053 145.476 317.256 146.553L317.529 148.534C325.487 147.435 332.553 145.153 337.484 141.159L336.225 139.605ZM342.631 123.652C343.169 130.969 340.633 136.034 336.225 139.605L337.484 141.159C342.415 137.164 345.21 131.457 344.625 123.505L342.631 123.652ZM343.3 122.007C342.832 122.421 342.585 123.029 342.631 123.652L344.625 123.505V123.505L343.3 122.007ZM345.014 121.543C344.402 121.422 343.768 121.594 343.3 122.007L344.625 123.505L344.625 123.505L345.014 121.543ZM386.161 110.124C377.154 118.996 363.563 125.218 345.014 121.543L344.625 123.505C363.884 127.32 378.132 120.84 387.565 111.549L386.161 110.124ZM399.616 82.7261C399.616 89.5321 395.28 101.143 386.161 110.124L387.565 111.549C396.998 102.258 401.616 90.1554 401.616 82.7261H399.616ZM399.682 82.2183C399.639 82.384 399.616 82.5547 399.616 82.7261H401.616V82.7261L399.682 82.2183ZM394.951 62.9066C399.791 70.043 400.808 77.929 399.682 82.2183L401.616 82.7261C402.917 77.7733 401.704 69.3002 396.606 61.784L394.951 62.9066ZM368.134 48.5785C381.761 49.6548 390.193 55.8903 394.951 62.9066L396.606 61.784C391.509 54.268 382.528 47.7091 368.291 46.5847L368.134 48.5785ZM366.413 47.272C366.682 48.0065 367.354 48.5169 368.134 48.5785L368.291 46.5847V46.5847L366.413 47.272ZM337.737 21.3901C349.953 25.6301 361.326 33.3705 366.413 47.272L368.291 46.5847C362.924 31.9194 350.938 23.8551 338.392 19.5006L337.737 21.3901ZM305.179 16.6751C312.662 16.504 325.503 17.1442 337.737 21.3901L338.392 19.5006C325.846 15.1462 312.74 14.5017 305.133 14.6756L305.179 16.6751ZM304.137 16.4099C304.454 16.5917 304.814 16.6834 305.179 16.6751L305.133 14.6756L305.133 14.6756L304.137 16.4099ZM265.922 4.05325C277.843 4.51152 289.483 7.99309 304.137 16.4099L305.133 14.6756C290.268 6.13771 278.315 2.52819 265.999 2.05473L265.922 4.05325ZM225.163 10.1925C241.495 6.18257 253.921 3.59192 265.922 4.05325L265.999 2.05473C253.683 1.58127 241.004 4.24389 224.686 8.25024L225.163 10.1925ZM224.054 10.1478C224.412 10.267 224.797 10.2825 225.163 10.1926L224.686 8.25023L224.686 8.25023L224.054 10.1478ZM190.619 3.03244C201.094 3.35218 211.642 6.01359 224.054 10.1477L224.686 8.25024C212.215 4.09631 201.448 1.36204 190.68 1.03337L190.619 3.03244ZM157.478 10.0819C169.711 4.71758 180.184 2.71393 190.619 3.03244L190.68 1.03337C179.913 0.704721 169.146 2.78167 156.674 8.25024L157.478 10.0819ZM156.171 10.1859C156.606 10.2989 157.066 10.2623 157.478 10.0819L156.674 8.25022L156.674 8.25023L156.171 10.1859ZM113.737 3.71442C124.943 3.14714 137.526 5.34024 156.171 10.1859L156.674 8.25024C137.999 3.39671 125.166 1.1333 113.636 1.71698L113.737 3.71442ZM79.293 14.0653C92.6405 7.58527 102.588 4.27879 113.737 3.71442L113.636 1.71698C102.106 2.30066 91.8797 5.73139 78.4195 12.2661L79.293 14.0653ZM78.3884 14.2658C78.7016 14.2707 79.0114 14.202 79.2929 14.0653L78.4196 12.2661L78.4196 12.2661L78.3884 14.2658ZM47.6397 18.8393C54.0598 15.4386 64.0982 14.0439 78.3885 14.2658L78.4195 12.2661C64.0849 12.0434 53.6024 13.4177 46.7035 17.0719L47.6397 18.8393ZM40.759 25.318C42.2369 22.6503 44.4839 20.5109 47.6397 18.8393L46.7035 17.0719C43.2541 18.8991 40.7006 21.2963 39.0095 24.3488L40.759 25.318ZM38.4896 35.558C38.4896 31.3544 39.2724 28.0014 40.759 25.318L39.0095 24.3488C37.3184 27.4013 36.4896 31.1093 36.4896 35.558H38.4896ZM36.8989 37.5157C37.8257 37.322 38.4896 36.5049 38.4896 35.558H36.4896H36.4896L36.8989 37.5157ZM10.8261 50.5164C14.5952 45.2412 22.8231 40.4585 36.8989 37.5157L36.4896 35.558C22.238 38.5376 13.4046 43.4673 9.19882 49.3537L10.8261 50.5164ZM11.3694 67.8288C7.42529 61.5257 7.20536 55.5841 10.8261 50.5164L9.19882 49.3537C4.99351 55.2395 5.41436 62.0824 9.67398 68.8897L11.3694 67.8288ZM11.277 70.0857C11.7703 69.4244 11.807 68.5281 11.3694 67.8288L9.67398 68.8897L9.67397 68.8897L11.277 70.0857ZM3.01732 87.6365C2.8802 85.1467 3.55783 82.6054 4.97815 79.746C6.40316 76.8773 8.54601 73.7461 11.277 70.0857L9.67398 68.8897C6.93216 72.5647 4.69695 75.8165 3.18696 78.8563C1.67228 81.9056 0.857991 84.7985 1.02035 87.7465L3.01732 87.6365ZM16.7594 105.869C6.81505 98.0634 3.28811 92.5535 3.01732 87.6365L1.02035 87.7465C1.34271 93.5999 5.5247 99.5931 15.5246 107.442L16.7594 105.869ZM17.4846 107.84C17.6351 107.098 17.3545 106.336 16.7594 105.869L15.5246 107.442L15.5246 107.442L17.4846 107.84ZM17.9934 116.823C17.0018 114.497 16.729 111.563 17.4846 107.84L15.5246 107.442C14.7095 111.458 14.966 114.821 16.1536 117.607L17.9934 116.823ZM23.3816 122.583C20.7647 121.048 18.9812 119.14 17.9934 116.823L16.1536 117.607C17.3413 120.393 19.46 122.602 22.3696 124.309L23.3816 122.583ZM48.1909 127.128C37.2427 127.128 28.7177 125.714 23.3816 122.583L22.3696 124.309C28.1886 127.722 37.1704 129.128 48.1909 129.128V127.128ZM50.1909 129.128C50.1909 128.023 49.2955 127.128 48.1909 127.128V129.128H50.1909ZM52.0031 133.741C50.8442 132.564 50.1909 131.083 50.1909 129.128H48.1909C48.1909 131.595 49.0418 133.584 50.5777 135.144L52.0031 133.741ZM57.6059 136.664C55.0678 135.965 53.2088 134.966 52.0031 133.741L50.5777 135.144C52.1135 136.705 54.3345 137.837 57.0747 138.592L57.6059 136.664ZM78.1557 137.014C69.9484 138.106 62.7042 138.069 57.6059 136.664L57.0747 138.592C62.555 140.102 70.1122 140.102 78.4195 138.997L78.1557 137.014ZM79.7372 137.492C79.3035 137.113 78.7271 136.938 78.1558 137.014L78.4195 138.997H78.4195L79.7372 137.492ZM80.4195 138.997C80.4195 138.42 80.1708 137.872 79.7372 137.492L78.4195 138.997H78.4195H80.4195ZM81.0561 139.858C80.7421 139.526 80.5736 139.277 80.4879 139.115C80.3959 138.942 80.4195 138.909 80.4195 138.997H78.4195C78.4195 139.649 78.8288 140.414 79.604 141.233L81.0561 139.858ZM83.9938 142.06C82.6337 141.257 81.6612 140.497 81.0561 139.858L79.604 141.233C80.3787 142.051 81.518 142.921 82.9769 143.782L83.9938 142.06ZM95.649 146.409C90.6974 145.28 86.702 143.659 83.9938 142.06L82.9769 143.782C85.8948 145.505 90.091 147.193 95.2044 148.359L95.649 146.409ZM133.272 143.329C119.019 148.907 105.538 148.664 95.649 146.409L95.2044 148.359C105.431 150.691 119.326 150.934 134.001 145.191L133.272 143.329ZM135.308 143.677C134.747 143.193 133.963 143.058 133.272 143.329L134.001 145.191L134.001 145.191L135.308 143.677ZM208.798 146.01C205.387 149.428 200.444 152.073 194.647 153.91L195.251 155.817C201.235 153.921 206.501 151.143 210.213 147.423L208.798 146.01ZM220.649 152.25C216.156 150.692 212.468 148.59 210.259 146.059L208.752 147.374C211.288 150.279 215.349 152.529 219.994 154.14L220.649 152.25ZM237.85 155.281C231.695 155.055 225.662 153.988 220.649 152.25L219.994 154.14C225.22 155.952 231.453 157.047 237.777 157.279L237.85 155.281ZM255.783 153.267C250.283 154.892 244.006 155.507 237.85 155.281L237.777 157.279C244.1 157.512 250.6 156.884 256.35 155.185L255.783 153.267ZM268.672 145.653C265.62 149.22 261.058 151.708 255.783 153.267L256.35 155.185C261.849 153.56 266.804 150.912 270.192 146.953L268.672 145.653ZM317.529 148.534C301.857 150.699 282.728 148.279 269.652 145.327L269.212 147.278C282.4 150.255 301.794 152.727 317.803 150.515L317.529 148.534ZM337.484 141.159C332.553 145.153 325.487 147.435 317.529 148.534L317.803 150.515C325.92 149.394 333.404 147.038 338.743 142.713L337.484 141.159ZM344.69 124.752C344.907 132.051 342.159 137.371 337.484 141.159L338.743 142.713C343.905 138.532 346.925 132.613 346.689 124.693L344.69 124.752ZM387.565 111.549C378.333 120.642 364.493 127.039 345.864 123.738L345.515 125.707C364.845 129.133 379.322 122.475 388.968 112.974L387.565 111.549ZM401.616 82.8475C401.566 90.2887 396.945 102.31 387.565 111.549L388.968 112.974C398.663 103.425 403.562 90.9169 403.616 82.8609L401.616 82.8475ZM396.606 61.784C401.663 69.2396 402.898 77.6395 401.646 82.61L403.586 83.0984C405.002 77.4744 403.575 68.4958 398.262 60.6615L396.606 61.784ZM368.915 46.6377C382.79 47.902 391.583 54.3774 396.606 61.784L398.262 60.6615C392.906 52.7641 383.574 45.9652 369.097 44.646L368.915 46.6377ZM338.392 19.5006C350.771 23.7971 362.604 31.7053 368.072 45.9992L369.94 45.2846C364.186 30.2438 351.751 22.0201 339.048 17.6112L338.392 19.5006ZM305.409 14.6697C313.056 14.5177 325.998 15.1987 338.392 19.5006L339.048 17.6112C326.344 13.2018 313.14 12.5156 305.37 12.6701L305.409 14.6697ZM265.999 2.05473C278.249 2.52564 290.139 6.099 304.893 14.5379L305.886 12.8019C290.921 4.24208 278.718 0.54221 266.076 0.0562086L265.999 2.05473ZM224.966 8.18153C241.149 4.21339 253.754 1.58399 265.999 2.05473L266.076 0.0562087C253.516 -0.426605 240.66 2.27396 224.49 6.23907L224.966 8.18153ZM190.68 1.03337C201.369 1.35962 212.058 4.0564 224.413 8.15934L225.043 6.26126C212.627 2.1381 201.72 -0.630578 190.742 -0.965701L190.68 1.03337ZM156.99 8.11248C169.327 2.74691 180.004 0.707472 190.68 1.03337L190.742 -0.965701C179.736 -1.30164 168.767 0.809591 156.192 6.27842L156.99 8.11248ZM113.636 1.71699C125.096 1.13681 137.846 3.36966 156.34 8.16346L156.842 6.22744C138.316 1.42537 125.317 -0.876944 113.535 -0.280455L113.636 1.71699ZM78.6328 12.1627C91.9878 5.69523 102.167 2.29756 113.636 1.71699L113.535 -0.280455C101.686 0.319327 91.2302 3.83994 77.7611 10.3626L78.6328 12.1627ZM46.7035 17.072C53.5638 13.4381 63.9685 12.0586 78.1826 12.2625L78.2113 10.2627C63.9507 10.0582 53.1042 11.4183 45.7673 15.3046L46.7035 17.072ZM39.0095 24.3488C40.7006 21.2963 43.2541 18.8991 46.7035 17.072L45.7673 15.3046C42.0244 17.2872 39.1644 19.9421 37.26 23.3796L39.0095 24.3488ZM36.4985 34.7694C36.5917 30.6689 37.4193 27.2193 39.0095 24.3488L37.26 23.3796C35.4776 26.5969 34.5977 30.3815 34.499 34.724L36.4985 34.7694ZM9.19882 49.3537C13.3266 43.5764 21.913 38.7194 35.7109 35.724L35.2866 33.7695C21.309 36.8039 12.1292 41.8121 7.57151 48.191L9.19882 49.3537ZM9.32869 68.3236C5.39701 61.7058 5.10733 55.0802 9.19882 49.3537L7.57151 48.191C2.91463 54.7088 3.37272 62.2142 7.60925 69.3451L9.32869 68.3236ZM1.02035 87.7465C0.706256 82.0433 4.05786 76.467 9.27243 69.4297L7.66551 68.239C2.50274 75.2064 -1.33572 81.3361 -0.976627 87.8565L1.02035 87.7465ZM15.0499 107.067C5.38974 99.4001 1.33747 93.5047 1.02035 87.7465L-0.976627 87.8565C-0.608624 94.5386 4.08184 100.915 13.8066 108.634L15.0499 107.067ZM16.1536 117.607C15.024 114.957 14.7369 111.786 15.4125 108.027L13.444 107.674C12.7162 111.723 12.9981 115.305 14.3138 118.391L16.1536 117.607ZM22.3696 124.308C19.46 122.602 17.3413 120.393 16.1536 117.607L14.3138 118.391C15.7015 121.647 18.1557 124.155 21.3577 126.034L22.3696 124.308ZM47.2423 129.124C36.6504 129.045 28.0183 127.622 22.3696 124.308L21.3577 126.034C27.4787 129.624 36.5559 131.044 47.2274 131.124L47.2423 129.124ZM50.5777 135.144C49.2293 133.774 48.4148 132.08 48.2308 130.034L46.2389 130.214C46.4647 132.725 47.4819 134.85 49.1522 136.547L50.5777 135.144ZM51.3473 135.845C51.0743 135.621 50.8176 135.388 50.5777 135.144L49.1522 136.547C49.4448 136.844 49.7549 137.126 50.0811 137.393L51.3473 135.845ZM49.7979 136.218C48.8953 138.283 45.5173 143.183 38.5155 150.63L39.9726 152C46.9858 144.541 50.5784 139.426 51.6305 137.019L49.7979 136.218ZM38.5155 150.63C37.8082 151.382 37.0645 152.16 36.2833 152.963L37.7167 154.357C38.5056 153.547 39.2572 152.761 39.9726 152L38.5155 150.63ZM37.6466 154.423C37.9263 154.186 38.4493 153.923 39.4545 153.437L38.5827 151.637C37.6928 152.068 36.8758 152.454 36.3534 152.897L37.6466 154.423ZM39.4544 153.437C39.7103 153.313 39.9901 153.177 40.2911 153.029L39.4053 151.235C39.1124 151.38 38.8393 151.512 38.5828 151.637L39.4544 153.437ZM40.2911 153.029C43.5464 151.421 49.1333 148.339 57.246 140.185L55.8282 138.774C47.8861 146.757 42.4842 149.715 39.4053 151.235L40.2911 153.029ZM57.0747 138.592C56.9872 138.568 56.9002 138.544 56.8137 138.519L56.2605 140.441C56.3544 140.468 56.4487 140.494 56.5434 140.52L57.0747 138.592ZM77.5212 139.112C69.5649 140.101 62.3546 140.047 57.0747 138.592L56.5434 140.52C62.1946 142.077 69.7091 142.098 77.7677 141.097L77.5212 139.112ZM79.604 141.233C79.1226 140.725 78.7646 140.218 78.5742 139.737L76.7147 140.473C77.0333 141.278 77.5733 141.997 78.1519 142.608L79.604 141.233ZM82.9769 143.782C81.518 142.921 80.3787 142.051 79.604 141.233L78.1519 142.608C79.0961 143.605 80.4023 144.585 81.9601 145.505L82.9769 143.782ZM95.2044 148.359C90.091 147.193 85.8948 145.505 82.9769 143.782L81.9601 145.505C85.0877 147.351 89.4846 149.106 94.7598 150.309L95.2044 148.359ZM133.451 145.404C118.98 150.928 105.303 150.661 95.2044 148.359L94.7598 150.309C105.192 152.687 119.277 152.955 134.164 147.272L133.451 145.404ZM173.712 156.997C159.109 157.116 143.88 153.422 134.447 145.569L133.167 147.107C143.107 155.381 158.878 159.118 173.728 158.997L173.712 156.997ZM194.647 153.91C188.39 155.893 181.131 156.937 173.712 156.997L173.728 158.997C181.313 158.936 188.774 157.869 195.251 155.817L194.647 153.91ZM55.7849 138.195C54.3856 137.717 53.1475 137.123 52.0987 136.406L50.9701 138.057C52.197 138.896 53.6049 139.563 55.1374 140.088L55.7849 138.195ZM43.3254 150.238C46.4621 148.349 50.7206 145.272 56.1667 139.85L54.7556 138.433C49.415 143.75 45.2824 146.725 42.2936 148.525L43.3254 150.238ZM42.3957 150.783C42.694 150.613 43.0039 150.432 43.3254 150.238L42.2936 148.525C41.9861 148.71 41.69 148.884 41.4051 149.046L42.3957 150.783ZM47.9598 141.044C46.3865 143.201 44.1559 145.945 41.1602 149.242L42.6406 150.587C45.6727 147.249 47.951 144.45 49.5754 142.223L47.9598 141.044ZM50.3558 137.352C49.8617 138.28 49.0757 139.515 47.9598 141.044L49.5754 142.223C50.7233 140.65 51.5675 139.332 52.1212 138.291L50.3558 137.352ZM50.6284 136.808C50.5494 136.977 50.4585 137.159 50.3558 137.352L52.1212 138.291C52.2378 138.072 52.3446 137.86 52.4404 137.655L50.6284 136.808Z" fill="#333F72" mask="url(#path-1-inside-1_1_2554)"/>
<path d="M52.8 41.95C52.8 41.404 52.45 41.096 52.016 41.096C51.848 41.096 51.722 41.138 51.624 41.194C51.624 40.746 52.016 40.382 52.562 40.27V39.682C51.582 39.822 50.868 40.634 50.868 41.656C50.868 42.412 51.316 42.874 51.876 42.874C52.436 42.874 52.8 42.482 52.8 41.95ZM55.306 41.95C55.306 41.404 54.942 41.096 54.508 41.096C54.354 41.096 54.228 41.124 54.13 41.18C54.13 40.746 54.522 40.382 55.068 40.27V39.682C54.088 39.822 53.36 40.634 53.36 41.656C53.36 42.412 53.808 42.874 54.382 42.874C54.928 42.874 55.306 42.482 55.306 41.95ZM56.6765 41.138H59.7285V50H61.1005V41.138H64.1385V39.878H56.6765V41.138ZM66.6098 49.986V46.262C66.6098 45.086 67.2958 44.162 68.5698 44.162C69.5498 44.162 70.2078 44.722 70.2078 46.108V50H71.5238V45.814C71.5238 44.064 70.6838 42.958 68.9338 42.958C67.8698 42.958 67.0438 43.462 66.6098 44.204V39.696H65.2938V49.986H66.6098ZM76.3005 50.168C77.9945 50.168 79.1425 49.342 79.4785 47.872H78.2465C78.0225 48.656 77.3505 49.076 76.3285 49.076C75.0265 49.076 74.2705 48.278 74.1725 46.836L79.4645 46.822V46.332C79.4645 44.302 78.1905 42.958 76.2445 42.958C74.2565 42.958 72.8985 44.442 72.8985 46.584C72.8985 48.712 74.2845 50.168 76.3005 50.168ZM76.2445 44.064C77.4065 44.064 78.1485 44.82 78.1485 45.954H74.2005C74.3685 44.75 75.0965 44.064 76.2445 44.064ZM84.2026 48.012C84.2026 49.314 85.2246 50.168 86.8346 50.168C88.4586 50.168 89.5786 49.342 89.5786 48.04C89.5786 47.018 89.0046 46.486 87.8426 46.206L86.6386 45.912C85.9666 45.744 85.6306 45.436 85.6306 44.974C85.6306 44.344 86.0926 43.98 86.9186 43.98C87.7166 43.98 88.1786 44.414 88.2066 45.1H89.4666C89.4386 43.798 88.4586 42.958 86.9606 42.958C85.4486 42.958 84.3846 43.756 84.3846 45.016C84.3846 46.024 84.9586 46.626 86.1766 46.92L87.3806 47.2C88.0946 47.382 88.3186 47.662 88.3186 48.124C88.3186 48.754 87.7866 49.132 86.8626 49.132C85.9946 49.132 85.4626 48.712 85.4626 48.012H84.2026ZM95.7699 43.154V46.766C95.7699 48.236 95.1119 49.006 93.9079 49.006C92.8999 49.006 92.2699 48.446 92.2699 46.976V43.154H90.9539V47.41C90.9539 49.09 91.8499 50.168 93.4459 50.168C94.4539 50.168 95.3639 49.678 95.7559 48.964L95.8959 50H97.0719V43.154H95.7699ZM98.2846 48.012C98.2846 49.314 99.3066 50.168 100.917 50.168C102.541 50.168 103.661 49.342 103.661 48.04C103.661 47.018 103.087 46.486 101.925 46.206L100.721 45.912C100.049 45.744 99.7126 45.436 99.7126 44.974C99.7126 44.344 100.175 43.98 101.001 43.98C101.799 43.98 102.261 44.414 102.289 45.1H103.549C103.521 43.798 102.541 42.958 101.043 42.958C99.5306 42.958 98.4666 43.756 98.4666 45.016C98.4666 46.024 99.0406 46.626 100.259 46.92L101.463 47.2C102.177 47.382 102.401 47.662 102.401 48.124C102.401 48.754 101.869 49.132 100.945 49.132C100.077 49.132 99.5446 48.712 99.5446 48.012H98.2846ZM106.436 49.986V46.262C106.436 45.086 107.122 44.162 108.396 44.162C109.376 44.162 110.034 44.722 110.034 46.108V50H111.35V45.814C111.35 44.064 110.51 42.958 108.76 42.958C107.696 42.958 106.87 43.462 106.436 44.204V39.696H105.12V49.986H106.436ZM113.817 41.53C114.293 41.53 114.685 41.138 114.685 40.662C114.685 40.172 114.293 39.794 113.817 39.794C113.341 39.794 112.949 40.172 112.949 40.662C112.949 41.138 113.341 41.53 113.817 41.53ZM113.173 50H114.489V43.154H113.173V50ZM122.229 50.168C123.335 50.168 124.273 49.678 124.623 48.894L124.763 50H125.883V45.702C125.883 43.854 124.735 42.958 123.041 42.958C121.277 42.958 120.101 43.896 120.101 45.324H121.249C121.249 44.498 121.879 44.008 122.985 44.008C123.909 44.008 124.595 44.414 124.595 45.562V45.758L122.439 45.926C120.829 46.052 119.891 46.836 119.891 48.096C119.891 49.342 120.759 50.168 122.229 50.168ZM122.607 49.146C121.753 49.146 121.221 48.782 121.221 48.054C121.221 47.382 121.697 46.934 122.859 46.822L124.609 46.682V47.046C124.609 48.334 123.853 49.146 122.607 49.146ZM129.529 50V44.26H130.873V43.154H129.529V41.012H128.213V43.154H126.869V44.26H128.213V50H129.529ZM137.814 50V44.26H139.158V43.154H137.814V41.012H136.498V43.154H135.154V44.26H136.498V50H137.814ZM141.655 49.986V46.262C141.655 45.086 142.341 44.162 143.615 44.162C144.595 44.162 145.253 44.722 145.253 46.108V50H146.569V45.814C146.569 44.064 145.729 42.958 143.979 42.958C142.915 42.958 142.089 43.462 141.655 44.204V39.696H140.339V49.986H141.655ZM149.035 41.53C149.511 41.53 149.903 41.138 149.903 40.662C149.903 40.172 149.511 39.794 149.035 39.794C148.559 39.794 148.167 40.172 148.167 40.662C148.167 41.138 148.559 41.53 149.035 41.53ZM148.391 50H149.707V43.154H148.391V50ZM151.058 48.012C151.058 49.314 152.08 50.168 153.69 50.168C155.314 50.168 156.434 49.342 156.434 48.04C156.434 47.018 155.86 46.486 154.698 46.206L153.494 45.912C152.822 45.744 152.486 45.436 152.486 44.974C152.486 44.344 152.948 43.98 153.774 43.98C154.572 43.98 155.034 44.414 155.062 45.1H156.322C156.294 43.798 155.314 42.958 153.816 42.958C152.304 42.958 151.24 43.756 151.24 45.016C151.24 46.024 151.814 46.626 153.032 46.92L154.236 47.2C154.95 47.382 155.174 47.662 155.174 48.124C155.174 48.754 154.642 49.132 153.718 49.132C152.85 49.132 152.318 48.712 152.318 48.012H151.058ZM160.994 43.154V44.26H162.002V50H163.318V44.26H164.942V43.154H163.318V42.062C163.318 41.32 163.542 40.886 164.396 40.886H164.984V39.752C164.718 39.71 164.424 39.696 164.172 39.696C162.926 39.696 162.002 40.382 162.002 42.062V43.154H160.994ZM167.948 50.168C169.054 50.168 169.992 49.678 170.342 48.894L170.482 50H171.602V45.702C171.602 43.854 170.454 42.958 168.76 42.958C166.996 42.958 165.82 43.896 165.82 45.324H166.968C166.968 44.498 167.598 44.008 168.704 44.008C169.628 44.008 170.314 44.414 170.314 45.562V45.758L168.158 45.926C166.548 46.052 165.61 46.836 165.61 48.096C165.61 49.342 166.478 50.168 167.948 50.168ZM168.326 49.146C167.472 49.146 166.94 48.782 166.94 48.054C166.94 47.382 167.416 46.934 168.578 46.822L170.328 46.682V47.046C170.328 48.334 169.572 49.146 168.326 49.146ZM174.741 50V46.374C174.741 45.044 175.455 44.162 176.687 44.162C177.695 44.162 178.339 44.722 178.339 46.108V50H179.655V45.814C179.655 44.064 178.829 42.958 177.023 42.958C176.057 42.958 175.189 43.42 174.755 44.204L174.615 43.154H173.425V50H174.741ZM181.029 46.584C181.029 48.74 182.359 50.168 184.375 50.168C186.027 50.168 187.301 49.174 187.567 47.69H186.251C186.013 48.502 185.313 48.992 184.375 48.992C183.129 48.992 182.331 48.04 182.331 46.57C182.331 45.086 183.185 44.134 184.431 44.134C185.313 44.134 186.013 44.596 186.237 45.464H187.553C187.315 43.938 186.111 42.958 184.389 42.958C182.387 42.958 181.029 44.442 181.029 46.584ZM188.161 53.066C188.511 53.15 188.875 53.206 189.309 53.206C190.359 53.206 191.045 52.716 191.507 51.54L194.741 43.154H193.383L191.353 48.67L189.365 43.154H187.979L190.737 50.364L190.499 51.022C190.177 51.89 189.673 51.988 189.043 51.988H188.161V53.066ZM198.948 47.186C198.948 48.936 200.012 50.168 201.944 50.168C203.75 50.168 204.968 49.02 204.968 47.2V39.878H203.596V47.144C203.596 48.194 203.092 48.894 201.944 48.894C200.824 48.894 200.278 48.18 200.278 47.186V46.682H198.948V47.186ZM209.032 50.168C210.138 50.168 211.076 49.678 211.426 48.894L211.566 50H212.686V45.702C212.686 43.854 211.538 42.958 209.844 42.958C208.08 42.958 206.904 43.896 206.904 45.324H208.052C208.052 44.498 208.682 44.008 209.788 44.008C210.712 44.008 211.398 44.414 211.398 45.562V45.758L209.242 45.926C207.632 46.052 206.694 46.836 206.694 48.096C206.694 49.342 207.562 50.168 209.032 50.168ZM209.41 49.146C208.556 49.146 208.024 48.782 208.024 48.054C208.024 47.382 208.5 46.934 209.662 46.822L211.412 46.682V47.046C211.412 48.334 210.656 49.146 209.41 49.146ZM214.509 53.066H215.825V48.88C216.273 49.72 217.183 50.182 218.275 50.182C220.305 50.182 221.453 48.614 221.453 46.528C221.453 44.428 220.235 42.958 218.275 42.958C217.183 42.958 216.259 43.448 215.797 44.386L215.699 43.154H214.509V53.066ZM215.839 46.584C215.839 45.156 216.651 44.162 217.995 44.162C219.339 44.162 220.137 45.17 220.137 46.584C220.137 47.984 219.339 48.992 217.995 48.992C216.651 48.992 215.839 47.984 215.839 46.584ZM224.905 50.168C226.011 50.168 226.949 49.678 227.299 48.894L227.439 50H228.559V45.702C228.559 43.854 227.411 42.958 225.717 42.958C223.953 42.958 222.777 43.896 222.777 45.324H223.925C223.925 44.498 224.555 44.008 225.661 44.008C226.585 44.008 227.271 44.414 227.271 45.562V45.758L225.115 45.926C223.505 46.052 222.567 46.836 222.567 48.096C222.567 49.342 223.435 50.168 224.905 50.168ZM225.283 49.146C224.429 49.146 223.897 48.782 223.897 48.054C223.897 47.382 224.373 46.934 225.535 46.822L227.285 46.682V47.046C227.285 48.334 226.529 49.146 225.283 49.146ZM231.698 50V46.374C231.698 45.044 232.412 44.162 233.644 44.162C234.652 44.162 235.296 44.722 235.296 46.108V50H236.612V45.814C236.612 44.064 235.786 42.958 233.98 42.958C233.014 42.958 232.146 43.42 231.712 44.204L231.572 43.154H230.382V50H231.698ZM241.388 50.168C243.082 50.168 244.23 49.342 244.566 47.872H243.334C243.11 48.656 242.438 49.076 241.416 49.076C240.114 49.076 239.358 48.278 239.26 46.836L244.552 46.822V46.332C244.552 44.302 243.278 42.958 241.332 42.958C239.344 42.958 237.986 44.442 237.986 46.584C237.986 48.712 239.372 50.168 241.388 50.168ZM241.332 44.064C242.494 44.064 243.236 44.82 243.236 45.954H239.288C239.456 44.75 240.184 44.064 241.332 44.064ZM245.462 48.012C245.462 49.314 246.484 50.168 248.094 50.168C249.718 50.168 250.838 49.342 250.838 48.04C250.838 47.018 250.264 46.486 249.102 46.206L247.898 45.912C247.226 45.744 246.89 45.436 246.89 44.974C246.89 44.344 247.352 43.98 248.178 43.98C248.976 43.98 249.438 44.414 249.466 45.1H250.726C250.698 43.798 249.718 42.958 248.22 42.958C246.708 42.958 245.644 43.756 245.644 45.016C245.644 46.024 246.218 46.626 247.436 46.92L248.64 47.2C249.354 47.382 249.578 47.662 249.578 48.124C249.578 48.754 249.046 49.132 248.122 49.132C247.254 49.132 246.722 48.712 246.722 48.012H245.462ZM255.252 50.168C256.946 50.168 258.094 49.342 258.43 47.872H257.198C256.974 48.656 256.302 49.076 255.28 49.076C253.978 49.076 253.222 48.278 253.124 46.836L258.416 46.822V46.332C258.416 44.302 257.142 42.958 255.196 42.958C253.208 42.958 251.85 44.442 251.85 46.584C251.85 48.712 253.236 50.168 255.252 50.168ZM255.196 44.064C256.358 44.064 257.1 44.82 257.1 45.954H253.152C253.32 44.75 254.048 44.064 255.196 44.064ZM267.634 43.098C267.368 43.042 267.172 43.014 266.934 43.014C265.996 43.014 265.31 43.49 265.03 44.204L264.946 43.168H263.714V50H265.03V46.374C265.03 45.058 265.8 44.302 267.046 44.302H267.634V43.098ZM271.576 50.168C273.27 50.168 274.418 49.342 274.754 47.872H273.522C273.298 48.656 272.626 49.076 271.604 49.076C270.302 49.076 269.546 48.278 269.448 46.836L274.74 46.822V46.332C274.74 44.302 273.466 42.958 271.52 42.958C269.532 42.958 268.174 44.442 268.174 46.584C268.174 48.712 269.56 50.168 271.576 50.168ZM271.52 44.064C272.682 44.064 273.424 44.82 273.424 45.954H269.476C269.644 44.75 270.372 44.064 271.52 44.064ZM275.65 48.012C275.65 49.314 276.672 50.168 278.282 50.168C279.906 50.168 281.026 49.342 281.026 48.04C281.026 47.018 280.452 46.486 279.29 46.206L278.086 45.912C277.414 45.744 277.078 45.436 277.078 44.974C277.078 44.344 277.54 43.98 278.366 43.98C279.164 43.98 279.626 44.414 279.654 45.1H280.914C280.886 43.798 279.906 42.958 278.408 42.958C276.896 42.958 275.832 43.756 275.832 45.016C275.832 46.024 276.406 46.626 277.624 46.92L278.828 47.2C279.542 47.382 279.766 47.662 279.766 48.124C279.766 48.754 279.234 49.132 278.31 49.132C277.442 49.132 276.91 48.712 276.91 48.012H275.65ZM284.417 50V44.26H285.761V43.154H284.417V41.012H283.101V43.154H281.757V44.26H283.101V50H284.417ZM288.862 50.168C289.968 50.168 290.906 49.678 291.256 48.894L291.396 50H292.516V45.702C292.516 43.854 291.368 42.958 289.674 42.958C287.91 42.958 286.734 43.896 286.734 45.324H287.882C287.882 44.498 288.512 44.008 289.618 44.008C290.542 44.008 291.228 44.414 291.228 45.562V45.758L289.072 45.926C287.462 46.052 286.524 46.836 286.524 48.096C286.524 49.342 287.392 50.168 288.862 50.168ZM289.24 49.146C288.386 49.146 287.854 48.782 287.854 48.054C287.854 47.382 288.33 46.934 289.492 46.822L291.242 46.682V47.046C291.242 48.334 290.486 49.146 289.24 49.146ZM299.071 43.154V46.766C299.071 48.236 298.413 49.006 297.209 49.006C296.201 49.006 295.571 48.446 295.571 46.976V43.154H294.255V47.41C294.255 49.09 295.151 50.168 296.747 50.168C297.755 50.168 298.665 49.678 299.057 48.964L299.197 50H300.373V43.154H299.071ZM306.202 43.098C305.936 43.042 305.74 43.014 305.502 43.014C304.564 43.014 303.878 43.49 303.598 44.204L303.514 43.168H302.282V50H303.598V46.374C303.598 45.058 304.368 44.302 305.614 44.302H306.202V43.098ZM309.165 50.168C310.271 50.168 311.209 49.678 311.559 48.894L311.699 50H312.819V45.702C312.819 43.854 311.671 42.958 309.977 42.958C308.213 42.958 307.037 43.896 307.037 45.324H308.185C308.185 44.498 308.815 44.008 309.921 44.008C310.845 44.008 311.531 44.414 311.531 45.562V45.758L309.375 45.926C307.765 46.052 306.827 46.836 306.827 48.096C306.827 49.342 307.695 50.168 309.165 50.168ZM309.543 49.146C308.689 49.146 308.157 48.782 308.157 48.054C308.157 47.382 308.633 46.934 309.795 46.822L311.545 46.682V47.046C311.545 48.334 310.789 49.146 309.543 49.146ZM315.957 50V46.374C315.957 45.044 316.671 44.162 317.903 44.162C318.911 44.162 319.555 44.722 319.555 46.108V50H320.871V45.814C320.871 44.064 320.045 42.958 318.239 42.958C317.273 42.958 316.405 43.42 315.971 44.204L315.831 43.154H314.641V50H315.957ZM324.626 50V44.26H325.97V43.154H324.626V41.012H323.31V43.154H321.966V44.26H323.31V50H324.626ZM52.422 70H53.724L54.914 66.346C55.166 65.52 55.292 65.072 55.362 64.736C55.432 65.114 55.572 65.646 55.796 66.332L56.986 70H58.232L60.57 63.154H59.198L58.05 66.71C57.854 67.312 57.728 67.788 57.616 68.334C57.504 67.844 57.28 67.046 57.168 66.71L56.034 63.154H54.69L53.542 66.71C53.388 67.158 53.206 67.732 53.094 68.334C52.968 67.732 52.828 67.214 52.674 66.71L51.54 63.154H50.182L52.422 70ZM63.3856 70.168C64.4916 70.168 65.4296 69.678 65.7796 68.894L65.9196 70H67.0396V65.702C67.0396 63.854 65.8916 62.958 64.1976 62.958C62.4336 62.958 61.2576 63.896 61.2576 65.324H62.4056C62.4056 64.498 63.0356 64.008 64.1416 64.008C65.0656 64.008 65.7516 64.414 65.7516 65.562V65.758L63.5956 65.926C61.9856 66.052 61.0476 66.836 61.0476 68.096C61.0476 69.342 61.9156 70.168 63.3856 70.168ZM63.7636 69.146C62.9096 69.146 62.3776 68.782 62.3776 68.054C62.3776 67.382 62.8536 66.934 64.0156 66.822L65.7656 66.682V67.046C65.7656 68.334 65.0096 69.146 63.7636 69.146ZM68.3022 68.012C68.3022 69.314 69.3242 70.168 70.9342 70.168C72.5582 70.168 73.6782 69.342 73.6782 68.04C73.6782 67.018 73.1042 66.486 71.9422 66.206L70.7382 65.912C70.0662 65.744 69.7302 65.436 69.7302 64.974C69.7302 64.344 70.1922 63.98 71.0182 63.98C71.8162 63.98 72.2782 64.414 72.3062 65.1H73.5662C73.5382 63.798 72.5582 62.958 71.0602 62.958C69.5482 62.958 68.4842 63.756 68.4842 65.016C68.4842 66.024 69.0582 66.626 70.2762 66.92L71.4802 67.2C72.1942 67.382 72.4182 67.662 72.4182 68.124C72.4182 68.754 71.8862 69.132 70.9622 69.132C70.0942 69.132 69.5622 68.712 69.5622 68.012H68.3022ZM78.4057 68.012C78.4057 69.314 79.4277 70.168 81.0377 70.168C82.6617 70.168 83.7817 69.342 83.7817 68.04C83.7817 67.018 83.2077 66.486 82.0457 66.206L80.8417 65.912C80.1697 65.744 79.8337 65.436 79.8337 64.974C79.8337 64.344 80.2957 63.98 81.1217 63.98C81.9197 63.98 82.3817 64.414 82.4097 65.1H83.6697C83.6417 63.798 82.6617 62.958 81.1637 62.958C79.6517 62.958 78.5877 63.756 78.5877 65.016C78.5877 66.024 79.1617 66.626 80.3797 66.92L81.5837 67.2C82.2977 67.382 82.5217 67.662 82.5217 68.124C82.5217 68.754 81.9897 69.132 81.0657 69.132C80.1977 69.132 79.6657 68.712 79.6657 68.012H78.4057ZM84.7931 66.57C84.7931 68.684 86.3051 70.168 88.3631 70.168C90.4071 70.168 91.9191 68.684 91.9191 66.57C91.9191 64.456 90.4071 62.972 88.3631 62.972C86.3051 62.972 84.7931 64.456 84.7931 66.57ZM86.1231 66.57C86.1231 65.142 87.0331 64.148 88.3631 64.148C89.6791 64.148 90.6031 65.142 90.6031 66.57C90.6031 67.998 89.6791 68.992 88.3631 68.992C87.0331 68.992 86.1231 67.998 86.1231 66.57ZM94.6918 70V65.94C94.6918 64.848 95.3498 64.162 96.3438 64.162C97.2678 64.162 97.8558 64.75 97.8558 65.828V70H99.1578V65.94C99.1578 64.848 99.8158 64.148 100.81 64.148C101.734 64.148 102.336 64.764 102.336 65.842V70H103.624V65.52C103.624 63.938 102.672 62.958 101.104 62.958C100.04 62.958 99.2138 63.49 98.8918 64.344C98.5418 63.49 97.7858 62.958 96.7218 62.958C95.7558 62.958 95.0278 63.406 94.6778 64.05L94.5518 63.154H93.3758V70H94.6918ZM108.402 70.168C110.096 70.168 111.244 69.342 111.58 67.872H110.348C110.124 68.656 109.452 69.076 108.43 69.076C107.128 69.076 106.372 68.278 106.274 66.836L111.566 66.822V66.332C111.566 64.302 110.292 62.958 108.346 62.958C106.358 62.958 105 64.442 105 66.584C105 68.712 106.386 70.168 108.402 70.168ZM108.346 64.064C109.508 64.064 110.25 64.82 110.25 65.954H106.302C106.47 64.75 107.198 64.064 108.346 64.064ZM116.416 66.57C116.416 68.684 117.928 70.168 119.986 70.168C122.03 70.168 123.542 68.684 123.542 66.57C123.542 64.456 122.03 62.972 119.986 62.972C117.928 62.972 116.416 64.456 116.416 66.57ZM117.746 66.57C117.746 65.142 118.656 64.148 119.986 64.148C121.302 64.148 122.226 65.142 122.226 66.57C122.226 67.998 121.302 68.992 119.986 68.992C118.656 68.992 117.746 67.998 117.746 66.57ZM124.23 63.154V64.26H125.238V70H126.554V64.26H128.178V63.154H126.554V62.062C126.554 61.32 126.778 60.886 127.632 60.886H128.22V59.752C127.954 59.71 127.66 59.696 127.408 59.696C126.162 59.696 125.238 60.382 125.238 62.062V63.154H124.23ZM135.161 70V64.26H136.505V63.154H135.161V61.012H133.845V63.154H132.501V64.26H133.845V70H135.161ZM139.002 69.986V66.262C139.002 65.086 139.688 64.162 140.962 64.162C141.942 64.162 142.6 64.722 142.6 66.108V70H143.916V65.814C143.916 64.064 143.076 62.958 141.326 62.958C140.262 62.958 139.436 63.462 139.002 64.204V59.696H137.686V69.986H139.002ZM148.693 70.168C150.387 70.168 151.535 69.342 151.871 67.872H150.639C150.415 68.656 149.743 69.076 148.721 69.076C147.419 69.076 146.663 68.278 146.565 66.836L151.857 66.822V66.332C151.857 64.302 150.583 62.958 148.637 62.958C146.649 62.958 145.291 64.442 145.291 66.584C145.291 68.712 146.677 70.168 148.693 70.168ZM148.637 64.064C149.799 64.064 150.541 64.82 150.541 65.954H146.593C146.761 64.75 147.489 64.064 148.637 64.064ZM156.427 63.154V64.26H157.435V70H158.751V64.26H160.375V63.154H158.751V62.062C158.751 61.32 158.975 60.886 159.829 60.886H160.417V59.752C160.151 59.71 159.857 59.696 159.605 59.696C158.359 59.696 157.435 60.382 157.435 62.062V63.154H156.427ZM165.518 63.098C165.252 63.042 165.056 63.014 164.818 63.014C163.88 63.014 163.194 63.49 162.914 64.204L162.83 63.168H161.598V70H162.914V66.374C162.914 65.058 163.684 64.302 164.93 64.302H165.518V63.098ZM169.461 70.168C171.155 70.168 172.303 69.342 172.639 67.872H171.407C171.183 68.656 170.511 69.076 169.489 69.076C168.187 69.076 167.431 68.278 167.333 66.836L172.625 66.822V66.332C172.625 64.302 171.351 62.958 169.405 62.958C167.417 62.958 166.059 64.442 166.059 66.584C166.059 68.712 167.445 70.168 169.461 70.168ZM169.405 64.064C170.567 64.064 171.309 64.82 171.309 65.954H167.361C167.529 64.75 168.257 64.064 169.405 64.064ZM173.535 68.012C173.535 69.314 174.557 70.168 176.167 70.168C177.791 70.168 178.911 69.342 178.911 68.04C178.911 67.018 178.337 66.486 177.175 66.206L175.971 65.912C175.299 65.744 174.963 65.436 174.963 64.974C174.963 64.344 175.425 63.98 176.251 63.98C177.049 63.98 177.511 64.414 177.539 65.1H178.799C178.771 63.798 177.791 62.958 176.293 62.958C174.781 62.958 173.717 63.756 173.717 65.016C173.717 66.024 174.291 66.626 175.509 66.92L176.713 67.2C177.427 67.382 177.651 67.662 177.651 68.124C177.651 68.754 177.119 69.132 176.195 69.132C175.327 69.132 174.795 68.712 174.795 68.012H173.535ZM181.686 69.986V66.262C181.686 65.086 182.372 64.162 183.646 64.162C184.626 64.162 185.284 64.722 185.284 66.108V70H186.6V65.814C186.6 64.064 185.76 62.958 184.01 62.958C182.946 62.958 182.12 63.462 181.686 64.204V59.696H180.37V69.986H181.686ZM191.377 70.168C193.071 70.168 194.219 69.342 194.555 67.872H193.323C193.099 68.656 192.427 69.076 191.405 69.076C190.103 69.076 189.347 68.278 189.249 66.836L194.541 66.822V66.332C194.541 64.302 193.267 62.958 191.321 62.958C189.333 62.958 187.975 64.442 187.975 66.584C187.975 68.712 189.361 70.168 191.377 70.168ZM191.321 64.064C192.483 64.064 193.225 64.82 193.225 65.954H189.277C189.445 64.75 190.173 64.064 191.321 64.064ZM195.451 68.012C195.451 69.314 196.473 70.168 198.083 70.168C199.707 70.168 200.827 69.342 200.827 68.04C200.827 67.018 200.253 66.486 199.091 66.206L197.887 65.912C197.215 65.744 196.879 65.436 196.879 64.974C196.879 64.344 197.341 63.98 198.167 63.98C198.965 63.98 199.427 64.414 199.455 65.1H200.715C200.687 63.798 199.707 62.958 198.209 62.958C196.697 62.958 195.633 63.756 195.633 65.016C195.633 66.024 196.207 66.626 197.425 66.92L198.629 67.2C199.343 67.382 199.567 67.662 199.567 68.124C199.567 68.754 199.035 69.132 198.111 69.132C197.243 69.132 196.711 68.712 196.711 68.012H195.451ZM204.218 70V64.26H205.562V63.154H204.218V61.012H202.902V63.154H201.558V64.26H202.902V70H204.218ZM212.573 70.168C213.679 70.168 214.617 69.678 214.967 68.894L215.107 70H216.227V65.702C216.227 63.854 215.079 62.958 213.385 62.958C211.621 62.958 210.445 63.896 210.445 65.324H211.593C211.593 64.498 212.223 64.008 213.329 64.008C214.253 64.008 214.939 64.414 214.939 65.562V65.758L212.783 65.926C211.173 66.052 210.235 66.836 210.235 68.096C210.235 69.342 211.103 70.168 212.573 70.168ZM212.951 69.146C212.097 69.146 211.565 68.782 211.565 68.054C211.565 67.382 212.041 66.934 213.203 66.822L214.953 66.682V67.046C214.953 68.334 214.197 69.146 212.951 69.146ZM219.366 70V66.374C219.366 65.044 220.08 64.162 221.312 64.162C222.32 64.162 222.964 64.722 222.964 66.108V70H224.28V65.814C224.28 64.064 223.454 62.958 221.648 62.958C220.682 62.958 219.814 63.42 219.38 64.204L219.24 63.154H218.05V70H219.366ZM228.846 70.168C229.938 70.168 230.862 69.692 231.31 68.754L231.422 70H232.598V59.696H231.296V64.26C230.834 63.42 229.952 62.958 228.902 62.958C226.872 62.958 225.654 64.498 225.654 66.598C225.654 68.684 226.858 70.168 228.846 70.168ZM229.112 68.978C227.768 68.978 226.984 67.97 226.984 66.556C226.984 65.156 227.768 64.148 229.112 64.148C230.456 64.148 231.282 65.156 231.282 66.556C231.282 67.984 230.456 68.978 229.112 68.978ZM239.641 70V65.94C239.641 64.848 240.299 64.162 241.293 64.162C242.217 64.162 242.805 64.75 242.805 65.828V70H244.107V65.94C244.107 64.848 244.765 64.148 245.759 64.148C246.683 64.148 247.285 64.764 247.285 65.842V70H248.573V65.52C248.573 63.938 247.621 62.958 246.053 62.958C244.989 62.958 244.163 63.49 243.841 64.344C243.491 63.49 242.735 62.958 241.671 62.958C240.705 62.958 239.977 63.406 239.627 64.05L239.501 63.154H238.325V70H239.641ZM249.949 66.57C249.949 68.684 251.461 70.168 253.519 70.168C255.563 70.168 257.075 68.684 257.075 66.57C257.075 64.456 255.563 62.972 253.519 62.972C251.461 62.972 249.949 64.456 249.949 66.57ZM251.279 66.57C251.279 65.142 252.189 64.148 253.519 64.148C254.835 64.148 255.759 65.142 255.759 66.57C255.759 67.998 254.835 68.992 253.519 68.992C252.189 68.992 251.279 67.998 251.279 66.57ZM257.972 68.012C257.972 69.314 258.994 70.168 260.604 70.168C262.228 70.168 263.348 69.342 263.348 68.04C263.348 67.018 262.774 66.486 261.612 66.206L260.408 65.912C259.736 65.744 259.4 65.436 259.4 64.974C259.4 64.344 259.862 63.98 260.688 63.98C261.486 63.98 261.948 64.414 261.976 65.1H263.236C263.208 63.798 262.228 62.958 260.73 62.958C259.218 62.958 258.154 63.756 258.154 65.016C258.154 66.024 258.728 66.626 259.946 66.92L261.15 67.2C261.864 67.382 262.088 67.662 262.088 68.124C262.088 68.754 261.556 69.132 260.632 69.132C259.764 69.132 259.232 68.712 259.232 68.012H257.972ZM266.739 70V64.26H268.083V63.154H266.739V61.012H265.423V63.154H264.079V64.26H265.423V70H266.739ZM275.837 70.168C276.929 70.168 277.853 69.692 278.301 68.754L278.413 70H279.589V59.696H278.287V64.26C277.825 63.42 276.943 62.958 275.893 62.958C273.863 62.958 272.645 64.498 272.645 66.598C272.645 68.684 273.849 70.168 275.837 70.168ZM276.103 68.978C274.759 68.978 273.975 67.97 273.975 66.556C273.975 65.156 274.759 64.148 276.103 64.148C277.447 64.148 278.273 65.156 278.273 66.556C278.273 67.984 277.447 68.978 276.103 68.978ZM284.441 70.168C286.135 70.168 287.283 69.342 287.619 67.872H286.387C286.163 68.656 285.491 69.076 284.469 69.076C283.167 69.076 282.411 68.278 282.313 66.836L287.605 66.822V66.332C287.605 64.302 286.331 62.958 284.385 62.958C282.397 62.958 281.039 64.442 281.039 66.584C281.039 68.712 282.425 70.168 284.441 70.168ZM284.385 64.064C285.547 64.064 286.289 64.82 286.289 65.954H282.341C282.509 64.75 283.237 64.064 284.385 64.064ZM290.419 70V59.696H289.103V70H290.419ZM293 61.53C293.476 61.53 293.868 61.138 293.868 60.662C293.868 60.172 293.476 59.794 293 59.794C292.524 59.794 292.132 60.172 292.132 60.662C292.132 61.138 292.524 61.53 293 61.53ZM292.356 70H293.672V63.154H292.356V70ZM295.135 66.584C295.135 68.74 296.465 70.168 298.481 70.168C300.133 70.168 301.407 69.174 301.673 67.69H300.357C300.119 68.502 299.419 68.992 298.481 68.992C297.235 68.992 296.437 68.04 296.437 66.57C296.437 65.086 297.291 64.134 298.537 64.134C299.419 64.134 300.119 64.596 300.343 65.464H301.659C301.421 63.938 300.217 62.958 298.495 62.958C296.493 62.958 295.135 64.442 295.135 66.584ZM303.705 61.53C304.181 61.53 304.573 61.138 304.573 60.662C304.573 60.172 304.181 59.794 303.705 59.794C303.229 59.794 302.837 60.172 302.837 60.662C302.837 61.138 303.229 61.53 303.705 61.53ZM303.061 70H304.377V63.154H303.061V70ZM305.84 66.57C305.84 68.684 307.352 70.168 309.41 70.168C311.454 70.168 312.966 68.684 312.966 66.57C312.966 64.456 311.454 62.972 309.41 62.972C307.352 62.972 305.84 64.456 305.84 66.57ZM307.17 66.57C307.17 65.142 308.08 64.148 309.41 64.148C310.726 64.148 311.65 65.142 311.65 66.57C311.65 67.998 310.726 68.992 309.41 68.992C308.08 68.992 307.17 67.998 307.17 66.57ZM318.991 63.154V66.766C318.991 68.236 318.333 69.006 317.129 69.006C316.121 69.006 315.491 68.446 315.491 66.976V63.154H314.175V67.41C314.175 69.09 315.071 70.168 316.667 70.168C317.675 70.168 318.585 69.678 318.977 68.964L319.117 70H320.293V63.154H318.991ZM321.505 68.012C321.505 69.314 322.527 70.168 324.137 70.168C325.761 70.168 326.881 69.342 326.881 68.04C326.881 67.018 326.307 66.486 325.145 66.206L323.941 65.912C323.269 65.744 322.933 65.436 322.933 64.974C322.933 64.344 323.395 63.98 324.221 63.98C325.019 63.98 325.481 64.414 325.509 65.1H326.769C326.741 63.798 325.761 62.958 324.263 62.958C322.751 62.958 321.687 63.756 321.687 65.016C321.687 66.024 322.261 66.626 323.479 66.92L324.683 67.2C325.397 67.382 325.621 67.662 325.621 68.124C325.621 68.754 325.089 69.132 324.165 69.132C323.297 69.132 322.765 68.712 322.765 68.012H321.505ZM52.548 79.878H51.176V90H52.548V79.878ZM55.9164 80.732C56.0004 80.102 55.5664 79.836 55.2164 79.836C54.8104 79.836 54.3764 80.102 54.4604 80.732L54.8244 83.63H55.5804L55.9164 80.732ZM59.5145 90H60.8165L63.6725 83.154H62.3005L60.7745 86.976C60.5365 87.578 60.3125 88.166 60.2005 88.614C60.0885 88.194 59.8925 87.62 59.6545 86.976L58.1565 83.154H56.7565L59.5145 90ZM67.3591 90.168C69.0531 90.168 70.2011 89.342 70.5371 87.872H69.3051C69.0811 88.656 68.4091 89.076 67.3871 89.076C66.0851 89.076 65.3291 88.278 65.2311 86.836L70.5231 86.822V86.332C70.5231 84.302 69.2491 82.958 67.3031 82.958C65.3151 82.958 63.9571 84.442 63.9571 86.584C63.9571 88.712 65.3431 90.168 67.3591 90.168ZM67.3031 84.064C68.4651 84.064 69.2071 84.82 69.2071 85.954H65.2591C65.4271 84.75 66.1551 84.064 67.3031 84.064ZM78.7751 90.168C80.4691 90.168 81.6171 89.342 81.9531 87.872H80.7211C80.4971 88.656 79.8251 89.076 78.8031 89.076C77.5011 89.076 76.7451 88.278 76.6471 86.836L81.9391 86.822V86.332C81.9391 84.302 80.6651 82.958 78.7191 82.958C76.7311 82.958 75.3731 84.442 75.3731 86.584C75.3731 88.712 76.7591 90.168 78.7751 90.168ZM78.7191 84.064C79.8811 84.064 80.6231 84.82 80.6231 85.954H76.6751C76.8431 84.75 77.5711 84.064 78.7191 84.064ZM85.0946 90H86.3966L89.2526 83.154H87.8806L86.3546 86.976C86.1166 87.578 85.8926 88.166 85.7806 88.614C85.6686 88.194 85.4726 87.62 85.2346 86.976L83.7366 83.154H82.3366L85.0946 90ZM92.9392 90.168C94.6332 90.168 95.7812 89.342 96.1172 87.872H94.8852C94.6612 88.656 93.9892 89.076 92.9672 89.076C91.6652 89.076 90.9092 88.278 90.8112 86.836L96.1032 86.822V86.332C96.1032 84.302 94.8292 82.958 92.8832 82.958C90.8952 82.958 89.5372 84.442 89.5372 86.584C89.5372 88.712 90.9232 90.168 92.9392 90.168ZM92.8832 84.064C94.0452 84.064 94.7872 84.82 94.7872 85.954H90.8392C91.0072 84.75 91.7352 84.064 92.8832 84.064ZM101.493 83.098C101.227 83.042 101.031 83.014 100.793 83.014C99.8551 83.014 99.1691 83.49 98.8891 84.204L98.8051 83.168H97.5731V90H98.8891V86.374C98.8891 85.058 99.6591 84.302 100.905 84.302H101.493V83.098ZM107.872 89.986V86.262C107.872 85.086 108.558 84.162 109.832 84.162C110.812 84.162 111.47 84.722 111.47 86.108V90H112.786V85.814C112.786 84.064 111.946 82.958 110.196 82.958C109.132 82.958 108.306 83.462 107.872 84.204V79.696H106.556V89.986H107.872ZM116.61 90.168C117.716 90.168 118.654 89.678 119.004 88.894L119.144 90H120.264V85.702C120.264 83.854 119.116 82.958 117.422 82.958C115.658 82.958 114.482 83.896 114.482 85.324H115.63C115.63 84.498 116.26 84.008 117.366 84.008C118.29 84.008 118.976 84.414 118.976 85.562V85.758L116.82 85.926C115.21 86.052 114.272 86.836 114.272 88.096C114.272 89.342 115.14 90.168 116.61 90.168ZM116.988 89.146C116.134 89.146 115.602 88.782 115.602 88.054C115.602 87.382 116.078 86.934 117.24 86.822L118.99 86.682V87.046C118.99 88.334 118.234 89.146 116.988 89.146ZM124.831 90.168C125.923 90.168 126.847 89.692 127.295 88.754L127.407 90H128.583V79.696H127.281V84.26C126.819 83.42 125.937 82.958 124.887 82.958C122.857 82.958 121.639 84.498 121.639 86.598C121.639 88.684 122.843 90.168 124.831 90.168ZM125.097 88.978C123.753 88.978 122.969 87.97 122.969 86.556C122.969 85.156 123.753 84.148 125.097 84.148C126.441 84.148 127.267 85.156 127.267 86.556C127.267 87.984 126.441 88.978 125.097 88.978ZM131.461 90.168C131.993 90.168 132.455 89.72 132.455 89.188C132.455 88.642 131.993 88.194 131.461 88.194C130.915 88.194 130.453 88.642 130.453 89.188C130.453 89.72 130.915 90.168 131.461 90.168ZM134.954 80.9C134.954 80.144 134.506 79.682 133.946 79.682C133.386 79.682 133.022 80.074 133.022 80.606C133.022 81.152 133.386 81.46 133.806 81.46C133.974 81.46 134.1 81.432 134.198 81.376C134.198 81.824 133.806 82.188 133.26 82.286V82.874C134.24 82.748 134.954 81.922 134.954 80.9ZM137.46 80.9C137.46 80.144 137.012 79.682 136.438 79.682C135.892 79.682 135.514 80.074 135.514 80.606C135.514 81.152 135.878 81.46 136.312 81.46C136.48 81.46 136.592 81.432 136.69 81.376C136.69 81.824 136.298 82.188 135.752 82.286V82.874C136.746 82.748 137.46 81.922 137.46 80.9Z" fill="#333F72"/>
<path d="M50.84 114.85H54.998L55.18 113.73H51.008L50.84 114.85ZM64.706 118.154C66.96 118.154 68.57 117.02 69.382 114.794H67.926C67.296 116.236 66.26 116.866 64.748 116.866C62.97 116.866 61.864 115.592 61.864 113.632C61.864 110.958 63.446 108.984 65.77 108.984C67.184 108.984 68.262 109.782 68.444 111.14H69.83C69.718 109.124 68.15 107.71 65.882 107.71C62.774 107.71 60.478 110.216 60.478 113.688C60.478 116.334 62.102 118.154 64.706 118.154ZM71.5172 118L72.0912 114.388C72.3152 112.96 73.1552 112.106 74.3172 112.106C75.3952 112.106 75.9132 112.82 75.7032 114.108L75.0872 118H76.3332L77.0052 113.814C77.2572 112.162 76.3052 110.958 74.7512 110.958C73.7712 110.958 73.0572 111.364 72.4412 112.246L73.1552 107.696H71.8952L70.2712 118H71.5172ZM80.1479 118.168C81.2119 118.168 82.1779 117.678 82.6399 116.88L82.5839 118H83.6759L84.3619 113.688C84.6279 112.022 83.6479 110.972 81.8279 110.972C80.1199 110.972 79.0139 111.826 78.7759 113.324H79.9379C80.0779 112.442 80.6799 111.994 81.7159 111.994C82.7939 111.994 83.3119 112.554 83.1299 113.576L83.1019 113.758L80.9599 113.926C79.1539 114.08 78.1179 114.948 78.1179 116.334C78.1179 117.44 78.9299 118.168 80.1479 118.168ZM80.5959 117.174C79.8399 117.174 79.3919 116.81 79.3919 116.222C79.3919 115.41 79.9939 114.906 81.2259 114.808L82.9759 114.668L82.9199 115.032C82.7239 116.348 81.8279 117.174 80.5959 117.174ZM90.4017 111.098C90.1777 111.042 89.9397 111.014 89.7017 111.014C88.8057 111.014 88.0637 111.504 87.6577 112.232L87.7417 111.154H86.5937L85.5017 118H86.7617L87.3497 114.332C87.5457 113.016 88.4557 112.26 89.6457 112.26H90.2197L90.4017 111.098ZM91.835 118L93.459 107.696H92.199L90.575 118H91.835ZM95.7472 109.502C96.2512 109.502 96.7132 109.026 96.7132 108.508C96.7132 108.102 96.4192 107.794 95.9992 107.794C95.4812 107.794 95.0192 108.27 95.0192 108.788C95.0192 109.194 95.3272 109.502 95.7472 109.502ZM93.7732 118H95.0332L96.1112 111.154H94.8652L93.7732 118ZM99.9697 118.168C101.468 118.168 102.77 117.286 103.232 115.886H101.972C101.664 116.656 100.908 117.104 100.012 117.104C98.8777 117.104 98.1917 116.32 98.1917 115.046C98.1917 114.962 98.1917 114.892 98.1917 114.822L103.4 114.808L103.47 114.332C103.778 112.372 102.644 110.972 100.698 110.972C98.5837 110.972 96.9597 112.778 96.9597 115.116C96.9597 116.964 98.1497 118.168 99.9697 118.168ZM100.642 112.036C101.776 112.036 102.448 112.806 102.266 113.968H98.3457C98.6817 112.82 99.5637 112.036 100.642 112.036ZM106.084 117.188C106.084 116.6 105.734 116.222 105.244 116.222C104.656 116.222 104.166 116.726 104.166 117.328C104.166 117.734 104.474 118.014 104.88 118.014C105.048 118.014 105.16 117.986 105.258 117.93C105.202 118.336 104.74 118.714 104.166 118.84L104.068 119.414C105.16 119.26 106.084 118.238 106.084 117.188ZM117.887 118L118.083 116.768H113.351L113.869 113.506H118.125L118.307 112.316H114.065L114.583 109.11H119.287L119.483 107.878H113.449L111.853 118H117.887ZM122.454 118.168C123.532 118.168 124.358 117.692 124.946 116.782L124.862 118H126.01L127.634 107.696H126.374L125.646 112.4C125.324 111.518 124.442 110.972 123.336 110.972C121.264 110.972 119.71 112.722 119.71 115.13C119.71 116.922 120.858 118.168 122.454 118.168ZM122.79 117.048C121.684 117.048 120.984 116.264 120.984 115.06C120.984 113.38 122.076 112.092 123.49 112.092C124.652 112.092 125.324 112.82 125.324 114.038C125.324 115.732 124.204 117.048 122.79 117.048ZM129.872 109.502C130.376 109.502 130.838 109.026 130.838 108.508C130.838 108.102 130.544 107.794 130.124 107.794C129.606 107.794 129.144 108.27 129.144 108.788C129.144 109.194 129.452 109.502 129.872 109.502ZM127.898 118H129.158L130.236 111.154H128.99L127.898 118ZM132.891 118L133.815 112.218H135.131L135.299 111.154H133.983L134.319 109.012H133.059L132.723 111.154H131.407L131.239 112.218H132.555L131.645 118H132.891ZM135.35 115.06C135.35 116.908 136.624 118.168 138.486 118.168C140.684 118.168 142.434 116.348 142.434 114.08C142.434 112.232 141.174 110.972 139.312 110.972C137.114 110.972 135.35 112.792 135.35 115.06ZM136.638 114.976C136.638 113.38 137.8 112.092 139.214 112.092C140.418 112.092 141.16 112.904 141.16 114.164C141.16 115.76 139.998 117.048 138.584 117.048C137.38 117.048 136.638 116.25 136.638 114.976ZM148.206 111.098C147.982 111.042 147.744 111.014 147.506 111.014C146.61 111.014 145.868 111.504 145.462 112.232L145.546 111.154H144.398L143.306 118H144.566L145.154 114.332C145.35 113.016 146.26 112.26 147.45 112.26H148.024L148.206 111.098ZM149.246 117.188C149.246 116.6 148.896 116.222 148.406 116.222C147.818 116.222 147.328 116.726 147.328 117.328C147.328 117.734 147.636 118.014 148.042 118.014C148.21 118.014 148.322 117.986 148.42 117.93C148.364 118.336 147.902 118.714 147.328 118.84L147.23 119.414C148.322 119.26 149.246 118.238 149.246 117.188ZM156.331 118L157.577 110.09L161.427 118H162.729L164.339 107.878H163.023L161.777 115.788L157.927 107.878H156.611L155.015 118H156.331ZM168.045 113.884L167.401 118H168.703L169.361 113.884L173.631 107.878H172.133L169.263 111.966C169.109 112.19 168.983 112.386 168.857 112.624C168.801 112.372 168.717 112.162 168.647 111.966L167.051 107.878H165.651L168.045 113.884ZM177.543 109.096H180.511L179.097 118H180.413L181.827 109.096H184.795L184.977 107.878H177.725L177.543 109.096ZM186.515 109.502C187.019 109.502 187.481 109.026 187.481 108.508C187.481 108.102 187.187 107.794 186.767 107.794C186.249 107.794 185.787 108.27 185.787 108.788C185.787 109.194 186.095 109.502 186.515 109.502ZM184.541 118H185.801L186.879 111.154H185.633L184.541 118ZM188.945 118L189.589 113.912C189.771 112.806 190.499 112.106 191.479 112.106C192.417 112.106 192.907 112.792 192.739 113.814L192.067 118H193.327L193.971 113.926C194.153 112.806 194.881 112.106 195.847 112.106C196.813 112.106 197.275 112.764 197.107 113.828L196.463 118H197.709L198.409 113.534C198.633 112.05 197.737 110.972 196.267 110.972C195.231 110.972 194.349 111.518 193.901 112.372C193.691 111.49 193.005 110.972 191.997 110.972C191.115 110.972 190.331 111.392 189.869 112.078L189.897 111.154H188.777L187.685 118H188.945ZM202.577 118.168C204.075 118.168 205.377 117.286 205.839 115.886H204.579C204.271 116.656 203.515 117.104 202.619 117.104C201.485 117.104 200.799 116.32 200.799 115.046C200.799 114.962 200.799 114.892 200.799 114.822L206.007 114.808L206.077 114.332C206.385 112.372 205.251 110.972 203.305 110.972C201.191 110.972 199.567 112.778 199.567 115.116C199.567 116.964 200.757 118.168 202.577 118.168ZM203.249 112.036C204.383 112.036 205.055 112.806 204.873 113.968H200.953C201.289 112.82 202.171 112.036 203.249 112.036ZM206.669 116.04C206.669 117.314 207.705 118.168 209.217 118.168C210.883 118.168 211.961 117.314 211.961 116.012C211.961 115.158 211.513 114.626 210.519 114.29L209.399 113.912C208.811 113.702 208.545 113.394 208.545 112.946C208.545 112.33 209.035 111.966 209.819 111.966C210.617 111.966 211.037 112.344 211.051 113.1H212.283C212.283 111.812 211.359 110.972 209.903 110.972C208.349 110.972 207.327 111.798 207.327 113.044C207.327 113.926 207.845 114.5 208.797 114.822L209.931 115.2C210.519 115.396 210.729 115.648 210.729 116.124C210.729 116.74 210.141 117.174 209.287 117.174C208.461 117.174 207.915 116.726 207.901 116.04H206.669Z" fill="#333F72"/>
</svg>
